<svg width="137" height="135" viewBox="0 0 137 135" fill="none" xmlns="http://www.w3.org/2000/svg">
<path d="M136.533 40.4961L68.604 0L0.679757 40.4596L0.539062 94.4458L68.604 134.41L136.393 93.4193L136.533 40.4961Z" fill="#FFED52"/>
<path d="M33.6404 55.0802H28.6591V57.7689H32.541V60.4783H28.6591V65.6524H25.6631V52.3916H33.6404V55.0802Z" fill="#122315"/>
<path d="M35.5288 60.6711V52.3916H38.5249V60.6711C38.5249 62.2447 39.4159 63.1722 40.854 63.1722C42.2921 63.1722 43.1831 62.2447 43.1831 60.6711V52.3916H46.1791V60.6711C46.1791 63.9485 44.1522 65.9025 40.854 65.9025C37.5557 65.9025 35.5288 63.9485 35.5288 60.6711Z" fill="#122315"/>
<path d="M56.6851 52.3916H59.6812V65.6524H56.7268L51.6674 57.7115V65.6524H48.6714V52.3916H51.7768L56.6851 60.5565V52.3916Z" fill="#122315"/>
<path d="M73.5099 59.0247C73.5099 62.9847 70.7639 65.6577 66.6684 65.6577H62.4062V52.397H66.6684C70.7587 52.397 73.5099 55.07 73.5099 59.03V59.0247ZM66.5382 62.9639C68.8517 62.9639 70.42 61.3747 70.42 59.0247C70.42 56.6748 68.8464 55.0856 66.5382 55.0856H65.4023V62.9691H66.5382V62.9639Z" fill="#122315"/>
<path d="M88.2293 55.0802H85.0821V65.6524H82.0705V55.0802H78.9233V52.3916H88.2241V55.0802H88.2293Z" fill="#122315"/>
<path d="M97.405 52.3916H100.401V65.6524H97.405V60.1969H92.8198V65.6524H89.8237V52.3916H92.8198V57.4875H97.405V52.3916Z" fill="#122315"/>
<path d="M111.118 55.0802H106.137V57.6021H110.175V60.2334H106.137V62.9637H111.118V65.6524H103.141V52.3916H111.118V55.0802Z" fill="#122315"/>
<path d="M43.179 71.7277H38.1977V74.4163H42.0795V77.1258H38.1977V82.2998H35.2017V69.0391H43.179V71.7277Z" fill="#122315"/>
<path d="M45.1719 77.3186V69.0391H48.1679V77.3186C48.1679 78.8921 49.0589 79.8196 50.497 79.8196C51.9351 79.8196 52.8261 78.8921 52.8261 77.3186V69.0391H55.8222V77.3186C55.8222 80.596 53.7953 82.5499 50.497 82.5499C47.1988 82.5499 45.1719 80.596 45.1719 77.3186Z" fill="#122315"/>
<path d="M66.8055 71.7277H63.6583V82.2998H60.6467V71.7277H57.4995V69.0391H66.8003V71.7277H66.8055Z" fill="#122315"/>
<path d="M68.4902 77.3186V69.0391H71.4863V77.3186C71.4863 78.8921 72.3773 79.8196 73.8154 79.8196C75.2535 79.8196 76.1445 78.8921 76.1445 77.3186V69.0391H79.1405V77.3186C79.1405 80.596 77.1137 82.5499 73.8154 82.5499C70.5171 82.5499 68.4902 80.596 68.4902 77.3186Z" fill="#122315"/>
<path d="M91.443 82.2998H88.374C88.4313 79.6841 86.9932 77.9438 84.81 77.7927V82.2998H81.814V69.0391H86.097C88.9211 69.0391 90.7761 70.6856 90.7761 73.2283C90.7761 74.8957 89.9423 76.1254 88.5042 76.6777C90.38 77.626 91.4795 79.6164 91.443 82.305V82.2998ZM84.81 71.5974V75.2917H85.6437C86.915 75.2917 87.7279 74.5726 87.7279 73.4524C87.7279 72.3321 86.8942 71.5974 85.6072 71.5974H84.81Z" fill="#122315"/>
<path d="M101.573 71.7277H96.5913V74.2496H100.629V76.8809H96.5913V79.6112H101.573V82.2998H93.5952V69.0391H101.573V71.7277Z" fill="#122315"/>
<path d="M68.7753 6.76306L68.6085 6.66406L6.56694 43.8932L6.44189 90.8243L68.447 127.517L68.6138 127.616L130.364 90.0115L130.52 89.9177L130.65 43.9244L68.7753 6.76306ZM31.4471 43.7108L67.5508 8.81079C67.6759 8.69095 67.8739 8.83164 67.8009 8.99316L51.7473 42.5332C51.1429 43.7994 49.8611 44.607 48.4595 44.607H31.8067C31.3377 44.607 31.1085 44.0391 31.4471 43.7108ZM68.744 9.11821L85.2457 43.8619C85.4125 44.2058 85.1572 44.607 84.7768 44.607H52.3049C51.9193 44.607 51.6692 44.2058 51.8359 43.8619L68.4627 9.11821C68.52 8.99837 68.6867 8.99837 68.744 9.11821ZM85.3343 42.5228L69.4058 8.99316C69.3328 8.83685 69.5308 8.69095 69.6559 8.816L105.64 43.716C105.973 44.0443 105.744 44.6122 105.275 44.6122H88.6274C87.2205 44.6122 85.9387 43.7994 85.3343 42.528V42.5228ZM51.9193 92.054L67.6759 125.224C67.7488 125.38 67.5508 125.526 67.4258 125.401L31.8171 90.866C31.4836 90.5377 31.7129 89.9698 32.1819 89.9698H48.6262C50.0331 89.9698 51.3149 90.7826 51.9193 92.054ZM105.259 90.866L69.5308 125.401C69.4058 125.521 69.2078 125.38 69.2807 125.219L85.1571 92.0383C85.7616 90.7722 87.0434 89.9646 88.445 89.9646H104.895C105.364 89.9646 105.593 90.5325 105.254 90.8608L105.259 90.866ZM68.3376 125.094L52.0079 90.7149C51.8411 90.371 52.0964 89.9698 52.4768 89.9698H84.5996C84.9852 89.9698 85.2353 90.371 85.0686 90.7149L68.6138 125.094C68.5564 125.214 68.3897 125.214 68.3324 125.094H68.3376ZM129.869 89.5477L70.7761 125.537C70.6146 125.636 70.4531 125.422 70.5886 125.292L106.072 90.9962C106.755 90.3397 107.661 89.9698 108.604 89.9698H121.375V89.3185H15.7166V89.9698H28.4824C29.4307 89.9698 30.3425 90.3397 31.0199 91.0014L66.0815 125.005C66.2169 125.136 66.0502 125.344 65.8939 125.25L7.09321 90.4491L7.21826 44.2579L65.9772 8.99837C66.1388 8.90458 66.3003 9.113 66.1648 9.24327L30.6447 43.5753C29.9622 44.2319 29.0555 44.6018 28.1124 44.6018H15.7166V45.2531H121.375V44.6018H108.98C108.031 44.6018 107.119 44.2319 106.442 43.5701L71.0419 9.23285C70.9064 9.10258 71.0731 8.88895 71.2294 8.98795L129.999 44.2892L129.869 89.5477Z" fill="#122315"/>
<path d="M68.6079 127.741L68.3839 127.611L6.32666 90.887V90.8245L6.45171 43.8361L6.5038 43.8048L68.6079 6.54443L68.832 6.6747L130.754 43.8673V43.9247L130.623 89.9752L130.42 90.1002L68.6184 127.736L68.6079 127.741ZM6.54028 90.7672L68.6079 127.501L130.41 89.8658L130.54 43.9924L68.6079 6.78412L6.67054 43.9507L6.54549 90.762L6.54028 90.7672ZM70.6817 125.672C70.6036 125.672 70.5306 125.636 70.4785 125.568C70.3951 125.459 70.4056 125.318 70.5046 125.219L105.988 90.9235C106.692 90.2461 107.619 89.871 108.593 89.871H121.26V89.4281H15.8098V89.871H28.4713C29.4509 89.871 30.3784 90.2461 31.0818 90.9287L66.1434 124.933C66.2424 125.026 66.2528 125.167 66.1694 125.276C66.086 125.386 65.9454 125.412 65.8307 125.344L6.97797 90.5171V90.4546L7.10302 44.206L7.15511 44.1748L65.9141 8.91522C66.0287 8.84748 66.1694 8.87353 66.2528 8.97774C66.3362 9.08716 66.3257 9.22785 66.2267 9.32164L30.7066 43.6537C30.0032 44.3311 29.0758 44.7062 28.1014 44.7062H15.8098V45.1491H121.26V44.7062H108.974C107.994 44.7062 107.067 44.3311 106.363 43.6485L70.9631 9.31122C70.8641 9.21743 70.8537 9.07153 70.937 8.96732C71.0204 8.8579 71.1611 8.83185 71.2757 8.9048L130.097 44.2373V44.2946L129.967 89.6105L129.915 89.6417L70.8224 125.631C70.7807 125.657 70.7286 125.672 70.6817 125.672ZM108.593 90.0794C107.671 90.0794 106.796 90.4337 106.129 91.0746L70.6452 125.37C70.614 125.396 70.6296 125.428 70.6452 125.438C70.6557 125.454 70.6817 125.469 70.713 125.448L129.759 89.4906L129.889 44.3519L71.1715 9.08195C71.135 9.06111 71.1142 9.08195 71.1038 9.09238C71.0934 9.10801 71.0777 9.13406 71.1038 9.16011L106.504 43.4974C107.171 44.1435 108.046 44.4978 108.969 44.4978H121.469V45.3576H15.6014V44.4978H28.1014C29.0236 44.4978 29.899 44.1435 30.566 43.5026L66.086 9.17053C66.1173 9.14448 66.1017 9.11322 66.086 9.1028C66.0756 9.08716 66.0548 9.06632 66.0183 9.09238L7.30624 44.3259L7.18119 90.3972L65.9349 125.167C65.9714 125.188 65.9922 125.167 66.0027 125.151C66.0131 125.136 66.0287 125.11 66.0027 125.084L30.9411 91.0798C30.2742 90.4337 29.3988 90.0794 28.4766 90.0794H15.6066V89.2197H121.474V90.0794H108.599H108.593ZM69.4156 125.558C69.3635 125.558 69.3113 125.542 69.2644 125.506C69.1602 125.433 69.1238 125.297 69.1811 125.183L85.0575 92.0021C85.6776 90.7047 87.0062 89.871 88.4391 89.871H104.889C105.149 89.871 105.373 90.0221 105.467 90.2618C105.561 90.5014 105.509 90.7672 105.321 90.9443L69.5927 125.48C69.5406 125.527 69.4781 125.553 69.4104 125.553L69.4156 125.558ZM88.4444 90.0794C87.0896 90.0794 85.8339 90.8714 85.2503 92.0907L69.3739 125.271C69.3582 125.308 69.3739 125.329 69.3895 125.334C69.4051 125.344 69.4312 125.355 69.4572 125.334L105.186 90.7984C105.337 90.6525 105.332 90.4702 105.285 90.3399C105.233 90.2149 105.108 90.0794 104.899 90.0794H88.4496H88.4444ZM67.5293 125.553C67.4616 125.553 67.3991 125.527 67.347 125.48L31.7383 90.9443C31.5508 90.762 31.4986 90.5014 31.5924 90.2618C31.6862 90.0221 31.9103 89.871 32.1708 89.871H48.6152C50.0533 89.871 51.3872 90.7099 52.002 92.0125L67.7586 125.183C67.8159 125.297 67.7795 125.433 67.6752 125.506C67.6284 125.537 67.5763 125.558 67.5242 125.558L67.5293 125.553ZM32.176 90.0794C31.9676 90.0794 31.8425 90.2149 31.7904 90.3399C31.7383 90.465 31.7383 90.6525 31.8842 90.7984L67.4929 125.334C67.5189 125.36 67.545 125.349 67.5606 125.334C67.5763 125.318 67.5919 125.302 67.5762 125.271L51.8197 92.1011C51.2361 90.8714 49.9803 90.0794 48.6204 90.0794H32.176ZM68.4725 125.292C68.3735 125.292 68.2797 125.235 68.238 125.141L51.9082 90.762C51.8144 90.5692 51.8301 90.3399 51.9447 90.1576C52.0593 89.9752 52.2573 89.8658 52.471 89.8658H84.5938C84.8074 89.8658 85.0054 89.9752 85.1253 90.1576C85.2399 90.3399 85.2555 90.564 85.1617 90.762L68.7069 125.141C68.6652 125.235 68.5715 125.292 68.4725 125.292ZM68.4256 125.052C68.436 125.078 68.4621 125.084 68.4725 125.084C68.4725 125.084 68.5089 125.084 68.5193 125.052L84.9742 90.6734C85.0367 90.5431 85.0262 90.392 84.9533 90.2722C84.8751 90.1523 84.7449 90.0794 84.599 90.0794H52.4762C52.3303 90.0794 52.2 90.1523 52.1219 90.2722C52.0437 90.392 52.0385 90.5431 52.0958 90.6734L68.4256 125.052ZM105.274 44.7114H88.6267C87.1886 44.7114 85.8547 43.8726 85.2399 42.5699L69.3114 9.04027C69.254 8.92564 69.2905 8.79016 69.3947 8.71722C69.4989 8.64427 69.6344 8.65469 69.7282 8.74327L105.712 43.6433C105.9 43.8257 105.952 44.0862 105.858 44.3259C105.759 44.5656 105.54 44.7167 105.28 44.7167L105.274 44.7114ZM69.5458 8.87353C69.5458 8.87353 69.5198 8.87874 69.5146 8.88395C69.4989 8.89437 69.4833 8.91522 69.4989 8.94648L85.4275 42.4761C86.011 43.7058 87.2668 44.4978 88.6267 44.4978H105.274C105.483 44.4978 105.608 44.3623 105.66 44.2373C105.712 44.1122 105.712 43.9247 105.566 43.7788L69.5823 8.87874C69.5823 8.87874 69.5563 8.86311 69.5458 8.86311V8.87353ZM84.7762 44.7114H52.3042C52.0906 44.7114 51.8926 44.602 51.7727 44.4197C51.6581 44.2373 51.6425 44.0132 51.7363 43.8152L68.363 9.07153C68.4047 8.97774 68.4985 8.92564 68.5975 8.92564C68.6965 8.92564 68.7903 8.98295 68.832 9.07674L85.3337 43.8204C85.4275 44.0132 85.4118 44.2425 85.2972 44.4249C85.1826 44.6072 84.9846 44.7167 84.7709 44.7167L84.7762 44.7114ZM68.6027 9.13406C68.6027 9.13406 68.5662 9.13406 68.5558 9.16532L51.9291 43.909C51.8666 44.0393 51.877 44.1904 51.9551 44.3102C52.0333 44.4301 52.1636 44.503 52.3094 44.503H84.7814C84.9273 44.503 85.0575 44.4301 85.1357 44.3102C85.2138 44.1904 85.2243 44.0393 85.1617 43.909L68.66 9.16532C68.6496 9.13927 68.6079 9.13927 68.6131 9.13406H68.6027ZM48.4589 44.7114H31.8061C31.5455 44.7114 31.3215 44.5603 31.2277 44.3207C31.1339 44.081 31.186 43.8152 31.3736 43.6381L67.4772 8.73806C67.571 8.64948 67.7065 8.63906 67.8107 8.71201C67.9149 8.78495 67.9514 8.92043 67.8941 9.03506L51.8405 42.5751C51.2204 43.8726 49.8918 44.7062 48.4589 44.7062V44.7114ZM31.5195 43.784C31.3684 43.9299 31.3736 44.1122 31.4205 44.2425C31.4726 44.3676 31.5976 44.503 31.8061 44.503H48.4589C49.8136 44.503 51.0693 43.711 51.6529 42.4918L67.7065 8.95169C67.7221 8.91522 67.7065 8.89437 67.6909 8.88916C67.6753 8.88395 67.6492 8.86832 67.6232 8.88916L31.5195 43.7892V43.784Z" fill="#122315"/>
</svg>
