<svg viewBox="0 0 472 472" fill="none" xmlns="http://www.w3.org/2000/svg">
<g clip-path="url(#clip0_1323_9616)">
<path d="M236.186 470.003C365.188 470.003 469.765 365.426 469.765 236.424C469.765 107.422 365.188 2.8457 236.186 2.8457C107.185 2.8457 2.60791 107.422 2.60791 236.424C2.60791 365.426 107.185 470.003 236.186 470.003Z" fill="#55DD4A"/>
<path d="M236.187 471.424C106.603 471.424 1.18652 366.008 1.18652 236.424C1.18652 106.841 106.603 1.42432 236.187 1.42432C365.77 1.42432 471.187 106.841 471.187 236.424C471.187 366.008 365.77 471.424 236.187 471.424ZM236.187 4.25535C108.17 4.25535 4.01756 108.408 4.01756 236.424C4.01756 364.44 108.17 468.593 236.187 468.593C364.203 468.593 468.355 364.44 468.355 236.424C468.355 108.408 364.203 4.25535 236.187 4.25535Z" fill="#122315"/>
<path d="M273.947 451.795C392.893 430.778 472.28 317.316 451.263 198.37C430.246 79.4247 316.784 0.0375493 197.839 21.0543C78.8928 42.071 -0.494322 155.533 20.5224 274.479C41.5391 393.424 155.001 472.812 273.947 451.795Z" fill="#122315"/>
<path d="M77.1226 145.855C71.4164 142.261 69.8348 135.334 73.4464 129.588C74.4082 128.049 75.5701 126.943 77.1929 126.002L81.9403 128.988C80.1287 129.419 78.6649 130.492 77.7087 131.994C75.657 135.256 76.6066 139.234 79.9532 141.345C83.2716 143.436 87.2925 142.59 89.3443 139.327C90.2984 137.814 90.6126 136.031 90.2293 134.211L94.9486 137.177C94.7505 139.199 94.2617 140.692 93.3195 142.203C89.7452 147.881 82.8267 149.437 77.1205 145.843L77.1226 145.855Z" fill="#EFE9E0"/>
<path d="M88.3691 110.208L91.6025 106.231L109.223 120.552L105.99 124.529L98.7429 118.641L93.7982 124.734L101.045 130.622L97.8116 134.599L80.1933 120.29L83.4266 116.313L90.1981 121.816L95.1428 115.723L88.3713 110.22L88.3691 110.208Z" fill="#EFE9E0"/>
<path d="M121.697 108.329L117.917 106.073L112.229 111.52L114.321 115.395L110.267 119.27L100.157 97.5265L104.496 93.3791L125.762 104.453L121.709 108.327L121.697 108.329ZM109.998 107.411L113.915 103.671L105.134 98.3869L109.998 107.411Z" fill="#EFE9E0"/>
<path d="M124.611 77.0547L128.738 74.0181L142.208 92.2928L138.136 95.2949L123.108 89.4984L131.173 100.437L127.045 103.473L113.575 85.1985L117.853 82.0366L132.916 88.3082L124.623 77.0526L124.611 77.0547Z" fill="#EFE9E0"/>
<path d="M147.333 74.1626L155.724 69.5583L160.832 78.8474C159.828 81.5419 158.006 83.801 155.194 85.3465C149.031 88.7306 142.349 86.7401 139.061 80.7693C135.75 74.7408 137.775 68.0412 143.861 64.7078C145.458 63.8333 146.946 63.3853 148.467 63.4005L151.123 68.2368C149.312 67.9767 147.792 68.1713 146.341 68.9705C142.844 70.8963 141.787 74.6861 143.735 78.2408C145.699 81.8173 149.539 83.0145 153.002 81.107C153.969 80.5782 154.72 79.8657 155.335 79.0168L153.553 75.778L149.46 78.0312L147.333 74.1626Z" fill="#EFE9E0"/>
<path d="M171.267 57.805L163.356 61.0042L164.975 64.9997L171.378 62.4123L173.066 66.5929L166.663 69.1802L168.415 73.5099L176.327 70.3106L178.056 74.5826L165.401 79.7058L156.897 58.666L169.551 53.5428L171.281 57.8148L171.267 57.805Z" fill="#EFE9E0"/>
<path d="M197.705 50.2462L192.484 51.5636L196.894 69.1195L191.896 70.3727L187.486 52.8168L182.266 54.1341L181.143 49.6684L196.585 45.7925L197.707 50.2582L197.705 50.2462Z" fill="#EFE9E0"/>
<path d="M213.938 43.0965L219.011 42.4099L222.085 64.9029L217.012 65.5895L215.747 56.337L207.977 57.4014L209.241 66.654L204.168 67.3406L201.095 44.8476L206.168 44.161L207.349 52.7991L215.119 51.7346L213.938 43.0965Z" fill="#EFE9E0"/>
<path d="M239.375 46.3505L230.841 46.5135L230.925 50.8295L237.835 50.6943L237.917 55.2081L231.007 55.3433L231.092 60.0169L239.627 59.8539L239.711 64.4535L226.062 64.7183L225.63 42.0178L239.279 41.753L239.363 46.3527L239.375 46.3505Z" fill="#EFE9E0"/>
<path d="M274.337 45.4786L279.588 46.2904L270.491 67.8492L265.076 67.017L264.297 51.6451L258.886 66.0625L253.444 65.2226L251.302 41.9235L256.489 42.7219L257.363 58.7681L262.971 43.7235L267.905 44.4805L268.74 60.5211L274.349 45.4765L274.337 45.4786Z" fill="#EFE9E0"/>
<path d="M279.73 58.123C281.81 51.5986 288.123 48.4348 294.74 50.5478C301.383 52.6685 304.677 58.8849 302.597 65.4093C300.517 71.9338 294.23 75.1053 287.587 72.9846C280.971 70.8716 277.65 64.6475 279.73 58.123ZM297.564 63.8063C298.779 60.001 296.958 56.3991 293.257 55.2146C289.582 54.0379 286.019 55.9383 284.803 59.7436C283.588 63.5489 285.409 67.1508 289.084 68.3276C292.797 69.5099 296.36 67.6095 297.566 63.8183L297.564 63.8063Z" fill="#EFE9E0"/>
<path d="M316.605 84.5634L311.853 82.3185C313.847 78.3138 312.9 74.5576 309.64 72.7275L306.346 79.7133L301.714 77.5211L311.412 56.9912L318.037 60.1268C322.412 62.1917 324.078 66.1047 322.219 70.0361C320.997 72.6209 318.807 73.9088 316.18 73.7066C318.397 76.5476 318.638 80.4286 316.617 84.5613L316.605 84.5634ZM314.165 63.1429L311.462 68.8644L312.755 69.4751C314.719 70.3988 316.504 69.886 317.32 68.1502C318.156 66.3861 317.384 64.6717 315.391 63.7283L314.153 63.1451L314.165 63.1429Z" fill="#EFE9E0"/>
<path d="M326.002 84.8155L333.021 89.066L330.633 93.0045L319.233 86.098L331.004 66.6825L335.384 69.3386L326.002 84.8155Z" fill="#EFE9E0"/>
<path d="M354.527 96.6796C350.421 102.069 343.908 102.85 338.334 98.6031L332.53 94.175L346.293 76.1225L352.097 80.5506C357.672 84.7972 358.634 91.29 354.527 96.6796ZM340.946 94.8102C344.097 97.2146 347.89 96.6803 350.321 93.4744C352.755 90.2805 352.269 86.4798 349.129 84.0733L347.587 82.8898L339.402 93.6147L340.955 94.7961L340.946 94.8102Z" fill="#EFE9E0"/>
<g clip-path="url(#clip1_1323_9616)">
<path d="M145.478 342.857C146.278 342.166 147.032 342.663 147.625 343.155C151.862 346.655 156.857 349.196 160.558 353.39C161.71 354.693 162.983 355.9 163.979 357.335C164.963 358.752 166.4 359.442 167.974 359.892C170.258 360.544 172.187 359.015 171.769 356.695C171.059 352.765 169.493 349.274 165.752 347.167C162.464 345.312 159.375 343.167 156.404 340.843C155.552 340.18 154.576 339.598 154.166 338.574C153.112 335.935 150.687 334.884 148.422 333.798C146.263 332.762 143.896 332.137 141.608 331.373C141.249 331.253 140.819 331.357 140.538 331.357C139.812 331.792 139.398 332.32 139.284 333.006C138.941 335.121 138.703 337.251 137.949 339.28C137.484 340.537 138.136 341.635 138.492 342.771C138.792 343.73 138.769 344.626 138.019 345.382C137.125 346.29 136.028 346.244 135.028 345.735C128.464 342.399 121.357 339.943 116.437 333.98C113.789 330.772 110.818 327.846 107.194 325.658C106.155 325.03 105.323 324.13 104.648 323.109C103.957 322.066 103.637 320.945 103.773 319.684C104.047 317.123 105.812 316.142 108.014 317.445C108.928 317.984 109.736 318.733 110.497 319.482C112.501 321.468 114.535 323.435 116.398 325.546C118.975 328.471 122.329 330.132 125.824 331.579C127.788 332.393 129.905 331.804 130.916 330.38C131.935 328.94 131.736 326.908 130.237 325.243C129.253 324.149 128.089 323.218 127.015 322.205C124.571 319.905 122.122 317.604 119.69 315.292C118.596 314.248 117.753 313.081 117.761 311.463C117.772 309.639 118.963 308.681 120.662 309.294C122.716 310.035 124.442 311.323 126.078 312.739C128.109 314.497 130.081 316.336 132.224 317.953C134.15 319.404 136.207 320.712 138.312 321.895C144.209 325.212 149.492 329.352 154.58 333.743C155.994 334.965 157.165 336.467 158.434 337.852C159.164 338.647 159.902 339.431 160.961 339.796C161.785 340.079 162.585 340.017 163.175 339.33C163.671 338.756 163.538 338.085 163.206 337.46C162.128 335.427 160.754 333.604 159.055 332.056C155.88 329.162 152.713 326.252 149.433 323.482C146.641 321.123 144.396 318.271 141.916 315.633C139.605 313.174 137.109 310.951 134.247 309.135C133.454 308.631 132.627 308.138 131.951 307.498C128.253 303.998 123.743 301.919 119.01 300.317C116.351 299.416 113.563 298.881 110.829 298.21C110.005 298.008 109.232 298.276 108.522 298.71C107.834 299.133 107.198 299.692 106.452 299.956C101.223 301.806 98.4703 306.101 95.8501 310.504C94.749 312.355 93.6478 314.178 92.1014 315.711C90.7503 317.045 89.1532 317.523 87.2984 317.216C85.8184 316.972 84.8891 315.905 84.9515 314.431C85.0023 313.205 85.3694 312.045 86.0488 311.024C87.0914 309.465 88.1848 307.94 89.2977 306.431C90.1724 305.244 91.0666 304.068 92.0194 302.943C93.8547 300.778 93.7571 298.229 93.4603 295.688C93.2651 294.02 91.7734 293.772 90.4536 293.481C88.8525 293.124 88.1379 293.399 87.3765 294.668C87.0328 295.238 86.7478 295.855 86.5369 296.487C84.3502 303.079 80.3672 308.658 76.3724 314.209C74.3302 317.049 71.8466 319.544 68.8867 321.468C65.6495 323.571 63.3574 326.52 61.2019 329.604C59.0307 332.711 57.2852 335.978 56.9104 339.858C56.801 340.979 56.5901 342.29 55.2039 342.849C53.9231 342.426 53.4076 341.27 52.8727 340.23C49.4871 333.681 46.1953 327.098 43.8406 320.087C43.2314 318.271 43.3447 316.7 44.3404 315.121C46.4218 311.827 48.956 308.871 51.4122 305.857C54.2082 302.431 57.2618 299.207 59.5423 295.389C60.0226 294.586 60.7333 293.775 60.8231 292.914C61.1511 289.791 62.6115 287.037 63.455 284.088C63.5643 283.704 63.6698 283.312 63.7322 282.916C63.9119 281.795 63.0137 281.011 62.0336 281.493C61.1979 281.904 60.3662 282.393 59.675 283.006C58.4762 284.076 57.3868 285.271 56.2504 286.416C54.9345 287.743 53.8255 289.256 52.1112 290.198C51.3341 290.625 50.7835 291.498 50.2095 292.231C49.2138 293.508 48.1477 294.707 46.8708 295.711C43.6376 298.253 40.1309 298.008 36.5423 296.677C35.449 296.274 34.8749 295.32 34.543 294.28C33.3208 290.474 32.4617 286.587 31.7705 282.893C32.5515 282.02 33.2544 282.125 33.9026 282.226C36.636 282.637 38.6002 281.345 40.1895 279.367C41.9584 277.171 43.7469 274.979 45.305 272.639C47.1793 269.823 49.3817 267.324 51.7793 264.961C52.8297 263.926 53.8684 262.859 54.7626 261.691C56.4808 259.449 55.8248 256.283 53.4272 254.781C51.1077 253.33 48.1087 253.412 45.8829 255.146C44.6177 256.131 43.4267 257.249 42.3606 258.444C39.3109 261.873 35.8121 264.802 32.2625 267.681C30.1929 269.361 28.9629 268.868 28.3537 266.234C27.7719 263.712 28.139 261.594 30.2398 259.708C33.6371 256.651 36.6126 253.175 39.3539 249.517C39.596 249.195 39.8381 248.869 40.1231 248.586C44.2194 244.535 48.2688 240.434 52.4548 236.477C53.599 235.391 55.1414 234.712 56.516 233.874C57.4219 233.323 58.3161 233.649 59.2299 233.959C61.4791 234.72 63.7479 235.426 66.3602 236.268C66.1767 233.82 64.9154 232.404 63.6541 231.119C61.1238 228.539 58.0857 226.51 55.6842 223.752C54.3995 222.278 52.2986 222.235 50.4516 221.878C48.9443 221.587 47.9681 222.611 46.8201 223.298C41.6851 226.379 37.5615 230.584 33.5121 234.883C31.8564 236.644 30.1656 238.374 28.4826 240.109C28.1077 240.497 27.6821 240.83 27.0807 240.78C25.7218 238.417 25.8546 236.016 27.7836 233.971C31.0052 230.557 33.9846 226.887 37.6904 223.962C39.1 222.848 39.7522 221.653 39.7209 219.88C39.6975 218.553 40.1192 217.226 40.1622 215.896C40.2754 212.575 38.444 210.976 35.0819 211.423C34.0198 211.562 32.981 211.9 31.9267 212.121C31.2824 212.257 30.6303 212.342 30.1812 212.416C29.2909 211.814 29.326 211.147 29.4315 210.48C29.9508 207.178 30.3726 203.873 31.5323 200.688C32.2157 198.802 33.2661 197.363 35.0663 196.529C38.2214 195.066 40.5839 192.796 42.4466 189.898C43.9421 187.574 46.0078 185.961 48.8506 185.394C53.2632 184.521 57.375 186.589 59.0073 190.709C59.5969 192.203 60.1475 193.731 60.4951 195.291C61.6509 200.47 64.029 205.145 66.8093 209.56C69.0117 213.052 71.6123 216.365 74.4473 219.38C79.1488 224.384 83.0772 229.99 87.4975 235.201C91.258 239.635 94.1984 244.566 97.2598 249.451C98.607 251.6 100.146 253.664 101.829 255.569C109.193 263.91 116.07 272.69 124.294 280.278C126.648 282.451 128.526 285.12 130.67 287.525C134.064 291.331 137.539 295.067 140.901 298.904C146.298 305.069 151.667 311.257 155.689 318.45C156.415 319.746 157.446 320.805 158.598 321.759C161.406 324.091 163.663 326.83 165.65 329.934C168.462 334.329 170.844 339.008 174.202 343.066C175.397 344.513 176.522 346.011 177.869 347.334C181.969 351.349 184.995 356.04 186.803 361.491C187.182 362.635 187.596 363.772 188.076 364.874C188.393 365.603 188.686 366.503 189.279 366.926C193 369.595 195.437 373.587 199.424 376.055C206.019 380.14 210.178 386.429 213.697 393.156C214.876 395.41 216.11 397.641 217.305 399.887C217.617 400.477 217.941 401.074 218.144 401.707C218.644 403.259 218.152 404.457 216.84 405.09C215.501 405.734 214.329 405.451 213.302 404.128C212.814 403.499 212.424 402.781 212.06 402.068C211.334 400.632 210.561 399.208 209.983 397.715C207.827 392.167 204.079 387.872 199.42 384.279C196.12 381.738 192.876 379.123 189.47 376.73C186.397 374.569 183.168 372.613 179.415 371.737C177.447 371.275 175.557 370.588 173.734 369.692C171.547 368.617 169.208 367.966 166.791 367.632C163.823 367.221 161.457 365.832 159.742 363.395C158.044 360.986 156.154 358.67 154.764 356.09C153.209 353.211 151.308 350.678 149.023 348.381C147.793 347.144 146.555 345.902 145.692 344.362C145.431 343.896 145.169 343.431 145.485 342.849L145.478 342.857ZM89.7038 258.494C89.4929 256.814 88.5284 256.038 87.4663 255.495C85.0335 254.25 83.1201 252.395 81.1286 250.599C78.9263 248.613 76.4349 247.084 73.393 246.553C70.7337 246.087 68.1877 245.191 65.9424 243.639C62.9903 241.602 61.8969 243.173 61.1628 245.354C60.5575 247.146 60.8504 248.108 62.4788 249.078C63.3925 249.621 64.3922 250.075 65.4113 250.39C67.9769 251.177 70.5502 251.972 73.1665 252.558C77.5244 253.532 81.6792 254.991 85.6544 257.012C86.8259 257.61 87.9349 258.428 89.7038 258.494ZM87.6303 270.54C84.8383 270.525 82.4172 271.875 80.539 274.102C78.7349 276.24 77.0675 278.505 75.4743 280.806C73.9982 282.936 74.1857 284.294 75.9078 286.164C77.6493 288.061 78.6998 288.041 80.4335 285.927C82.8038 283.037 85.139 280.119 87.4194 277.163C88.3098 276.007 89.122 274.761 89.7741 273.458C90.6254 271.759 89.7975 270.591 87.6342 270.544L87.6303 270.54Z" fill="#AEFFE4"/>
<path d="M301.283 253.249C302.392 253.544 303.419 253.846 304.462 254.087C305.88 254.417 306.84 255.301 307.52 256.52C309.995 260.962 312.795 265.222 314.654 269.997C315.572 272.36 316.841 274.587 317.829 276.926C318.399 278.273 318.781 279.712 319.137 281.132C319.336 281.923 319.273 282.804 318.282 283.107C317.356 283.39 316.727 282.8 316.306 282.09C315.693 281.054 315.173 279.96 314.607 278.897C313.479 276.763 312.167 274.785 310.28 273.466C309.152 273.737 308.922 274.416 309.125 275.068C310.444 279.27 311.292 283.607 313.318 287.607C316.364 293.62 319.894 299.281 324.401 304.32C326.334 306.485 327.419 308.976 327.708 311.913C327.97 314.567 328.673 317.174 329.098 319.816C329.438 321.93 328.946 323.191 327.888 323.148C326.283 323.086 326.064 321.686 325.748 320.596C324.873 317.577 322.991 315.094 321.566 312.375C321.503 312.258 321.433 312.138 321.347 312.037C320.968 311.614 320.511 311.346 319.941 311.603C319.402 311.847 319.156 312.34 319.164 312.902C319.172 313.434 319.246 313.969 319.355 314.489C320.015 317.635 320.64 320.79 321.382 323.913C322.073 326.822 323.459 329.445 325.342 331.753C327.083 333.887 328.141 336.269 328.829 338.907C330.199 344.153 332.613 348.917 335.885 353.246C339.954 358.628 342.793 364.726 346.116 370.546C346.635 371.454 347.166 372.466 346.319 373.521C344.839 373.983 344.144 372.784 343.203 372.113C341.774 371.093 340.973 371.069 339.985 371.981C338.985 372.905 338.794 373.774 339.536 375.24C341.504 379.12 344.284 382.441 347.568 385.218C350.552 387.744 353.199 390.603 356.175 393.117C356.581 393.459 357.007 393.855 357.229 394.312C358.9 397.742 361.458 400.477 364.141 403.119C364.313 403.286 364.332 403.604 364.504 404.07C363.801 406.122 361.696 406.494 359.756 407.569C357.948 405.637 355.581 404.756 353.149 403.973C351.188 403.34 349.579 402.114 348.201 400.601C346.389 398.619 344.562 396.648 342.804 394.623C342.016 393.715 341.254 392.749 340.688 391.701C336.721 384.392 333.237 376.854 329.961 369.215C327.845 364.276 326.38 359.159 324.928 354.011C323.842 350.162 322.104 346.5 320.839 342.698C319.32 338.131 317.95 333.519 316.602 328.902C314.806 322.745 313.096 316.557 311.331 310.388C311.085 309.531 311.069 308.476 309.859 308.243C308.945 308.487 308.984 309.259 309.144 309.857C309.847 312.487 309.87 315.156 309.71 317.837C309.613 319.498 310.054 320.976 310.804 322.454C313.209 327.187 313.197 332.265 312.612 337.356C312.291 340.133 311.475 342.841 312.057 345.704C312.233 346.566 311.881 347.551 311.674 348.459C311.022 351.311 310.323 354.147 309.593 357.2C310.999 357.184 311.202 356.148 311.596 355.446C312.401 354.015 313.291 352.738 314.884 352.048C317.153 351.066 319.043 352.199 318.977 354.682C318.902 357.378 318.239 359.985 317.157 362.464C316.243 364.559 315.486 366.701 315.076 368.951C314.982 369.479 314.779 369.999 314.771 370.526C314.673 376.175 313.455 381.626 311.995 387.24C312.916 386.386 313.818 385.506 314.771 384.687C316.06 383.577 317.493 382.867 319.203 383.69C320.913 384.509 321.952 385.793 321.87 387.798C321.628 393.54 321.503 399.271 320.621 404.993C319.988 409.098 319.348 413.179 318.332 417.206C318.285 417.392 318.489 417.641 318.578 417.862C319.219 417.761 319.445 417.225 319.601 416.748C320.785 413.051 322.725 409.633 323.631 405.831C323.787 405.183 324.018 404.539 324.319 403.945C325.927 400.753 328.676 400.008 331.695 401.885C333.23 402.84 333.956 404.112 333.573 405.936C332.41 411.437 331.25 416.934 330.121 422.444C329.856 423.735 329.165 424.597 327.977 425.155C319.09 429.345 310.116 433.31 300.596 435.91C299.686 436.158 298.71 436.255 297.871 436.651C293.329 438.792 288.37 439.595 283.649 441.159C278.389 442.905 272.867 443.467 267.502 444.732C266.53 444.961 265.382 445.306 264.503 444.344C264.234 443.347 264.98 442.847 265.499 442.276C270.318 437.015 274.543 431.293 278.674 425.501C280.478 422.967 282.442 420.62 284.879 418.673C287.671 416.446 289.69 413.676 291.021 410.351C292.216 407.363 293.688 404.5 295.414 401.769C296.418 400.178 297.328 398.53 297.507 396.597C297.566 395.942 297.695 395.267 297.105 394.751C296.328 394.398 295.789 394.887 295.313 395.325C292.439 397.959 289.713 400.613 288.499 404.57C287.214 408.76 284.43 412.12 281.033 414.867C276.444 418.579 272.004 422.447 266.893 425.54C263.238 427.747 260.083 430.777 256.721 433.462C254.487 435.246 252.062 436.655 249.266 437.349C248.766 437.473 248.227 437.45 247.817 437.485C246.435 436.461 246.943 435.227 247.068 434.075C247.22 432.674 247.884 431.526 248.954 430.633C251.429 428.569 253.921 426.525 256.424 424.492C258.509 422.797 260.626 421.14 262.703 419.433C263.32 418.925 264.124 418.401 264.359 417.718C265.226 415.224 267.322 414.405 269.49 413.586C270.243 413.303 271.001 413.004 271.688 412.597C272.739 411.976 272.774 411.46 272.032 409.404C270.353 409.202 268.959 410.145 267.65 410.952C264.288 413.024 260.536 414.133 256.912 415.561C253.901 416.744 251.426 416.054 249.372 413.551C247.739 411.561 247.595 409.87 249.192 407.751C250.59 405.901 252.464 404.613 254.479 403.468C260.208 400.217 265.803 396.768 270.938 392.52C270.415 391.686 269.794 392.202 269.314 392.427C266.393 393.789 263.359 394.918 260.704 396.819C259.271 397.843 257.548 398.328 255.858 398.782C255.233 398.949 254.507 398.983 253.878 398.844C251.808 398.386 250.926 396.295 251.957 394.471C252.578 393.373 253.546 392.702 254.635 392.116C258.302 390.142 262.027 388.249 265.577 386.08C268.861 384.074 271.805 381.607 274.363 377.696C271.821 378.588 270.489 379.861 269.15 381.122C265.663 384.4 261.442 386.468 257.068 388.245C255.233 388.99 254.132 388.652 253.073 387.407C252.273 386.468 252.144 385.405 252.933 384.485C253.62 383.682 254.421 382.91 255.311 382.344C260.102 379.294 263.554 375.027 266.206 370.154C268.685 365.603 271.844 362.018 277.046 360.61C277.296 360.544 277.526 360.358 277.725 360.183C277.92 360.016 278.061 359.791 278.248 359.566C277.987 358.6 277.214 358.93 276.651 359.058C274.265 359.597 271.965 360.342 270.232 362.208C270.142 362.305 270.044 362.402 269.943 362.488C269.099 363.19 268.256 363.9 267.069 363.178C266.018 362.538 265.823 361.522 266.495 360.001C266.983 358.891 267.561 357.848 268.56 357.076C269.287 356.513 269.943 355.857 270.532 355.33C270.396 354.139 269.615 354.282 268.998 354.247C267.857 354.181 266.92 353.731 266.131 352.94C265.179 351.982 265.104 350.764 265.921 349.673C266.584 348.789 267.467 348.153 268.478 347.765C270.107 347.14 271.743 346.445 273.438 346.085C276.741 345.382 279.287 343.528 281.833 341.286C280.943 340.129 279.795 340.49 278.834 340.467C276.78 340.413 274.82 340.122 273 339.097C270.946 337.941 270.579 336.273 272.094 334.516C272.528 334.015 273.051 333.546 273.629 333.228C276.093 331.87 278.42 330.26 281.228 329.542C282.872 329.123 284.66 328.696 285.547 326.997C285.504 325.437 284.379 324.898 283.282 324.386C280.658 323.156 278.592 321.271 276.823 319.032C276.491 318.613 276.144 318.186 276.331 317.426C278.026 315.905 280.587 316.34 282.544 315.187C284.387 314.105 286.129 312.929 287.585 311.362C286.667 310.113 285.605 310.175 284.543 310.431C283.501 310.687 282.501 311.129 281.45 311.339C280.463 311.537 279.572 311.261 279.127 310.159C279.174 308.584 280.314 307.556 281.208 306.404C284.414 302.272 287.683 298.187 290.838 294.02C292.123 292.325 292.697 290.268 293.579 287.848C291.744 288.433 290.975 289.547 290.061 290.443C289.003 291.479 287.979 292.565 286.585 293.151C285.379 293.655 284.188 294.424 282.876 293.814C282.228 293.132 282.438 292.445 282.638 291.832C283.555 289.035 284.418 286.199 285.933 283.65C290.943 275.208 294.833 266.23 298.827 257.299C299.417 255.984 299.604 254.425 301.28 253.261L301.283 253.249ZM299.112 321.368C297.328 323.125 295.129 324.595 294.551 326.915C293.919 329.453 292.579 331.187 290.561 332.634C289.92 333.092 289.381 333.72 288.897 334.345C288.694 334.605 288.76 335.07 288.721 335.338C289.498 336.49 291.197 336.064 291.798 337.751C291.716 339.683 290.451 341.417 289.202 343.128C287.862 344.96 286.421 346.717 285.063 348.537C284.239 349.642 283.797 350.876 284.11 352.288C284.293 353.122 285.215 353.619 285.957 353.215C286.425 352.963 286.894 352.676 287.277 352.319C289.924 349.867 292.517 347.361 295.383 345.15C296.32 344.428 297.179 343.509 296.914 342.151C296.723 341.902 296.598 341.646 296.398 341.495C293.15 339.051 292.579 337.332 293.977 333.658C294.399 332.549 295.059 331.521 295.637 330.473C296.477 328.956 297.394 327.482 298.175 325.934C298.878 324.537 299.546 323.094 299.112 321.36V321.368ZM297.851 370.069C294.473 371.139 292.162 373.044 290.705 376.202C289.315 379.213 287.636 382.119 285.23 384.524C284.781 384.974 284.453 385.599 284.231 386.2C284.039 386.704 284.219 387.263 284.649 387.655C285.074 388.043 285.586 388.148 286.129 387.93C286.5 387.783 286.867 387.612 287.214 387.418C293.114 384.187 295.871 378.557 298.437 372.804C298.808 371.97 299.011 370.996 297.851 370.072V370.069ZM289.346 321.515C290.197 321.616 290.939 321.282 291.638 320.883C295.106 318.912 297.761 316.111 299.835 312.759C300.237 312.107 300.444 311.269 300.518 310.497C300.663 308.984 299.097 308.033 297.753 308.794C297.183 309.116 296.633 309.562 296.231 310.074C294.075 312.821 291.779 315.432 289.174 317.771C288.565 318.318 288.12 318.966 288.011 319.816C287.909 320.607 288.569 321.476 289.346 321.511V321.515ZM300.214 295.878C300.214 294.982 299.948 294.536 299.401 294.315C298.679 294.02 298.042 294.268 297.652 294.881C295.988 297.481 294.016 299.843 292.072 302.233C291.677 302.718 291.49 303.42 291.349 304.053C291.236 304.565 291.338 305.135 291.81 305.512C292.283 305.892 292.833 305.857 293.306 305.57C297.105 303.265 298.796 299.51 300.214 295.878Z" fill="#006739"/>
<path d="M283.442 244.888C288.249 245.653 293.224 244.985 297.929 245.885C298.164 247.352 297.437 247.577 296.832 247.72C295.426 248.058 293.989 248.279 292.095 248.64C293.345 249.66 294.899 249.094 295.617 250.506C295.43 252.927 293.942 255.037 292.728 257.233C292.236 258.122 291.264 258.335 290.307 258.49C288.046 258.851 285.777 259.169 283.54 259.635C282.583 259.833 281.31 259.879 281.251 261.606C283.79 262.905 286.843 261.384 289.323 262.758C290.069 264.089 289.53 265.155 288.831 266.172C288.245 267.025 287.308 267.219 286.347 267.285C285.137 267.363 283.918 267.355 282.716 267.495C281.294 267.658 279.873 267.894 278.139 268.973C281.329 269.877 284.239 268.783 286.632 269.811C287.405 270.765 287.183 271.541 286.898 272.302C286.523 273.303 286.031 274.273 285.73 275.297C285.027 277.702 283.481 278.754 280.958 278.684C277.046 278.575 273.16 278.839 269.162 280.119C269.806 280.992 270.638 280.639 271.29 280.662C273.715 280.736 276.14 280.701 278.565 280.775C279.76 280.81 281.009 280.814 281.954 281.733C282.505 282.579 282.079 283.316 281.681 283.995C280.595 285.846 279.475 287.677 278.334 289.492C276.421 292.53 275.269 295.77 275.855 299.397C276.23 301.729 275.609 303.541 273.703 305.023C270.802 307.277 269.767 310.33 270.118 313.926C270.22 314.989 270.177 316.064 270.165 317.135C270.15 319.005 270.13 320.879 270.075 322.749C270.017 324.661 270.911 326.372 271.325 328.219C270.193 330.124 267.939 330.915 267.034 332.979C266.147 335.004 266.342 337.177 265.96 338.965C265.296 340.005 264.472 340.141 263.679 340.234C260.071 340.661 256.459 341.025 252.851 341.452C251.246 341.642 249.653 341.926 248.06 342.189C247.243 342.325 246.498 342.612 246.037 343.415C246.037 344.727 247.079 344.797 247.993 344.866C252.304 345.2 256.607 345.029 260.911 344.618C262.328 344.482 263.812 344.098 264.995 344.893C265.261 345.801 264.858 346.205 264.433 346.492C262.109 348.055 261.524 350.364 262.027 352.858C262.75 356.443 261.918 359.663 260.59 362.953C259.341 366.049 258.4 369.285 257.986 372.629C257.869 373.579 257.576 374.441 257.006 375.034C256.026 375.356 255.522 374.906 255.19 374.309C252.909 370.212 250.652 366.1 248.391 361.987C248.067 361.394 247.845 360.765 248.083 360.012C248.798 358.736 250.918 359.101 251.437 357.277C250.617 356.075 249.301 355.846 247.954 355.85C246.146 355.857 244.912 355.093 244.002 353.561C241.132 348.711 238.371 343.807 235.958 338.713C235.743 338.263 235.767 337.705 235.658 337.084C237.594 335.59 239.871 335.629 241.874 335.9C247.368 336.649 252.578 335.105 257.9 334.457C258.126 334.43 258.322 334.159 258.56 333.976C258.943 332.774 258.15 332.265 257.201 331.982C256.018 331.625 254.799 331.85 253.589 331.982C249.571 332.413 245.557 332.886 241.527 333.204C239.387 333.375 237.22 333.27 235.064 333.258C233.924 333.251 233.01 332.785 232.288 331.87C230.905 330.124 226.774 321.526 226.11 318.896C226.442 317.988 227.239 317.821 228.051 317.721C235.408 316.809 242.772 316.06 250.203 316.087C253.976 316.099 257.752 316.025 261.524 315.982C263.265 315.963 264.96 315.781 266.358 314.733C266.214 313.717 265.554 313.519 264.929 313.302C262.32 312.394 259.642 312.281 256.947 312.747C254.272 313.209 251.597 313.274 248.891 313.154C246.876 313.065 244.803 312.952 242.847 313.313C237.61 314.283 232.354 313.562 227.121 313.833C224.197 313.984 222.193 312.956 221.077 310.229C220.682 309.263 219.85 308.437 220.143 307.412C220.44 306.679 220.979 306.508 221.498 306.466C228.344 305.903 235.189 305.372 242.034 304.817C249.149 304.239 256.268 303.68 263.375 303.036C264.901 302.896 266.491 302.714 267.877 301.872C267.393 300.864 266.651 301.1 266.038 301.096C261.582 301.061 257.142 301.248 252.757 302.097C251.152 302.408 249.567 302.555 247.946 302.241C247.29 302.113 246.603 302.047 245.935 302.082C239.348 302.439 232.756 302.718 226.184 303.253C223.357 303.482 220.538 303.556 217.711 303.63C216.305 303.665 215.059 303.211 213.915 302.446C212.013 301.178 210.045 299.995 208.245 298.594C206.011 296.856 203.715 295.23 201.271 293.803C200.584 293.399 199.928 292.903 199.365 292.344C198.76 291.746 198.498 290.994 199.108 289.97C201.591 289.101 204.285 289.942 206.925 289.741C209.612 289.535 212.306 289.419 214.973 289.069C217.601 288.724 220.319 288.829 223.646 287.529C219.261 287.479 215.684 287.401 212.134 287.859C208.374 288.344 204.606 288.356 200.834 288.29C197.897 288.239 197.452 287.844 196.515 285.062C196.214 284.17 195.921 283.277 196.214 282.129C197.737 280.833 199.967 281.396 202.177 280.457C199.795 280.236 197.831 280.127 195.894 279.844C194.617 279.658 193.617 279.006 193.727 277.233C196.218 276.22 198.869 276.41 201.501 276.457C203.52 276.492 205.539 276.628 207.558 276.608C209.581 276.589 211.482 276.069 213.189 274.979C212.716 273.473 211.603 273.892 210.775 273.889C204.305 273.869 197.835 273.803 191.368 273.966C187.982 274.051 185.007 273.33 182.277 271.316C180.797 270.222 179.114 269.4 177.662 268.538C177.732 267.025 178.693 267.165 179.439 267.072C184.937 266.385 190.462 266.447 195.988 266.459C198.37 266.463 200.763 266.486 203.091 266.087C203.094 264.942 202.392 265.07 201.935 265.062C198.026 265 194.117 264.989 190.212 264.958C186.171 264.927 182.125 264.919 178.084 264.83C177.021 264.806 175.932 264.616 174.921 264.298C173.956 263.995 173.339 263.285 173.765 261.978C175.522 260.993 177.619 261.497 179.567 261.148C181.414 260.814 183.312 260.756 185.187 260.577C187.143 260.391 189.15 261.039 191.032 260.481C191.138 259.701 190.755 259.569 190.372 259.549C184.593 259.27 178.857 258.32 173.046 258.599C171.066 258.696 169.301 258.133 168.212 256.287C168.001 255.926 167.888 255.557 168.325 254.801C170.836 253.718 173.804 254.424 176.678 254.308C179.638 254.184 182.613 254.366 185.542 253.773C188.467 253.179 191.45 253.513 195.07 253.261C193.281 252.283 191.907 252.337 190.571 252.197C182.383 251.344 174.171 251.181 165.947 251.27C164.291 251.29 162.686 251.231 161.499 249.87C161.249 249.583 161.121 249.199 160.933 248.857C161.593 247.546 162.8 247.887 163.795 247.879C173.097 247.829 182.395 247.821 191.696 247.81C194.66 247.806 197.628 247.841 200.591 247.817C201.197 247.814 201.946 247.984 202.294 247.177C201.931 246.37 201.181 246.572 200.576 246.572C186.834 246.557 173.124 245.265 159.367 245.575C150.206 245.781 141.038 245.711 131.873 245.843C128.78 245.885 125.738 246.584 122.614 246.494C119.697 246.413 117.163 245.404 114.758 244.244C114.547 243.158 115.074 242.743 115.773 242.623C116.827 242.44 117.905 242.301 118.971 242.297C132.045 242.258 145.114 242.277 158.188 242.223C164.389 242.2 170.57 242.681 176.764 242.84C183.629 243.018 190.493 243.042 197.366 242.471C201.923 242.091 206.527 242.312 211.107 242.227C212.427 242.204 213.79 242.405 215.079 241.8C214.794 240.621 213.798 240.923 213.118 240.919C207.324 240.873 201.529 240.904 195.738 240.9C174.577 240.881 153.412 240.853 132.252 240.838C127.128 240.838 122.009 240.873 116.886 240.877C115.968 240.877 115 241.102 114.031 240.334C114.293 239.069 115.343 238.84 116.398 238.766C119.619 238.549 122.845 238.297 126.07 238.231C132.267 238.103 138.472 238.126 144.669 238.021C150.456 237.92 156.247 237.54 162.03 237.633C171.722 237.789 181.403 237.439 191.091 237.451C216.16 237.486 241.23 237.416 266.299 237.354C279.779 237.319 293.259 237.397 306.731 237.071C314.677 236.881 322.62 236.675 330.566 236.625C334.339 236.601 338.111 236.586 341.883 236.613C342.949 236.621 344.058 236.559 345.03 237.145C345.511 237.435 345.819 237.87 345.803 238.46C345.784 239.057 345.432 239.523 344.905 239.643C343.995 239.853 343.05 240.008 342.121 240.004C330.125 239.977 318.106 240.369 306.141 239.724C296.937 239.232 287.843 240.256 278.698 240.357C274.601 240.4 270.454 240.877 266.331 241.331C274.953 241.331 283.575 241.3 292.193 241.338C303.517 241.389 314.841 241.335 326.162 241.633C332.351 241.796 338.544 242.134 344.737 242.273C346.92 242.324 348.068 243.053 347.779 244.058C347.342 245.583 345.948 245.509 344.788 245.466C339.673 245.292 334.526 245.288 329.454 244.71C323.53 244.035 317.61 244.202 311.69 244.081C307.918 244.004 304.142 244.046 300.37 244.167C294.719 244.349 289.077 244.648 283.43 244.896L283.442 244.888ZM276.081 245.284C275.882 244.597 275.3 244.268 274.621 244.221C273.012 244.112 271.395 244.097 269.786 244.043C266.561 243.934 263.316 244.423 260.11 243.845C256.912 243.267 253.694 243.108 250.465 243.092C244.678 243.065 238.887 243.17 233.1 243.08C227.82 242.999 222.627 243.581 217.457 244.539C215.477 244.908 213.485 245.265 211.541 245.781C209.784 246.242 208.936 247.158 209.163 248.058C209.487 249.33 210.662 249.571 211.666 249.78C214.825 250.436 218 251.003 221.256 250.975C225.833 250.94 230.409 250.975 234.986 250.968C239.559 250.964 244.135 251.096 248.673 250.254C250.781 249.862 252.937 249.583 255.077 249.505C261.434 249.28 267.572 247.654 273.828 246.778C274.722 246.654 275.718 246.471 276.085 245.288L276.081 245.284ZM207.589 268.608C208.062 269.656 208.815 269.958 209.581 270.211C211.26 270.762 212.99 270.948 214.755 270.99C222.057 271.165 229.242 269.958 236.435 269.035C243.655 268.104 250.887 267.328 258.15 267.146C262.773 267.029 267.244 266.25 271.739 265.412C272.68 265.237 273.574 264.996 274.359 264.438C275.187 263.852 275.191 262.653 274.371 262.056C273.207 261.202 271.919 261.055 270.528 261.315C265.761 262.203 260.938 262.657 256.104 263.01C252.347 263.285 248.563 263.906 244.834 263.689C240.527 263.437 236.286 264.244 231.96 263.875C229.214 263.642 226.325 263.999 223.505 264.178C219.077 264.457 214.63 264.752 210.416 266.358C209.288 266.789 208.085 267.119 207.585 268.612L207.589 268.608ZM224.771 255.34C217.656 255.394 210.529 254.968 203.446 256.139C201.611 256.442 200.076 256.931 199.072 258.568C198.311 259.809 198.627 260.876 199.935 261.532C201.189 262.156 202.532 262.141 203.875 262.199C211.685 262.541 219.433 261.307 227.231 261.315C227.762 261.315 228.305 261.21 228.824 261.078C233.268 259.957 237.809 259.499 242.354 259.033C242.886 258.979 243.444 258.94 243.932 258.754C244.268 258.626 244.639 258.3 244.764 257.974C244.963 257.447 244.74 256.876 244.28 256.566C243.733 256.201 243.116 255.825 242.487 255.72C241.167 255.499 239.82 255.367 238.485 255.356C233.916 255.313 229.343 255.34 224.775 255.34H224.771ZM263.625 283.646C262.371 282.168 260.922 282.024 259.446 281.896C257.439 281.721 255.444 281.45 253.437 281.306C252.101 281.209 250.731 281.089 249.422 281.287C244.904 281.966 240.39 282.614 235.818 282.796C234.322 282.858 232.893 283.246 231.733 284.274C231.222 284.728 230.788 285.271 230.843 285.989C230.913 286.92 231.632 287.405 232.405 287.619C234.513 288.193 236.696 288.057 238.813 287.778C242.026 287.355 245.232 287.265 248.458 287.359C252.113 287.463 255.69 286.854 259.224 286.043C260.739 285.694 262.402 285.427 263.625 283.65V283.646ZM252.835 257.412C253.499 258.591 254.397 258.878 255.354 258.925C256.967 259.006 258.587 259.099 260.196 259.01C268.174 258.552 275.964 257.125 283.458 254.289C284.336 253.955 285.496 253.804 285.164 252.531C284.883 251.453 283.79 251.387 282.821 251.387C282.282 251.387 281.739 251.41 281.208 251.491C275.605 252.314 269.923 251.992 264.296 252.717C261.321 253.101 258.493 253.842 255.659 254.657C254.327 255.041 253.214 255.786 252.827 257.412H252.835ZM217.09 277.528C218.207 278.629 219.495 278.94 220.846 278.971C224.333 279.06 227.82 279.13 231.307 279.126C232.78 279.126 234.361 279.219 235.701 278.738C239.512 277.372 243.444 276.593 247.396 275.836C248.071 275.708 248.669 275.433 248.798 274.637C248.536 273.865 247.853 273.737 247.193 273.718C245.717 273.671 244.237 273.625 242.768 273.71C239.808 273.888 236.872 273.943 233.955 273.287C233.178 273.113 232.35 273.186 231.55 273.105C227.289 272.663 223.381 274.432 219.296 275.076C218.269 275.239 217.289 275.883 217.094 277.528H217.09ZM255.491 274.428C260.868 276.825 266.155 275.58 271.407 274.812C272.84 274.602 273.344 272.938 272.618 271.623C272.137 270.754 271.423 270.16 270.439 270.036C266.124 269.493 261.926 270.374 257.759 271.281C256.455 271.565 255.334 272.438 255.487 274.424L255.491 274.428ZM217.121 294.59C217.07 294.866 217.019 295.145 216.969 295.42C220.62 295.122 224.201 295.766 227.82 295.902C228.625 295.933 229.457 295.983 230.241 295.836C234.65 295.013 239.11 295.312 243.545 295.192C247.853 295.075 252.164 295.129 256.459 294.633C260.868 294.125 265.292 293.779 269.708 293.333C269.857 293.318 269.97 292.953 270.321 292.414C267.514 292.014 264.866 291.933 262.238 292.317C259.036 292.79 255.783 292.841 252.605 293.318C244.166 294.59 235.642 293.504 227.196 294.52C223.88 294.92 220.479 294.586 217.117 294.586L217.121 294.59ZM225.31 281.919C220.659 282.237 216.012 282.556 210.939 282.905C216.125 284.453 220.753 283.766 225.31 281.919ZM239.16 271.32C243.124 272.275 248.903 272.034 251.156 270.816C245.955 270.09 242.101 270.253 239.16 271.32ZM257.24 278.358C254.667 277.574 252.132 277.217 249.637 278.428C249.809 278.905 249.852 279.32 249.985 279.351C252.496 279.937 254.893 279.386 257.24 278.358ZM252.226 253.253C250.145 252.748 248.61 252.853 247.072 253.171C246.677 253.253 246.404 253.621 246.455 254.06C246.509 254.502 246.837 254.762 247.275 254.801C248.887 254.952 250.414 254.789 252.226 253.253ZM264.074 287.025C265.464 288.185 266.592 287.948 267.701 287.587C267.897 287.525 268.103 287.215 268.127 286.998C268.154 286.792 268.006 286.431 267.838 286.362C266.588 285.834 265.374 285.721 264.07 287.025H264.074ZM195.855 270.195C192.649 269.547 189.459 269.508 186.292 270.195H195.855ZM195.531 256.543C195.527 256.275 195.519 256.007 195.511 255.74C193.602 255.27 191.751 255.39 189.068 256.543H195.531ZM250.762 260.64C249.395 259.918 248.091 259.887 246.365 260.841C248.2 261.691 249.497 261.532 250.762 260.64ZM209.358 252.256C207.566 251.976 206.5 251.744 205.172 252.842C206.574 253.365 207.593 253.462 209.358 252.256ZM263.976 278.385C263.785 278.265 263.593 278.047 263.402 278.044C263.183 278.04 262.789 278.203 262.769 278.331C262.703 278.843 263.121 278.94 263.5 278.862C263.683 278.823 263.816 278.552 263.976 278.381V278.385ZM278.123 248.551C278.19 248.64 278.26 248.807 278.319 248.803C278.569 248.787 278.877 248.799 279.045 248.659C279.287 248.458 279.139 248.229 278.768 248.271C278.545 248.295 278.338 248.454 278.123 248.555V248.551ZM282.755 274.129H283.118C283.106 274.059 283.102 273.931 283.079 273.927C282.962 273.908 282.841 273.923 282.72 273.927C282.731 273.997 282.747 274.067 282.759 274.133L282.755 274.129Z" fill="#4177ED"/>
<path d="M194.621 223.349C196.48 222.813 197.476 224.357 199.174 224.031C201.064 222.658 203.173 221.122 205.196 219.651C204.879 218.503 204.18 218.484 203.505 218.484C202.525 218.484 201.529 218.767 200.904 219.442C198.46 222.084 195.972 220.509 193.52 219.605C192.391 219.19 192.165 218.034 191.923 216.971C190.724 211.714 190.154 206.433 190.892 201.041C191.681 195.283 193.399 189.906 196.089 184.692C202.33 172.603 212.053 164.673 224.826 160.429C238.266 155.967 251.254 157.24 263.832 163.928C272.079 168.312 278.104 174.729 282.97 182.442C283.618 183.474 284.173 184.537 284.356 185.751C284.508 186.76 284.258 187.606 283.271 188.125C281.857 188.269 281.17 187.093 280.225 186.411C279.194 185.662 278.104 185.255 276.827 185.522C276.273 185.639 275.843 185.91 275.808 186.574C275.996 187.516 276.902 187.675 277.585 188.021C278.823 188.641 279.846 189.487 280.619 190.605C281.685 192.149 282.978 192.7 284.77 191.838C285.223 191.621 285.785 191.617 286.461 191.481C288.37 194.151 288.433 197.208 288.964 200.102C287.375 201.696 285.125 201.786 283.72 203.372C282.411 204.851 281.427 206.701 279.639 207.578C277.94 207.578 277.187 206.302 276.148 205.522C274.199 204.059 272.052 203.547 269.674 204.02C268.717 204.21 267.873 204.594 267.706 205.758C268.143 206.957 269.369 207.019 270.318 207.341C273.028 208.261 275.496 209.487 277.64 211.446C279.487 213.134 280.326 213.04 282.119 211.291C283.071 210.36 283.809 209.219 284.665 208.191C286 206.585 286.195 206.523 288.835 206.693C289.803 207.815 289.655 209.2 289.585 210.507C289.261 216.73 287.589 222.623 285.098 228.315C284.192 230.379 282.728 231.209 280.408 231.391C274.082 231.892 267.76 231.818 261.43 231.845C253.214 231.88 245.01 232.074 236.798 232.512C228.332 232.966 219.827 232.702 211.342 232.726C208.109 232.733 204.872 232.567 201.642 232.668C198.671 232.761 196.745 231.601 195.863 228.749C195.328 227.015 194.035 225.448 194.621 223.337V223.349ZM266.597 192.901C266.589 190.954 265.585 190.799 264.664 190.756C262.844 190.671 261.262 191.373 259.868 192.506C258.927 193.27 257.971 193.32 256.905 192.692C256.221 192.288 255.46 192.001 254.71 191.718C253.07 191.097 251.535 191.412 250.133 192.37C249.552 192.769 249.255 193.359 249.7 194.244C251.071 195.105 252.765 194.139 254.292 194.686C255.874 195.252 256.67 196.843 258.181 197.452C258.416 197.545 258.705 197.51 259.228 197.557C261.555 196.071 262.719 192.475 266.597 192.905V192.901Z" fill="#FF6A00"/>
<path d="M230.105 348.665C228.211 347.951 227.832 346.411 227.11 345.173C222.908 337.996 219.246 330.547 215.778 323.001C214.829 320.933 213.747 318.923 212.681 316.91C212.127 315.858 211.654 314.722 210.424 313.973C207.753 315.758 205.641 318.105 203.755 320.7C202.974 321.779 202.111 322.811 201.22 323.804C200.853 324.211 200.283 324.289 199.733 324.064C199.182 323.839 198.897 323.369 198.792 322.842C198.569 321.732 199.092 320.755 199.448 319.746C199.924 318.392 201.029 317.209 200.658 315.626C197.249 313.798 196.3 313.954 194.196 316.654C191.689 319.866 190.177 323.602 188.584 327.284C187.682 329.371 186.932 331.528 186.148 333.666C185.663 334.985 184.843 335.974 183.566 336.611C182.114 337.336 180.716 337.34 179.372 336.389C178.014 335.427 177.518 334.05 177.928 332.502C178.861 329.003 180.032 325.569 182.079 322.531C183.726 320.087 185.359 317.612 187.245 315.354C189.974 312.095 189.033 309.473 184.957 308.088C183.559 307.61 182.129 307.191 180.688 306.877C178.767 306.454 177.205 307.013 176.366 308.91C175.21 311.509 173.164 313.531 171.813 316.002C171.149 317.212 170.18 318.113 168.911 318.694C167.544 319.319 166.299 319.117 165.12 318.241C163.858 317.306 163.671 316.037 164.057 314.648C164.565 312.809 165.651 311.265 166.771 309.752C168.298 307.696 169.532 305.477 170.477 303.098C170.684 302.582 170.743 302.031 170.329 301.597C169.782 301.023 169.087 301.131 168.462 301.415C166.928 302.113 165.967 303.413 165.084 304.774C164.136 306.237 163.23 307.723 162.277 309.182C161.761 309.973 161.129 310.675 160.274 311.125C159.254 311.661 158.212 311.828 157.259 311.028C156.396 310.307 155.783 309.368 156.087 308.219C156.357 307.195 156.763 306.175 157.302 305.263C159.243 301.993 160.395 298.447 161.273 294.784C161.523 293.745 161.707 292.623 162.246 291.735C164.596 287.848 163.694 283.863 162.281 280.131C160.391 275.138 157.763 270.424 156.201 265.28C155.931 264.395 155.474 263.546 154.994 262.746C153.971 261.032 152.647 260.609 150.925 261.606C148.473 263.03 146.278 264.806 144.357 266.898C141.635 269.858 138.453 272.348 135.883 275.479C134.325 277.376 132.053 278.412 129.526 278.618C128.695 278.688 127.898 278.467 127.519 277.594C127.148 276.736 127.433 275.968 128.136 275.464C131.779 272.837 133.857 268.736 137.32 265.916C138.629 264.853 139.414 263.154 140.444 261.753C142.264 259.278 144.599 257.233 146.196 254.537C147.383 252.535 149.785 252.062 151.909 252.089C155.158 252.132 158.157 252.923 160.695 255.425C164.202 258.878 167.252 262.483 168.579 267.32C169.29 269.908 171.125 271.724 173.304 273.132C175.553 274.591 177.811 276.061 180.364 277.012C182.387 277.764 184.297 278.761 186.054 280.026C189.178 282.276 191.689 284.973 192.786 288.786C193.192 290.195 193.766 291.564 194.363 292.91C195.359 295.153 196.788 297.062 198.874 298.458C200.549 299.58 202.087 300.918 203.825 301.923C208.737 304.77 212.353 308.86 215.305 313.566C218.871 319.249 222.014 325.166 225.056 331.14C226.634 334.24 228.324 337.29 229.902 340.389C230.566 341.697 231.101 343.078 231.648 344.444C232.347 346.201 231.765 347.54 230.097 348.672L230.105 348.665Z" fill="#AEFFE4"/>
<path d="M349.517 260.046C349.255 258.432 349.759 256.989 350.747 255.902C353.301 253.09 354.91 249.668 357.108 246.63C359.627 243.15 359.404 239.433 356.616 236.015C356.366 235.709 356.163 235.364 355.855 234.914C355.921 233.292 356.792 231.957 357.87 230.755C358.943 229.556 360.095 228.427 361.232 227.282C362.274 226.235 363.356 225.226 364.395 224.179C366.785 221.769 368.136 219.089 367.429 215.504C366.785 212.253 368.085 209.51 370.404 207.291C373.38 207.1 375.04 208.33 376.125 210.914C377.73 214.736 379.483 218.514 382.123 221.8C383.255 223.209 383.607 224.927 383.798 226.673C383.857 227.224 383.693 227.725 382.927 228.213C381.479 228.101 380.655 226.793 379.722 225.742C378.081 223.888 376.18 222.526 374.016 222.006C373.111 222.173 372.7 222.569 372.525 223.069C370.975 227.472 368.663 231.674 368.257 236.396C367.847 241.179 365.555 245.001 362.716 248.64C361.81 249.8 360.915 250.979 360.134 252.224C359.342 253.481 358.858 254.886 358.842 256.395C358.838 256.946 359.049 257.477 359.623 257.683C360.189 257.885 360.724 257.637 361.052 257.206C361.946 256.034 362.762 254.804 363.637 253.617C364.457 252.504 365.453 251.646 366.925 251.522C369.026 251.348 370.299 252.647 369.924 254.7C369.756 255.611 369.436 256.508 369.1 257.377C368.323 259.371 367.499 261.349 366.675 263.328C366.054 264.822 365.234 266.164 364.02 267.305C361.946 269.256 360.638 271.793 359.076 274.125C358.401 275.134 358.022 276.267 358.268 277.512C359.127 277.935 359.494 277.233 359.943 276.829C361.736 275.207 363.477 273.531 365.289 271.929C366.14 271.176 367.163 270.82 368.241 271.529C369.245 272.193 369.584 273.178 369.362 274.327C369.053 275.929 368.311 277.326 367.402 278.687C364.266 283.362 361.204 288.088 358.108 292.79C357.151 294.241 356.39 295.746 356.261 297.411C357.096 297.919 357.514 297.519 357.827 297.123C358.826 295.866 359.783 294.571 360.736 293.283C361.212 292.639 361.579 291.901 362.122 291.319C363.305 290.051 365.008 289.671 366.129 290.319C367.128 290.897 367.444 292.192 366.859 293.942C366.093 296.243 364.883 298.338 363.555 300.359C360.463 305.073 357.647 309.93 355.308 315.067C353.812 318.353 351.645 321.247 349.396 324.102C349.904 325.224 350.7 324.758 351.356 324.366C352.676 323.579 353.379 322.256 354.117 320.971C355.562 318.465 357.6 316.576 360.17 315.234C361.536 314.516 362.969 314.287 364.473 314.578C365.804 314.834 366.574 315.738 366.624 317.107C366.687 318.76 366.293 320.324 365.312 321.658C361.095 327.392 356.651 332.932 351.329 337.72C349.134 339.695 346.815 341.565 344.819 343.722C342.359 346.379 339.517 347.213 336.069 346.402C335.807 346.34 335.534 346.325 335.272 346.274C332.164 345.693 331.508 344.145 333.245 341.534C334.1 340.249 335.401 339.543 336.709 338.845C340.114 337.025 342.691 334.387 344.64 331.14C344.007 329.414 342.722 329.119 341.332 329.569C339.548 330.147 337.845 330.977 336.104 331.695C334.772 332.246 333.511 333.115 332.121 332.715C331.25 331.838 331.469 331.039 331.757 330.29C333.027 327.02 334.663 323.955 337.092 321.371C340.13 318.143 343.246 314.997 346.69 312.184C347.623 311.424 348.525 310.597 349.31 309.69C350.388 308.444 350.485 307.385 349.814 306.407C348.814 304.949 347.186 304.378 345.62 305.077C344.273 305.678 343.011 306.473 341.68 307.11C340.747 307.552 339.817 308.27 338.505 307.498C337.931 305.907 338.767 304.475 339.497 303.094C340.817 300.588 342.726 298.497 344.589 296.379C345.917 294.869 347.201 293.317 348.576 291.847C350.259 290.039 351.317 287.898 352.208 285.644C353.238 283.033 351.938 280.848 349.134 280.449C348.205 280.317 347.319 281.027 346.381 280.561C345.796 279.84 346.315 279.289 346.713 278.792C347.885 277.326 349.134 275.937 350.564 274.691C351.977 273.462 353.258 272.077 354.535 270.699C355.452 269.71 356.116 268.546 356.589 267.27C358.135 263.118 356.179 260.376 351.719 260.504C351.059 260.523 350.396 260.81 349.529 260.034L349.517 260.046Z" fill="#006739"/>
<path d="M409.512 264.539C408.86 263.759 409.364 263.002 409.617 262.284C410.336 260.236 411.664 258.529 412.874 256.76C415.752 252.554 418.646 248.357 421.488 244.128C422.156 243.135 422.789 242.075 423.195 240.958C423.87 239.1 422.875 237.428 420.907 237.032C418.86 236.621 416.881 236.691 415.283 238.347C412.581 241.144 409.863 243.93 407.13 246.704C406.287 247.561 405.404 248.384 404.49 249.164C404.217 249.396 403.768 249.427 403.436 249.54C402.632 248.888 403.116 248.248 403.37 247.705C405.771 242.588 408.575 237.73 412.855 233.886C417.474 229.734 421.168 224.768 425.124 220.039C425.971 219.027 426.635 217.812 427.147 216.59C427.803 215.027 427.049 213.607 425.499 213.036C423.265 212.218 420.918 212.796 419.282 214.553C418.095 215.83 416.92 217.114 415.682 218.344C415.229 218.794 414.67 219.244 413.901 218.968C413.339 218.309 413.761 217.692 414.053 217.129C418.743 208.09 422.418 198.565 427.479 189.704C429.552 186.073 430.419 181.953 431.957 178.096C432.688 176.265 431.977 175.09 430.048 174.345C429.185 174.011 428.166 174.077 427.447 173.363C427.244 170.461 428.189 168.122 431.333 163.73C432.164 163.637 432.555 164.176 432.766 164.832C433.43 166.869 434.039 168.917 434.679 170.962C435.761 174.407 436.706 177.903 437.971 181.282C440.166 187.136 439.482 192.901 437.545 198.569C436.616 201.289 436.76 203.776 437.6 206.402C438.073 207.88 439.346 208.757 440.021 209.979C440.31 211.046 439.814 211.865 439.412 212.711C437.682 216.338 435.94 219.958 433.812 223.383C432.965 224.745 432.161 226.161 431.559 227.639C430.29 230.762 431.071 233.645 433.676 235.876C435.585 235.224 436.218 233.265 437.506 231.969C438.701 230.762 439.474 229.121 440.904 228.419C442.059 228.702 442.231 229.354 442.126 230.041C441.88 231.643 441.286 233.133 440.466 234.537C436.347 241.61 431.602 248.256 426.471 254.638C425.522 255.817 424.437 256.686 422.914 257.113C419.235 258.149 415.955 259.867 413.265 262.688C411.874 264.147 411.73 264.011 409.512 264.535V264.539Z" fill="#006739"/>
<path d="M217.281 112.523C217.305 112.744 217.324 113.148 217.402 113.54C217.758 115.344 216.727 116.24 215.266 116.942C212.919 118.063 210.42 118.738 207.866 118.8C200.564 118.979 193.453 120.554 186.249 121.446C181.313 122.055 176.326 122.373 171.352 122.505C168.552 122.579 165.701 122.199 162.936 121.698C158.493 120.891 156.607 118.125 155.798 113.679C155.076 109.703 156.372 107.631 159.875 105.807C163.14 104.104 166.392 102.665 169.993 101.986C170.52 101.885 171.063 101.718 171.586 101.753C176.006 102.052 180.43 102.331 184.839 102.758C185.866 102.859 186.897 103.398 187.819 103.922C190.001 105.167 192.313 105.582 194.804 105.474C198.03 105.33 201.275 105.59 204.485 105.035C204.75 104.989 205.043 104.919 205.285 104.985C208.382 105.819 211.545 106.261 214.704 106.781C216.352 107.053 217.375 108.535 217.433 110.358C217.457 111.022 217.344 111.689 217.277 112.531L217.281 112.523Z" fill="#DD9198"/>
<path d="M222.893 382.076C224.447 381.665 224.541 380.454 224.974 379.539C225.946 377.482 226.825 375.38 227.762 373.308C227.989 372.811 228.352 372.392 228.961 372.381C229.808 372.369 230.152 373.025 230.261 373.665C230.792 376.695 231.288 379.733 231.359 382.817C231.386 384.02 231.335 385.23 231.456 386.425C231.601 387.853 231.741 389.331 232.882 390.305C234.709 390.243 234.369 388.016 235.716 387.748C237.317 388.291 236.779 390.32 238.415 390.921C239.692 390.099 238.899 388.082 240.238 387.24C241.414 387.24 241.468 388.268 241.5 388.931C241.738 393.579 243.015 398.157 242.175 402.89C241.738 405.369 241.613 407.949 242.265 410.471C242.398 410.983 242.46 411.53 242.449 412.058C242.406 414.176 240.609 415.406 238.883 414.254C235.33 411.875 231.706 409.52 230.152 405.156C228.606 400.818 225.997 397.245 222.604 393.994C218.757 390.312 214.915 386.596 211.549 382.367C207.91 377.797 203.942 373.304 198.62 370.418C197.077 369.58 196.312 368.396 195.953 366.674C195.297 363.524 194.727 360.393 194.625 357.157C194.496 353.06 196.187 349.634 198.28 346.325C198.456 346.046 198.952 345.968 199.26 345.817C200.685 346.325 200.916 347.594 201.291 348.703C202.076 351.012 202.228 353.417 202.185 355.838C202.165 356.905 202.099 357.995 202.611 358.984C202.931 359.605 203.458 360.02 204.192 360.071C204.934 360.121 205.543 359.815 205.836 359.151C206.211 358.298 206.469 357.398 206.777 356.517C207.039 355.768 207.215 354.95 208.214 354.794C209.237 355.26 209.311 356.23 209.464 357.145C209.776 358.992 210.049 360.843 210.393 362.686C210.518 363.368 210.905 363.939 211.693 364.012C212.271 364.067 212.693 363.776 213.041 363.31C213.583 362.589 213.677 361.498 214.728 361.196C215.782 361.397 215.852 362.236 215.969 363.027C216.411 366.072 216.743 369.126 216.739 372.214C216.739 374.068 216.739 375.985 218.293 377.568C219.121 377.665 220.034 377.77 220.905 377.87C222.088 379.011 221.85 380.714 222.897 382.08L222.893 382.076Z" fill="#006739"/>
<path d="M358.174 369.882C360.029 367.116 361.864 364.334 363.747 361.584C365.27 359.364 366.601 357.056 367.601 354.546C368.233 352.951 368.815 351.271 370.518 350.077C372.654 350.368 374.208 351.97 376.024 353.01C376.625 353.355 376.727 354.104 376.805 354.786C376.961 356.094 376.609 357.479 377.355 358.685C378.3 359.31 378.863 358.767 379.394 358.096C381.307 355.679 383.177 353.227 385.149 350.86C386.321 349.456 387.227 349.378 388.629 350.402C390.636 351.869 392.1 353.642 392.553 356.234C393.139 359.57 393.178 362.899 392.842 366.231C392.467 369.956 391.885 373.661 391.417 377.377C391.073 380.132 390.019 382.405 387.82 384.307C383.662 387.907 379.562 391.585 375.805 395.616C374.837 396.655 373.915 397.947 372.13 397.87C370.764 396.88 370.967 395.604 371.599 394.328C372.252 393.009 373.068 391.767 373.712 390.444C376.516 384.656 379.296 378.856 382.045 373.04C382.557 371.958 382.963 370.809 383.302 369.657C383.603 368.641 383.205 367.799 382.244 367.314C381.229 366.798 379.972 367.062 379.37 367.989C378.863 368.769 378.531 369.661 378.097 370.487C376.481 373.572 374.907 376.683 373.212 379.725C372.568 380.881 371.677 381.917 370.811 382.941C370.104 383.779 369.147 384.431 368.038 384.435C364.965 384.45 362.481 383.24 364.036 379.057C365.137 376.089 366.504 373.133 368.679 370.662C370.272 368.846 371.728 366.902 372.72 364.679C373.337 363.298 372.603 361.968 371.1 361.638C370.264 361.452 369.471 361.587 368.917 362.309C368.511 362.837 368.144 363.403 367.816 363.985C365.777 367.632 362.298 369.172 358.186 369.882H358.174Z" fill="#006739"/>
<path d="M392.139 329.867C392.963 330.321 393.822 330.721 394.603 331.237C396.509 332.502 398.516 332.936 400.734 332.222C402.71 331.586 404.463 332.23 406.068 333.313C407.47 334.259 407.919 335.66 407.236 337.165C406.744 338.247 406.088 339.287 405.346 340.222C404.452 341.355 403.171 341.797 401.738 341.475C400.562 341.211 399.352 340.955 398.262 340.467C393.369 338.267 388.508 335.997 383.65 333.72C380.799 332.385 379.105 330.438 378.765 327.016C378.093 320.246 376.895 313.53 375.977 306.784C375.598 304.006 375.36 301.213 375.102 298.419C375.016 297.504 374.868 296.545 375.442 295.703C376.461 294.924 377.34 295.568 377.957 296.165C380.128 298.268 382.81 299.49 385.481 300.751C387.188 301.554 388.769 302.52 390.273 303.684C392.178 305.158 394.271 306.388 396.236 307.788C397.665 308.805 398.04 310.244 397.497 312.056C397.028 313.616 396.122 314.217 394.107 314.236C393.303 314.244 392.495 314.089 391.694 314.136C390.433 314.205 389.851 314.954 389.832 316.281C389.804 318.046 390.554 319.404 392.042 320.3C393.651 321.266 395.326 322.128 396.974 323.028C399.66 324.502 400.207 327.384 398.215 329.693C397.552 330.461 396.704 330.744 395.681 330.543C394.494 330.306 393.299 330.12 392.112 329.91C391.263 328.932 390.413 328.471 389.562 328.525C389.984 329.836 391.183 329.631 392.143 329.875L392.139 329.867Z" fill="#006739"/>
<path d="M198.964 427.921C198.456 427.386 197.933 427.068 197.765 426.622C196.5 423.231 195.23 419.829 196.32 416.108C196.468 415.6 196.582 415.064 196.605 414.537C196.644 413.668 196.246 412.938 195.469 412.562C194.57 412.131 193.821 412.62 193.461 413.381C191.669 417.14 188.358 419.142 184.812 420.88C182.754 421.889 181.692 423.549 182.079 425.76C182.45 427.894 181.368 429.027 179.841 430.059C178.951 430.664 178.068 431.277 177.19 431.902C176.405 432.457 175.737 433.12 175.526 434.094C175.331 434.99 174.862 435.96 175.632 436.767C176.456 437.632 177.358 437.077 178.228 436.72C179.052 436.383 179.763 435.599 180.813 435.929C180.458 438.051 179.716 438.951 178.115 439.192C177.721 439.25 177.299 439.277 176.909 439.203C172.281 438.315 168.017 436.429 163.675 434.847C163.772 433.108 164.811 432.666 165.776 432.29C167.783 431.51 169.837 430.854 171.859 430.117C173.234 429.617 174.663 429.159 175.421 427.565C173.25 424.329 169.977 426.536 167.201 426.009C167.443 424.131 168.724 423.316 169.915 422.525C173.39 420.22 176.897 417.966 180.423 415.736C181.794 414.87 183.18 414.048 184.168 412.729C184.808 411.871 184.301 410.704 183.211 410.676C182.29 410.653 181.364 410.839 180.493 410.925C179.677 410.04 180.216 409.346 180.704 408.741C182.563 406.444 184.535 404.24 186.331 401.897C188.369 399.235 190.275 396.473 192.22 393.742C192.684 393.086 193.067 392.372 193.524 391.709C194.457 390.355 195.789 389.827 197.386 390.08C199.19 390.367 200.248 391.527 200.592 393.261C200.955 395.096 201.232 396.935 200.998 398.84C200.252 404.915 200.99 410.824 203.22 416.539C203.267 416.663 203.31 416.791 203.357 416.919C205.012 421.699 205.719 423.956 198.964 427.921Z" fill="#006739"/>
<path d="M104.652 175.734C103.91 173.445 102.047 172.545 100.27 171.726C99.337 171.296 99.3253 169.969 100.259 169.546C100.266 169.546 100.27 169.542 100.278 169.538C104.944 167.447 109.689 165.682 114.812 164.925C117.776 164.487 120.701 164.731 123.641 164.693C126.461 164.654 129.284 164.941 132.103 164.891C134.969 164.836 137.726 165.286 140.44 166.074C143.752 167.036 147.137 167.754 150.554 168.239C152.752 168.549 154.724 169.585 156.829 170.202C157.204 170.31 157.536 170.582 157.868 170.811C160.226 172.448 160.183 174.954 157.571 176.149C154.642 177.488 151.53 178.481 148.258 178.57C142.354 178.733 136.445 178.799 130.541 178.896C129.6 178.912 128.651 178.803 127.718 178.869C122.833 179.214 118.038 178.648 113.332 177.406C110.974 176.785 108.588 176.553 105.811 176.568C105.284 176.568 104.816 176.231 104.656 175.73L104.652 175.734Z" fill="#DD9198"/>
<path d="M433.535 309.112C428.353 310.97 423.581 312.584 419.481 315.308C418.454 314.388 418.794 313.76 419.181 313.22C420.914 310.838 422.636 308.445 424.448 306.121C426.682 303.258 428.685 300.259 430.372 297.05C430.743 296.344 431.075 295.599 431.298 294.839C431.575 293.896 430.501 292.93 429.576 293.314C428.849 293.617 428.158 294.055 427.533 294.54C425.19 296.34 422.902 298.202 420.551 299.995C419.731 300.619 418.942 301.504 417.49 300.957C416.693 298.532 416.752 296.123 418.322 293.869C420.692 290.459 423.015 287.014 425.503 283.689C432.52 274.312 438.225 264.186 443.27 253.66C443.657 252.853 443.758 251.814 444.863 251.484C445.746 251.682 445.703 252.454 445.703 253.067C445.691 259.623 445.137 266.141 443.942 272.589C443.43 275.344 442.755 278.071 442.204 280.822C441.103 286.342 439.104 291.607 437.616 297.015C436.8 299.972 436.272 303.009 435.011 305.837C434.523 306.928 434.031 308.018 433.535 309.116V309.112ZM433.43 285.861C433.683 285.795 434 285.803 434.187 285.652C437.538 282.959 439.447 279.316 440.904 275.406C441.154 274.735 440.111 273.881 439.334 273.966C438.623 274.044 438.034 274.354 437.635 274.925C435.952 277.342 434.269 279.762 432.637 282.214C432.098 283.021 431.969 283.964 432.274 284.911C432.45 285.454 432.813 285.822 433.43 285.857V285.861Z" fill="#006739"/>
<path d="M222.221 422.315C220.795 425.345 219.339 428.337 216.852 430.726C215.442 432.08 214.938 433.927 214.821 435.848C214.731 437.31 215.524 438.175 216.969 438.129C218.031 438.094 219.089 437.88 220.085 437.756C220.835 438.311 220.682 438.932 220.44 439.584C219.882 441.089 219.335 442.594 218.788 444.103C218.394 445.19 217.683 446.004 216.504 446.125C213.825 446.392 211.201 446.21 208.554 444.802C208.975 441.574 212.291 438.819 210.065 435.238C208.257 434.897 206.945 435.758 205.699 436.825C204.063 438.226 202.337 439.502 200.33 440.352C199.814 440.569 199.264 440.631 198.815 440.255C198.202 439.743 198.327 439.048 198.534 438.4C198.834 437.461 199.646 436.926 200.31 436.267C202.403 434.187 204.571 432.166 206.515 429.954C209.565 426.49 211.627 422.44 213.154 418.102C214.661 413.819 217.898 410.684 220.721 407.313C222.162 405.594 223.974 405.711 225.786 407.03C226.911 407.848 227.703 408.904 228.117 410.223C229.179 413.61 231.421 416.027 234.502 417.664C237.817 419.425 239.867 422.486 242.409 425.035C243.053 425.679 243.444 426.599 243.854 427.437C244.662 429.093 244.467 430.203 243.268 431.448C241.952 432.814 240.593 433.093 238.891 432.22C238.188 431.859 237.477 431.39 236.974 430.8C233.811 427.099 229.851 424.294 226.133 421.217C224.228 419.642 223.654 419.848 222.272 422.269L222.213 422.323L222.221 422.315Z" fill="#006739"/>
<path d="M298.082 156.328C298.554 155.901 298.796 155.509 299.132 155.397C304.474 153.597 309.742 151.463 315.513 151.432C322.511 151.397 329.532 151.044 336.498 151.51C341.469 151.843 346.432 152.192 351.395 152.018C357.307 151.808 363.219 152.154 369.135 151.801C372.747 151.587 376.32 152.646 379.827 153.585C380.342 153.725 380.788 154.066 380.854 154.687C380.92 155.312 380.549 155.735 380.069 155.963C379.226 156.363 378.343 156.689 377.457 156.976C372.537 158.578 367.452 158.974 362.317 158.958C358.28 158.947 354.242 158.966 350.2 158.97C347.643 158.97 345.116 159.152 342.566 159.49C338.97 159.967 335.311 159.925 331.695 159.412C326.732 158.706 321.788 158.691 316.825 159.432C314.303 159.808 311.76 160.107 309.218 160.312C306.497 160.53 303.853 159.967 301.319 159.021C300.073 158.555 298.859 157.923 298.082 156.324V156.328Z" fill="#DD9198"/>
<path d="M346.073 355.136C343.07 355.236 341.223 352.536 342.528 350.205C343.168 349.06 344.101 348.024 345.077 347.132C350.24 342.438 355.164 337.522 359.686 332.207C361.701 329.837 364.477 328.355 366.949 326.527C368.312 325.522 369.733 325.724 371.076 326.644C371.631 327.02 372.162 327.431 372.673 327.866C374.071 329.045 374.321 330.461 373.747 332.195C372.588 335.706 370.526 338.694 368.077 341.347C362.435 347.462 355.468 351.683 347.741 354.709C347.124 354.949 346.444 355.046 346.069 355.139L346.073 355.136Z" fill="#006739"/>
<path d="M111.329 249.331C116.566 249.676 116.472 250.564 117.327 254.785C117.702 256.64 118.018 258.405 119.963 259.441C120.951 259.965 121.236 261.179 121.236 262.254C121.236 264.795 122.22 266.863 123.86 268.775C124.95 270.044 124.84 270.936 123.973 272.003C122.923 273.303 121.732 273.516 120.525 272.341C118.616 270.475 116.714 268.57 115.062 266.482C113.149 264.061 111.115 261.78 108.979 259.561C107.034 257.54 105.203 255.402 103.434 253.226C102.688 252.306 102.168 251.189 101.649 250.11C101.29 249.365 101.313 248.566 101.833 247.833C103.473 245.509 104.671 243.014 104.996 240.147C105.074 239.445 105.601 238.956 106.335 238.852C107.053 238.747 107.741 239.007 108.049 239.639C108.569 240.714 108.959 241.847 109.361 242.976C110.076 244.978 110.189 247.162 111.333 249.331H111.329Z" fill="#006739"/>
<path d="M381.139 292.848C380.565 292.984 379.964 292.728 379.706 292.2C377.617 287.937 377.96 283.646 378.87 279.363C379.304 277.314 380.725 276.418 382.775 276.783C386.469 277.442 390.132 278.3 393.666 279.603C394.158 279.785 394.63 280.08 395.048 280.402C395.954 281.108 396.384 282.043 396.224 283.207C396.056 284.425 395.283 285.093 394.146 285.357C393.615 285.481 393.08 285.582 392.553 285.675C391.444 285.873 391.155 287.312 392.092 287.929C392.1 287.933 392.104 287.937 392.112 287.94C393.229 288.674 394.427 289.279 395.575 289.969C396.837 290.73 397.395 291.87 397.344 293.329C397.247 296.126 395.615 297.488 392.85 296.984C392.073 296.844 391.315 296.518 390.585 296.188C389.117 295.529 387.656 294.854 386.235 294.105C384.603 293.244 382.986 292.406 381.143 292.84L381.139 292.848Z" fill="#006739"/>
<path d="M343.679 257.171C344.05 258.048 343.976 258.742 343.703 259.34C342.52 261.92 343.375 264.923 342.258 267.437C340.102 268.077 338.216 267.666 336.436 267.192C332.464 266.141 328.517 265.768 324.479 266.711C323.698 266.894 322.882 266.959 322.077 267.025C321.242 267.091 320.387 266.94 319.891 266.238C317.899 263.425 315.759 260.667 315.458 257.012C316.849 255.883 318.379 255.899 319.809 256.081C326.658 256.966 333.534 256.446 340.399 256.597C341.457 256.62 342.563 256.434 343.679 257.171ZM320.457 261.229C322.011 262.16 323.741 262.172 325.455 262.195C327.064 262.215 328.673 262.18 330.278 262.157C332.48 262.128 334.106 261.792 335.155 261.148C330.106 260.449 325.303 261.121 320.453 261.229H320.457Z" fill="#4177ED"/>
<path d="M337.115 277.613C338.412 278.723 340.013 277.753 341.075 278.742C341.485 279.51 341.098 280.046 340.528 280.441C339.981 280.821 339.396 281.256 338.767 281.392C335.491 282.09 332.207 282.816 328.813 282.598C328.126 282.556 327.493 282.35 327.04 281.791C326.404 281.012 326.201 280.142 326.502 279.161C327.525 277.722 329.297 278.703 330.563 277.958C329.918 277.004 328.895 277.14 328.009 277.085C325.701 276.95 324.276 275.817 323.6 273.644C323.288 272.635 322.694 271.7 322.878 270.606C323.253 269.671 324.08 269.559 324.881 269.508C326.22 269.427 327.568 269.4 328.911 269.384C331.73 269.357 334.538 269.435 337.338 268.81C339.017 268.434 340.801 268.321 342.5 269.078C343.625 270.3 344.163 271.84 344.57 273.369C345.148 275.537 343.781 277.05 341.555 276.876C340.622 276.802 339.7 276.55 338.763 276.48C338.083 276.43 337.416 276.593 337.111 277.613H337.115Z" fill="#4177ED"/>
<path d="M426.534 148.468C428.674 151.036 429.291 153.907 429.959 156.735C430.099 157.329 429.939 158.089 429.674 158.66C428.334 161.562 427.018 164.483 425.484 167.284C424.66 168.782 423.496 170.128 422.324 171.396C421.239 172.576 419.583 172.324 419.04 170.888C417.998 168.134 417.147 165.298 418.314 162.349C419.689 158.881 421.079 155.42 422.539 151.987C423.234 150.353 424.351 149.065 426.534 148.468Z" fill="#006739"/>
<path d="M420.665 181.74C423.648 181.74 425.23 183.431 424.956 186.302C424.788 188.052 424 189.615 423.277 191.19C422.5 192.882 421.692 194.562 420.946 196.269C419.755 199.008 417.896 201.246 415.737 203.268C414.999 203.958 414.151 204.315 413.179 203.842C412.265 203.4 411.797 202.565 411.719 201.596C411.664 200.948 411.742 200.261 411.898 199.629C412.859 195.757 413.612 191.823 415.038 188.075C415.655 186.453 416.322 184.859 417.346 183.435C418.185 182.267 419.278 181.615 420.669 181.74H420.665Z" fill="#006739"/>
<path d="M374.138 247.166C374.192 245.462 374.181 244.256 374.809 243.158C375.493 241.959 376.77 241.602 377.879 242.335C377.992 242.409 378.109 242.479 378.199 242.576C380.932 245.509 383.818 248.326 386.321 251.445C387.282 252.644 388.156 253.652 389.562 254.227C390.698 254.688 391.737 255.282 392.268 256.485C392.955 258.044 391.928 259.809 390.32 259.514C385.563 258.645 380.803 257.71 377.375 253.796C375.567 251.728 374.165 249.513 374.142 247.162L374.138 247.166Z" fill="#006739"/>
<path d="M389.8 275.929C384.88 274.591 379.78 273.357 376.348 268.927C375.356 267.646 375.391 264.209 376.449 262.913C376.82 262.463 377.375 262.258 377.879 262.386C378.773 262.611 379.659 262.933 380.491 263.332C382.174 264.143 383.896 264.861 385.583 265.641C387.965 266.742 390.163 268.209 392.631 269.214C394.221 269.862 394.572 271.592 393.955 273.346C393.319 275.157 391.866 276.089 389.8 275.926V275.929Z" fill="#006739"/>
<path d="M312.487 250.844C317.743 249.226 338.763 249.664 345.55 251.53C345.823 254.091 345.308 254.948 343.223 254.979C341.754 255.003 340.278 254.63 338.81 254.649C331.293 254.758 323.768 253.955 316.263 255.092C313.167 255.561 312.206 254.351 312.491 250.844H312.487Z" fill="#4177ED"/>
<path d="M338.982 291.494C334.561 291.494 330.02 291.506 325.475 291.483C324.787 291.483 324.155 291.184 323.827 290.521C323.401 289.659 323.862 288.992 324.409 288.383C324.94 287.789 325.811 287.304 325.994 286.629C326.697 284.034 328.642 283.879 330.739 284.049C332.875 284.224 335.007 284.492 337.119 284.821C338.845 285.093 339.419 285.69 339.673 287.413C339.845 288.569 340.181 289.783 338.986 291.494H338.982Z" fill="#4177ED"/>
<path d="M157.708 284.542C157.762 287.091 156.876 288.336 154.97 288.837C153.03 289.345 151.663 288.775 150.749 286.754C149.476 283.941 148.808 280.93 148.52 277.873C148.34 275.949 149.121 274.901 150.632 274.475C152.542 273.935 154.268 274.471 155.095 276.201C156.423 278.975 157.145 281.962 157.708 284.542Z" fill="#AEFFE4"/>
<path d="M308.359 246.134C321.3 244.799 333.991 246.188 346.663 247.115C346.682 248.303 346.37 248.737 345.776 248.784C344.445 248.888 343.105 248.923 341.77 248.958C332.238 249.214 322.753 248.027 313.225 248.116C311.378 248.136 309.593 247.884 308.363 246.134H308.359Z" fill="#4177ED"/>
<path d="M146.548 248.213C145.802 250.494 144.322 251.344 142.198 251.344C138.832 251.344 135.462 251.379 132.096 251.425C129.136 251.468 126.172 251.538 123.212 251.627C122.025 251.662 121.088 251.425 120.721 250.13C120.424 249.078 120.947 248.201 122.001 248.089C122.134 248.073 122.271 248.054 122.404 248.066C129.143 248.508 135.829 247.678 142.529 247.259C143.834 247.177 145.224 246.937 146.548 248.209V248.213Z" fill="#4177ED"/>
<path d="M429.978 318.213C429.755 319.42 429.775 319.847 429.599 320.169C428.053 322.985 426.908 325.945 426.155 329.065C425.62 331.268 424.554 332.925 422.043 333.383C420.418 333.678 419.259 334.892 418.111 336.021C417.58 336.541 417.134 337.359 416.139 336.917C416.314 334.248 416.869 332.56 418.478 330.415C420.551 327.645 422.66 324.902 424.819 322.198C426.053 320.65 427.553 319.381 429.982 318.217L429.978 318.213Z" fill="#006739"/>
<path d="M331.961 302.823C328.962 300.313 326.299 296.111 325.635 293.105C325.834 292.538 326.303 292.259 326.837 292.189C327.494 292.108 328.204 292.007 328.825 292.17C331.527 292.891 334.405 292.34 337.174 293.256C337.424 295.491 335.612 296.592 334.757 298.136C333.933 299.634 333.007 301.077 331.965 302.819L331.961 302.823Z" fill="#4177ED"/>
<path d="M125.816 254.808C126.695 254.001 127.523 253.908 128.304 253.846C132.701 253.497 137.102 253.194 141.502 252.907C141.713 252.892 141.944 253.16 142.346 253.408C142.084 255.643 140.347 256.938 138.847 258.362C138.605 258.595 138.093 258.618 137.707 258.618C135.165 258.622 132.619 258.634 130.077 258.564C127.156 258.482 126.91 258.234 125.816 254.808Z" fill="#4177ED"/>
<path d="M128.015 260.407C131.549 259.58 132.943 259.681 136.137 261.016C135.153 264.193 132.436 265.92 130.546 268.488C128.488 265.664 128.195 264.674 128.019 260.407H128.015Z" fill="#4177ED"/>
<path d="M410.918 352.963C411.976 350.174 413.956 348.455 416.01 346.426C416.018 348.657 415.491 350.139 414.116 351.57C413.339 352.377 412.546 353.363 410.918 352.963Z" fill="#006739"/>
<path d="M350.751 413.373C350.685 413.074 350.817 412.876 351.145 412.841C351.251 412.83 351.442 412.919 351.473 413.004C351.575 413.284 351.423 413.489 351.091 413.532C350.985 413.544 350.864 413.431 350.751 413.373Z" fill="black"/>
<path d="M355.679 366.914C355.585 366.871 355.492 366.829 355.394 366.786C355.445 366.693 355.476 366.549 355.554 366.518C355.621 366.491 355.738 366.588 355.835 366.631C355.785 366.724 355.73 366.821 355.679 366.914Z" fill="black"/>
</g>
</g>
<defs>
<clipPath id="clip0_1323_9616">
<rect width="472" height="472" fill="white"/>
</clipPath>
<clipPath id="clip1_1323_9616">
<rect width="422" height="419" fill="white" transform="translate(26.1865 28.4243)"/>
</clipPath>
</defs>
</svg>
