<svg viewBox="0 0 472 472" fill="none" xmlns="http://www.w3.org/2000/svg">
<g clip-path="url(#clip0_1323_9557)">
<mask id="mask0_1323_9557" style="mask-type:luminance" maskUnits="userSpaceOnUse" x="1" y="1" width="470" height="470">
<path d="M471 1L1 1L1 471H471V1Z" fill="white"/>
</mask>
<g mask="url(#mask0_1323_9557)">
<path d="M236 469.58C365 469.58 469.58 365 469.58 236C469.58 107 365 2.41992 236 2.41992C107 2.41992 2.41992 107 2.41992 236C2.41992 365 107 469.58 236 469.58Z" fill="#FFAA85"/>
<path d="M236 471C106.42 471 1 365.58 1 236C1 106.42 106.42 1 236 1C365.58 1 471 106.42 471 236C471 365.58 365.58 471 236 471ZM236 3.83C107.98 3.83 3.83 107.98 3.83 236C3.83 364.02 107.98 468.17 236 468.17C364.02 468.17 468.17 364.02 468.17 236C468.17 107.98 364.02 3.83 236 3.83Z" fill="#122315"/>
<path d="M94.3201 402.61C186.34 480.85 324.37 469.69 402.61 377.67C480.85 285.65 469.69 147.63 377.67 69.3801C285.66 -8.85995 147.63 2.31005 69.3801 94.3201C-8.85995 186.34 2.31005 324.37 94.3201 402.61Z" fill="#122315"/>
<path d="M215.63 42.6498L220.88 41.8198L218.76 65.1398L213.35 65.9898L207.94 51.5798L207.17 66.9698L201.72 67.8198L192.59 46.2798L197.78 45.4598L203.49 60.4898L204.25 44.4598L209.19 43.6798L214.86 58.7098L215.62 42.6798L215.64 42.6598L215.63 42.6498Z" fill="#EFE9E0"/>
<path d="M224.6 53.0498C224.6 46.2098 229.66 41.2698 236.6 41.2598C243.57 41.2598 248.61 46.1798 248.62 53.0298C248.62 59.8698 243.6 64.8098 236.62 64.8198C229.67 64.8298 224.61 59.8998 224.6 53.0498ZM243.32 53.0398C243.32 49.0498 240.49 46.1698 236.6 46.1598C232.74 46.1598 229.91 49.0498 229.92 53.0398C229.92 57.0298 232.75 59.9098 236.61 59.9098C240.51 59.9098 243.32 57.0198 243.32 53.0298V53.0398Z" fill="#EFE9E0"/>
<path d="M267.73 67.0501L262.52 66.3501C263.21 61.9301 261.17 58.6301 257.51 57.8801L256.47 65.5301L251.39 64.8501L254.43 42.3501L261.7 43.3301C266.49 43.9801 269.26 47.1901 268.69 51.5001C268.31 54.3301 266.62 56.2301 264.04 56.8301C267.01 58.8701 268.41 62.4901 267.74 67.0601L267.73 67.0501ZM258.93 47.3601L258.08 53.6301L259.49 53.8301C261.64 54.1101 263.19 53.0801 263.45 51.1801C263.71 49.2501 262.46 47.8401 260.28 47.5401L258.93 47.3601Z" fill="#EFE9E0"/>
<path d="M282.7 57.6699C287.29 60.4099 288.92 65.4199 287.13 71.8199L282.07 70.5299C283.59 65.2399 282.15 61.5399 277.89 59.9199L275.6 68.8699L270.64 67.5999L276.25 45.6099L281.21 46.8799L279.17 54.8599L287.27 48.4299L292.89 49.8599L282.69 57.6699H282.7Z" fill="#EFE9E0"/>
<path d="M316.91 64.0602L311.95 61.9802L304.95 78.6702L300.18 76.6802L307.18 59.9902L302.22 57.9102L304 53.6602L318.69 59.8202L316.91 64.0702V64.0602Z" fill="#EFE9E0"/>
<path d="M316.27 70.9799C319.64 65.0299 326.48 63.2299 332.51 66.6599C338.58 70.0999 340.52 76.8599 337.14 82.8299C333.77 88.7799 326.96 90.5799 320.9 87.1499C314.86 83.7199 312.89 76.9499 316.27 70.9799ZM332.55 80.2099C334.52 76.7299 333.49 72.8399 330.1 70.9199C326.74 69.0199 322.86 70.1399 320.9 73.5999C318.93 77.0799 319.96 80.9699 323.31 82.8799C326.7 84.7999 330.57 83.6799 332.55 80.2099Z" fill="#EFE9E0"/>
<path d="M349.12 89.6201L356.7 95.4601L350.23 103.86C347.36 104.02 344.56 103.25 342.01 101.29C336.43 96.9901 335.59 90.0701 339.74 84.6701C343.94 79.2301 350.89 78.3901 356.38 82.6301C357.81 83.7401 358.83 84.9301 359.42 86.3301L356.06 90.7001C355.58 88.9401 354.79 87.6201 353.47 86.6201C350.31 84.1901 346.4 84.7301 343.92 87.9401C341.42 91.1801 341.88 95.1601 345 97.5801C345.87 98.2601 346.83 98.6601 347.86 98.8701L350.11 95.9401L346.41 93.0801L349.11 89.5901L349.12 89.6201Z" fill="#EFE9E0"/>
<path d="M373.68 105L367.59 99.0399L364.57 102.12L369.5 106.95L366.35 110.17L361.42 105.34L358.16 108.67L364.25 114.63L361.03 117.92L351.27 108.36L367.15 92.1499L376.91 101.7L373.68 104.99V105Z" fill="#EFE9E0"/>
<path d="M386.64 120.1L383.19 115.97L369.3 127.57L366 123.61L379.89 112.01L376.44 107.88L379.98 104.92L390.19 117.14L386.65 120.1H386.64Z" fill="#EFE9E0"/>
<path d="M400.12 131.6L402.95 135.87L384.01 148.41L381.18 144.14L388.98 138.98L384.65 132.43L376.85 137.59L374.02 133.32L392.96 120.78L395.79 125.05L388.51 129.86L392.84 136.41L400.12 131.6Z" fill="#EFE9E0"/>
<path d="M408.2 155.89L404.35 148.28L400.51 150.23L403.63 156.39L399.61 158.42L396.49 152.26L392.33 154.36L396.18 161.97L392.06 164.05L385.89 151.87L406.14 141.61L412.31 153.79L408.2 155.87V155.89Z" fill="#EFE9E0"/>
<path d="M399.46 182.94L397.61 178.03C401.83 176.54 403.76 173.18 402.69 169.6L395.46 172.32L393.65 167.53L414.9 159.52L417.49 166.38C419.19 170.91 417.67 174.87 413.61 176.4C410.93 177.41 408.46 176.81 406.72 174.85C406.34 178.43 403.81 181.39 399.48 182.95L399.46 182.94ZM412.6 165.84L406.69 168.07L407.19 169.41C407.95 171.44 409.61 172.31 411.39 171.64C413.21 170.96 413.86 169.18 413.08 167.12L412.6 165.85V165.84Z" fill="#EFE9E0"/>
<path d="M339.7 349.78C338.11 346.38 336.8 343.22 335.19 340.22C333.87 337.75 332.54 335.27 330.96 332.94C329.84 331.3 328.62 329.84 327.03 328.64C325.4 327.41 325.43 327.33 325.99 325.46C326.69 323.09 325.76 320.11 323.83 318.52C323.41 318.17 323.05 317.75 322.63 317.39C321.86 316.75 321.79 315.98 322.09 315.08C322.58 313.63 323.28 312.26 323.99 310.91C324.28 310.36 324.52 309.81 324.68 309.22C324.83 308.61 324.69 308.15 324.12 307.82C323.5 307.47 322.95 307.52 322.47 308.05C321.77 308.82 321.17 309.66 320.71 310.61C320.36 311.32 320.02 312.05 319.58 312.7C319.11 313.4 318.43 313.95 317.58 313.41C316.71 312.86 316.95 312.03 317.43 311.32C318.5 309.75 319.6 308.21 320.69 306.67C320.97 306.27 321.28 305.89 321.53 305.47C321.82 304.98 322.02 304.42 321.52 303.96C320.96 303.45 320.3 303.37 319.69 303.88C318.35 304.98 317.34 306.35 316.62 307.93C316.39 308.43 316.21 308.95 315.99 309.46C315.74 310.04 315.31 310.35 314.68 310.1C313.95 309.81 314.1 309.25 314.37 308.73C315.32 306.95 315.73 304.93 316.96 303.29C317.35 302.76 317.63 302.12 317.86 301.5C318.09 300.9 318.11 300.25 317.42 299.9C316.81 299.6 316.18 299.72 315.76 300.24C315.18 300.95 314.59 301.67 314.17 302.47C313.31 304.15 312.39 305.82 311.84 307.64C311.77 307.87 311.7 308.11 311.59 308.33C311.31 308.91 310.8 309.08 310.21 309C309.5 308.9 309.35 308.34 309.41 307.77C309.59 305.87 310.14 304.06 311.08 302.39C311.32 301.96 311.63 301.58 311.86 301.15C312.42 300.1 312.24 299.21 311.42 298.78C310.57 298.34 309.75 298.62 309.1 299.59C307.6 301.82 306.89 304.34 306.63 306.97C306.53 307.99 306.39 309.01 306.37 310.06C306.31 313.3 308.56 315.23 310.3 317.46C310.6 317.84 310.98 318.17 311.27 318.55C311.58 318.97 311.66 319.45 311.4 319.93C311.13 320.42 310.66 320.53 310.15 320.52C309.59 320.5 309.07 320.34 308.63 319.97C306.81 318.44 304.92 316.97 303.9 314.7C303.46 313.72 302.73 313.13 301.71 312.65C298.52 311.14 295.06 310.22 292.06 308.27C290.64 307.35 289.25 306.41 287.65 305.72C284.5 304.38 281.23 303.42 278.06 302.17C274.26 300.67 270.37 299.44 266.58 297.95C262.85 296.47 259.19 294.79 255.69 292.8C251.37 290.35 246.69 288.79 242.05 287.11C237.81 285.57 233.59 284.03 229.74 281.58C227.49 280.15 224.98 279.16 222.42 278.31C220.29 277.6 218.25 276.6 216.18 275.71C215.72 275.51 215.31 275.14 215.19 274.68C214.5 272.1 212.65 270.1 211.75 267.62C211.36 266.55 211.32 265.66 211.77 264.65C212.4 263.24 213.21 261.96 214.26 260.84C214.85 260.2 215.36 259.55 215.54 258.66C215.76 257.56 215.51 257.06 214.52 256.63C213.59 256.23 213.13 256.8 212.78 257.48C211.95 259.05 211.18 260.64 210.36 262.21C209.85 263.18 209.28 264.11 207.98 264.22C207.65 263.4 207.78 262.67 208.03 261.99C208.85 259.75 209.39 257.42 210.41 255.25C210.59 254.87 210.7 254.44 210.74 254.03C210.8 253.38 210.6 252.79 209.92 252.55C209.26 252.32 208.95 252.8 208.58 253.24C207.49 254.55 207.11 256.17 206.53 257.7C206.1 258.84 205.68 259.99 205.2 261.11C204.99 261.6 204.7 262.19 204 261.99C203.24 261.76 203.3 261.12 203.38 260.48C203.71 257.65 204.8 255.07 205.86 252.47C206 252.13 206.2 251.81 206.28 251.46C206.47 250.57 206.19 249.88 205.27 249.59C204.44 249.33 203.83 249.61 203.48 250.41C202.64 252.31 201.88 254.24 201.42 256.28C201.26 256.99 201.17 257.72 201.01 258.44C200.86 259.09 200.76 259.85 199.83 259.8C198.96 259.75 198.13 258.75 198.32 257.87C198.64 256.44 199.05 255.03 199.48 253.63C199.8 252.58 200.11 251.52 200.32 250.44C200.51 249.51 200.46 248.72 199.39 248.38C198.43 248.08 197.72 248.42 197.25 249.56C196.52 251.32 196.3 253.22 195.85 255.06C195.21 257.67 195.53 260.31 195.97 262.89C196.46 265.78 198.43 267.88 200.21 270.05C200.67 270.62 201.25 271.09 201.75 271.62C202.13 272.03 202.47 272.49 202.15 273.09C201.83 273.69 201.27 273.9 200.62 273.91C200.11 273.92 199.67 273.73 199.24 273.47C198.19 272.84 197.15 272.18 196.47 271.12C195.54 269.66 194.18 268.85 192.57 268.26C188.68 266.85 184.79 265.45 180.88 264.09C177.39 262.88 173.84 261.68 170.14 261.15C169.72 261.09 169.29 261.03 168.89 260.87C164.92 259.29 160.74 258.36 156.71 256.98C154.29 256.15 151.86 255.37 149.39 254.69C144.11 253.21 138.84 251.74 133.42 250.77C130.85 250.31 128.2 250.33 125.7 249.48C125.14 249.29 124.49 249.36 123.88 249.36C121.56 249.36 119.27 249.07 116.97 248.81C113.48 248.42 109.92 248.06 106.4 248.72C104.48 249.08 102.51 248.93 100.59 249.37C96.3298 250.34 93.1898 252.64 91.4298 256.73C91.0698 257.57 91.1198 258.25 91.6898 258.93C92.3098 259.67 93.0598 259.62 93.8498 259.29C94.5998 258.97 95.3898 258.86 96.1898 258.93C98.1298 259.09 100.1 258.9 102.03 259.25C104.02 259.62 106.03 259.65 108.05 259.65C111.64 259.65 114.97 260.95 118.38 261.8C120.91 262.43 123.38 263.33 125.9 264.06C126.79 264.32 127.61 264.71 128.41 265.16C129.24 265.62 129.67 266.33 129.48 267.29C129.28 268.29 128.63 268.91 127.64 269.08C126.6 269.26 125.53 269.21 124.56 268.84C122.13 267.91 119.52 267.97 117.02 267.46C115.47 267.15 113.9 266.85 112.4 266.44C109.34 265.61 106.26 265.52 103.14 265.54C101.67 265.55 100.21 265.52 98.7398 265.48C97.1998 265.44 95.7198 265.57 94.2398 266.12C92.6898 266.7 90.9998 266.79 89.3698 266.86C86.5698 266.98 84.2298 264.74 84.0898 261.85C83.9998 260.02 84.3698 258.22 84.7798 256.43C85.8598 251.67 88.1898 247.3 89.1198 242.52C89.9498 238.24 91.2598 234.13 93.0098 230.16C93.7698 228.44 94.7098 226.79 95.5098 225.08C97.2898 221.27 99.0498 217.41 101.51 214C104.65 209.65 107.77 205.25 112.4 202.26C113.57 201.5 114.64 200.56 115.7 199.66C118.44 197.34 121.75 196.8 125.1 196.02C127.91 195.37 130.85 195.89 133.57 194.78C134.05 194.59 134.66 194.67 135.21 194.67C138.08 194.65 140.96 194.73 143.82 194.62C146.06 194.53 148.19 195 150.31 195.55C153.19 196.3 156.05 197.11 158.89 197.99C160.81 198.59 162.65 199.47 164.58 199.99C167.05 200.65 169.42 201.62 171.84 202.41C174.2 203.18 176.48 204.26 178.74 205.31C180.68 206.21 182.63 207.05 184.7 207.62C185.77 207.91 186.56 208.76 187.64 209.08C191.43 210.18 195.22 211.27 198.96 212.53C203.64 214.1 208.28 215.81 212.93 217.42C218.23 219.26 223.32 221.62 228.62 223.41C231.93 224.53 235 226.11 238.11 227.62C238.56 227.84 239 228.01 239.48 228.1C240.63 228.32 241.74 228.72 242.72 229.31C245.5 230.98 248.46 232.25 251.39 233.61C254.15 234.89 256.81 236.41 259.51 237.81C261.95 239.07 264.48 240.1 267.03 241.11C268.55 241.71 269.9 242.73 271.4 243.41C275.34 245.2 279.39 246.75 283.25 248.7C286.54 250.36 290.08 251.27 293.44 252.7C294.99 253.36 296.67 253.72 298.21 254.5C301.9 256.37 305.7 258.01 309.36 259.94C312.21 261.44 315 263.04 317.88 264.49C319.77 265.44 321.44 266.84 323.31 267.87C325.08 268.84 326.78 269.92 328.74 270.48C330.94 271.11 332.67 272.65 334.67 273.66C337.22 274.95 339.94 275.95 342.19 277.76C345.84 280.7 350.02 282.94 353.29 286.38C354.18 287.32 354.99 288.28 355.4 289.55C355.58 290.12 355.9 290.68 356.28 291.14C358.08 293.4 359.24 295.91 359.49 298.8C359.64 300.58 360.11 302.3 360.61 303.98C361.71 307.66 362.02 311.42 361.89 315.2C361.76 318.92 361.69 322.69 361.04 326.33C360.39 329.98 359.96 333.68 358.87 337.27C358.39 338.86 358.14 340.59 357.79 342.25C357.42 344.02 356.63 345.71 355.93 347.4C354.48 350.9 352.84 354.31 350.77 357.5C350.08 358.56 349.76 359.82 348.72 360.71C347.26 361.96 345.74 361.99 344.68 360.36C343.71 358.87 342.28 357.95 341.03 356.8C340.55 356.35 339.95 355.95 339.27 355.87C336.47 355.55 334.23 353.77 331.62 352.93C331.02 352.74 330.54 352.14 330.06 351.69C328.02 349.79 325.38 348.84 323.11 347.3C322.04 346.58 320.97 345.87 320.25 344.76C319.43 343.5 319.87 342.46 321.33 342.21C322.31 342.04 323.25 342.16 324.14 342.72C325.69 343.69 327.3 344.57 328.85 345.54C330.12 346.33 331.54 346.72 332.95 347.08C335.05 347.61 337 348.41 338.8 349.6C338.93 349.69 339.13 349.68 339.67 349.78H339.7ZM151.21 242.79C150.14 242.71 149.24 243.05 148.8 244.08C148.33 245.17 149.15 245.78 149.84 246.37C150.16 246.65 150.55 246.85 150.92 247.05C154.54 249.07 158.51 250 162.54 250.7C163.77 250.91 164.63 250.31 164.95 249.24C165.29 248.09 164.98 247.16 163.91 246.61C160.74 245.02 157.39 243.91 153.92 243.18C153.03 242.99 152.11 242.9 151.21 242.77V242.79ZM224.23 269.22C223.07 269.22 222.15 270.03 221.72 271.23C221.34 272.27 221.94 272.81 222.67 273.35C223.86 274.24 225.2 274.8 226.59 275.27C229.23 276.17 231.98 276.78 234.43 278.2C234.91 278.47 235.44 278.63 235.99 278.67C237.43 278.78 237.96 278.24 238.01 276.78C238.05 275.49 237.23 274.9 236.27 274.47C232.57 272.78 228.84 271.12 225.12 269.47C224.79 269.32 224.43 269.28 224.23 269.22ZM177.2 250.13C176.42 250.13 175.74 250.08 175.08 250.13C173.99 250.23 173.54 251 173.34 251.97C173.12 253.01 173.71 253.43 174.57 253.9C178.02 255.78 181.93 256.35 185.52 257.87C186.86 258.44 187.86 257.73 188.21 256.27C188.64 254.54 188.12 253.37 186.51 252.73C184.87 252.08 183.22 251.45 181.53 250.98C180.08 250.58 178.69 249.8 177.21 250.12L177.2 250.13ZM100.59 242.75C101.08 242.67 101.56 242.71 101.92 242.53C103.8 241.6 105.81 241.67 107.82 241.64C109.35 241.62 110.86 241.46 112.33 241.06C113.38 240.78 113.8 240.05 113.72 239C113.64 237.96 113.11 237.38 111.94 237.32C110.3 237.24 108.66 237.3 107.01 237.25C105.05 237.19 103.15 237.52 101.24 237.95C100.02 238.22 99.1498 238.94 98.4398 239.85C97.6398 240.88 98.0098 242.03 99.2298 242.49C99.6698 242.66 100.17 242.67 100.59 242.74V242.75ZM295.7 303.64C296.58 303.69 297.42 303.51 297.86 302.64C298.34 301.68 297.64 301.01 297.09 300.39C296.53 299.76 295.8 299.29 295.02 298.91C292.44 297.68 289.86 296.46 287.28 295.23C286.77 294.99 286.25 294.9 285.7 294.87C284.62 294.81 283.98 295.37 283.63 296.32C283.32 297.2 283.68 297.88 284.39 298.38C285.34 299.04 286.24 299.79 287.32 300.22C289.53 301.08 291.7 301.99 293.75 303.2C294.35 303.55 294.99 303.67 295.7 303.66V303.64ZM135.12 243.48C135.3 243.48 135.49 243.48 135.67 243.48C136.56 243.44 137.74 243.7 137.96 242.53C138.15 241.54 137.41 240.71 136.6 240.1C136.36 239.92 136.05 239.83 135.77 239.73C132.64 238.63 129.42 238.05 126.09 238.09C125.29 238.09 124.52 238.28 123.77 238.56C122.81 238.92 122.56 239.67 122.58 240.61C122.6 241.51 123.14 241.89 123.93 242.09C125.6 242.51 127.28 242.72 129 242.74C129.97 242.74 130.98 242.6 131.9 243C132.95 243.45 134.03 243.5 135.13 243.49L135.12 243.48ZM272.94 294.13C274.52 294.19 275.24 293.73 275.55 292.44C275.86 291.17 274.92 290.68 274.04 290.27C272.27 289.45 270.48 288.71 268.68 287.96C267.39 287.42 266.05 287.02 264.65 286.87C263.29 286.72 262.41 287.23 262.07 288.37C261.74 289.49 262.64 289.85 263.32 290.33C263.61 290.54 263.95 290.69 264.29 290.84C266.52 291.81 268.75 292.76 270.98 293.73C271.61 294 272.26 294.12 272.94 294.13ZM340.39 335.61C340.3 336.58 340.49 337.28 340.85 337.93C341.63 339.37 342.38 340.84 343.27 342.21C343.83 343.08 344.11 344.12 344.89 344.83C345.41 345.31 345.95 345.96 346.79 345.57C347.64 345.17 348 344.41 347.96 343.47C347.93 342.79 347.71 342.16 347.45 341.54C346.46 339.19 345.48 336.84 344.46 334.5C344.27 334.06 344.01 333.62 343.69 333.27C342.74 332.23 341.27 332.53 340.79 333.87C340.56 334.49 340.49 335.17 340.39 335.62V335.61ZM329.31 316.38C328.45 316.28 327.84 316.64 327.42 317.29C326.97 317.98 327.01 318.75 327.56 319.32C329.37 321.18 330.87 323.37 333.11 324.78C333.37 324.94 333.65 325.06 333.93 325.18C334.93 325.63 335.66 325.3 336.26 324.43C336.83 323.61 336.87 322.86 336.17 322.13C334.87 320.77 333.6 319.38 332.23 318.09C331.4 317.3 330.44 316.62 329.31 316.39V316.38ZM255.24 284.38C255.31 283.51 255 282.67 254.03 282.28C252.06 281.48 250.09 280.71 248.09 279.99C247.34 279.71 246.53 279.76 245.76 280.03C244.56 280.44 244.29 281.56 245.2 282.43C245.54 282.76 245.99 282.99 246.43 283.19C248.7 284.2 250.96 285.23 253.36 285.94C254.96 286.41 255.27 286.22 255.24 284.39V284.38Z" fill="#D04417"/>
<path d="M142.74 370.68C142.23 371.46 142.54 372.13 142.7 372.75C143.48 375.76 144.37 378.73 145.43 381.66C146.99 385.96 149.43 389.75 152.01 393.45C153.19 395.14 154.61 396.68 156.02 398.19C156.97 399.21 157.28 400.2 156.62 401.49C154.44 405.78 152.35 410.13 149.74 414.19C147.95 416.96 146.67 420.03 144.76 422.74C143.6 424.39 143.49 424.53 141.66 423.62C139.27 422.42 136.94 421.07 134.62 419.73C129.81 416.96 125.09 414.07 120.61 410.78C119 409.6 118.9 409.55 119.58 407.62C121.02 403.54 122.36 399.43 124.3 395.53C125.71 392.7 126.7 389.67 127.86 386.71C129.11 383.54 130.38 380.37 131.3 377.09C131.79 375.33 132.43 373.6 132.44 371.73C132.44 370.61 132.97 369.6 133.25 368.55C133.85 366.23 132.98 364.38 131.86 362.52C129.9 359.24 128.79 355.72 128.29 351.88C127.79 348.06 128.88 344.64 129.86 341.14C130.02 340.56 130.3 340 130.59 339.47C131.24 338.27 131.77 338.07 133.15 338.36C135.44 338.83 137.53 339.85 139.66 340.77C141.68 341.64 143.7 342.49 145.73 343.31C146.83 343.76 147.72 344.43 148.49 345.36C150.85 348.24 153.21 351.11 156.35 353.23C157.58 354.06 158.94 354.67 160.3 355.11C161.86 355.62 163.39 356.25 165.01 356.59C166.28 356.86 167.54 357.04 168.77 356.41C169.33 356.13 169.96 356.09 170.57 356.16C174.53 356.59 177.83 354.87 181.04 352.92C183.25 351.58 184.05 351.91 184.47 354.47C185.05 357.95 185.65 361.43 186.29 364.91C186.76 367.49 187.72 369.94 188.16 372.54C188.64 375.42 189.29 378.25 189.76 381.14C190.27 384.25 190.73 387.38 191.21 390.51C191.65 393.38 192.17 396.24 192.3 399.19C192.48 403.19 193.18 407.16 193.73 411.14C193.91 412.48 194.03 413.8 194.04 415.15C194.07 417.78 194.02 420.4 194.35 423.02C194.65 425.38 194.26 427.77 194.22 430.14C194.19 432.33 194.03 434.53 194.05 436.73C194.05 438.1 193.49 439.2 192.9 440.34C192.61 440.89 192.15 441.04 191.55 441.11C190.3 441.25 189.14 440.85 187.93 440.67C182.44 439.8 177.03 438.66 171.82 436.67C171.19 436.43 170.54 436.26 169.91 436.04C167.96 435.37 166.92 434 166.9 431.93C166.86 428.93 166.8 425.94 166.89 422.95C167.07 416.69 166.21 410.52 165.34 404.35C164.97 401.7 164.69 399.03 164.26 396.38C163.93 394.34 163.29 392.36 162.97 390.31C162.69 388.51 162.07 386.77 161.7 384.99C161.25 382.86 160.32 381.29 158.32 380.08C153.62 377.24 148.77 374.65 144.32 371.41C143.9 371.1 143.43 370.76 142.75 370.73H142.74V370.68Z" fill="#FFAA85"/>
<path d="M49.6999 305.68C49.9199 305.63 50.1499 305.49 50.2599 305.55C52.1299 306.58 53.9599 305.74 55.7699 305.39C57.3799 305.08 58.5799 303.96 59.7099 302.87C60.4199 302.18 60.4099 301.17 60.0499 300.28C59.5999 299.15 59.1499 297.95 58.2299 297.13C56.5899 295.67 55.2199 293.95 53.6299 292.45C52.5199 291.4 51.4699 290.32 50.6299 289.01C49.7799 287.68 48.7399 286.46 47.5999 285.34C46.3499 284.11 45.5699 282.6 45.1199 280.92C44.9399 280.25 44.8799 279.54 45.4799 279.05C46.1099 278.54 46.8099 278.78 47.3299 279.22C49.5099 281.09 52.1199 282.35 54.1999 284.35C55.8399 285.92 57.9799 286.8 59.8199 288.1C60.9099 288.86 61.9099 289.79 63.1599 290.33C63.9199 290.66 64.6699 291.01 65.3699 290.37C66.07 289.73 66.1999 288.89 65.8699 288.01C65.3499 286.64 64.7299 285.36 63.7799 284.19C62.1399 282.16 60.2899 280.28 59.0999 277.88C58.4599 276.58 57.4999 275.43 56.6499 274.24C53.3799 269.68 50.1099 265.12 47.6499 260.04C46.4699 257.6 45.9299 254.97 45.2199 252.38C45.0799 251.86 45.0599 251.28 45.5899 250.74C46.7099 250.61 47.2399 251.55 47.7799 252.28C48.6599 253.45 49.4299 254.74 50.5099 255.72C53.6899 258.59 56.0599 262.19 59.2199 265.07C59.9899 265.77 60.7899 266.43 61.6299 267.04C63.1999 268.18 64.6899 268.15 65.7699 267.04C66.5199 266.28 66.8299 265.43 66.4999 264.37C66.0699 263.01 65.4099 261.77 64.3999 260.77C63.3499 259.72 62.4899 258.57 61.8299 257.23C61.3199 256.2 60.6999 255.21 59.9099 254.34C59.2499 253.62 58.7099 252.79 58.3299 251.88C57.4499 249.79 56.2999 247.85 55.1799 245.89C53.8899 243.61 53.3099 240.99 52.0699 238.68C51.9599 238.47 52.0099 238.2 52.3699 237.94C53.3599 238.4 54.1399 239.25 54.8099 240.13C55.9799 241.66 57.3499 242.92 58.9599 243.95C60.1299 244.7 61.4699 244.58 62.4399 243.61C63.2899 242.76 63.3499 241.62 62.3899 240.47C60.1099 237.7 58.3599 234.64 57.3499 231.2C56.8599 229.51 56.1499 227.87 56.0699 226.08C56.0299 225.1 55.5399 224.33 54.9899 223.6C53.9999 222.31 52.5399 222.26 51.3799 223.4C50.4799 224.28 49.7399 225.34 48.6799 225.95C48.1899 225.83 48.0599 225.5 48.1399 225.22C49.0299 222.05 49.6899 218.84 50.4499 215.64C50.7599 214.34 51.4499 213.07 52.4999 212.22C54.5099 210.59 55.5099 208.26 56.9299 206.22C57.0699 206.02 57.1399 205.74 57.3199 205.6C59.3499 204.07 61.3099 202.43 63.4599 201.08C64.6899 200.31 66.2399 201.43 66.4599 203.05C66.6099 204.14 66.4799 205.24 66.3999 206.34C66.1699 209.57 65.6699 212.79 65.8299 216.02C66.1099 221.63 66.7699 227.19 68.1499 232.67C68.9499 235.85 69.6199 239.09 70.3299 242.3C71.4299 247.35 72.5799 252.46 75.7199 256.78C75.8599 256.98 75.9999 257.18 76.0899 257.41C76.3999 258.15 76.3599 258.88 75.7199 259.42C75.1199 259.93 74.4399 259.74 73.8499 259.35C72.9699 258.77 72.3199 257.95 71.7399 257.09C71.0299 256.02 70.3399 254.94 69.6399 253.87C69.2399 253.25 68.8199 252.63 68.1799 252.25C67.4999 251.84 66.7699 251.83 66.0999 252.27C65.3899 252.73 65.5599 253.4 65.7399 254.08C66.0199 255.16 66.5499 256.13 67.0799 257.09C69.8999 262.16 72.7699 267.2 76.5399 271.64C77.9999 273.36 79.3399 275.19 81.0399 276.69C81.7799 277.35 82.3599 278.15 82.8799 278.96C84.7699 281.92 87.2399 284.37 89.7199 286.81C91.1899 288.26 91.1099 288.74 89.2799 289.78C89.0199 289.93 88.7599 290.1 88.4899 290.25C87.2099 290.99 86.4999 290.93 85.6499 289.76C84.1099 287.63 82.2199 285.79 80.5599 283.77C79.9099 282.97 79.0899 282.31 78.3199 281.61C77.6699 281.01 76.9499 280.81 76.1899 281.45C75.4699 282.06 74.7999 282.69 75.2099 283.78C75.4199 284.35 75.5399 284.97 75.8099 285.51C77.5699 288.94 79.5999 292.22 81.7699 295.38C82.8499 296.96 84.0899 298.51 85.3799 299.96C87.9799 302.89 89.3599 306.49 91.1499 309.88C91.9699 311.43 93.1099 312.82 94.0699 314.31C95.0599 315.84 96.0999 317.35 96.5999 319.09C96.1199 319.94 95.41 319.86 94.7999 319.58C93.5799 319.04 92.3499 318.47 91.2899 317.63C90.8499 317.28 90.4599 316.88 90.3599 316.31C90.1399 315 89.3899 313.95 88.6699 312.89C87.6399 311.37 86.6599 309.83 85.6999 308.27C83.9599 305.42 80.2899 304.02 77.5999 305.45C75.1499 306.75 73.2599 308.74 72.2399 311.48C71.0299 314.74 70.16 318.1 68.9799 321.37C68.35 323.14 67.5399 324.89 67.16 326.7C66.6199 329.3 66.2299 332.03 68.1799 334.39C68.9599 335.34 69.9199 335.97 71.0699 336.19C72.6299 336.49 74.2299 336.38 75.8199 336.28C76.3999 336.24 76.8699 335.94 77.2599 335.55C77.6899 335.12 78.0999 334.66 78.5199 334.22C79.8799 332.79 81.41 332.47 82.66 333.95C84.4799 336.1 87.0399 336.77 89.3299 337.96C94.7299 340.78 96.9399 345.32 96.91 350.94C96.9 352.91 95.7599 353.72 93.7599 353.51C91.4199 353.26 89.6899 351.83 88.0999 350.36C85.5299 347.98 82.4299 346.35 79.7099 344.21C79.3299 343.91 78.8799 343.68 78.4299 343.52C77.7899 343.29 77.2199 343.53 76.7799 344.02C76.3499 344.49 76.3899 345.04 76.6799 345.56C77.2799 346.62 77.7799 347.75 78.8799 348.43C80.1899 349.25 80.9499 350.64 82.2199 351.54C86.6699 354.71 91.5799 357.05 96.5299 359.26C98.6099 360.19 100.4 361.35 101.68 363.2C102.49 364.36 103.36 365.45 104.4 366.4C105.6 367.49 105.95 368.69 105.09 370.15C104.9 370.46 104.8 370.82 104.66 371.16C104.24 372.22 103.43 372.64 102.34 372.51C99.0299 372.14 96.2799 370.6 94.1699 368.11C92.9599 366.68 91.4999 365.62 90.0799 364.48C89.5399 364.05 88.9199 363.77 88.2299 364.22C87.4899 364.71 87.4299 365.42 87.6699 366.17C88.0499 367.4 88.4899 368.6 89.3299 369.61C91.4799 372.19 93.7699 374.63 96.4699 376.65C97.4599 377.39 98.2199 378.33 99.1799 379.1C101.87 381.28 104.93 382.78 108.04 384.17C110.1 385.09 112.01 386.32 114.13 387.13C115.22 387.55 116.01 388.51 116.56 389.54C117.46 391.23 115.76 393.99 113.58 394.29C112.2 394.47 110.8 394.35 109.4 394.07C106.47 393.49 103.81 392.08 100.83 391.57C97.4699 390.99 95.07 388.69 92.8299 386.15C90.8699 383.93 89.3099 381.41 87.0299 379.41C85.6499 378.19 84.8099 376.26 83.6199 374.72C82.2799 372.99 80.8899 371.3 79.5999 369.53C78.1999 367.62 76.8599 365.66 75.2999 363.86C75.0399 363.56 74.7799 363.16 74.9699 362.68C75.4199 362.27 75.8999 362.55 76.3499 362.64C77.1599 362.79 77.9199 362.66 78.6699 362.31C80.1899 361.61 80.4299 360.54 78.9999 359.64C76.1699 357.85 73.8299 355.34 70.7099 353.98C68.6399 353.08 67.2699 351.36 66.2399 349.53C64.7099 346.83 63.0199 344.21 61.6599 341.43C58.8699 335.72 56.2599 329.93 54.3799 323.85C52.7799 318.66 51.0899 313.49 49.8699 308.18C49.6799 307.36 49.3199 306.56 49.6899 305.7H49.7199L49.6999 305.68Z" fill="#006739"/>
<path d="M160.36 320.2C158.54 319.27 156.66 318.84 154.72 318.78C151.03 318.68 147.48 317.93 144.02 316.67C142.3 316.04 140.43 316.08 138.69 315.47C136.91 314.86 135.04 314.55 133.23 313.99C131.66 313.5 130.6 312.38 129.72 310.96C127.39 307.2 128.03 303.35 129.23 299.47C129.56 298.42 130.39 298.08 131.43 298.55C135.08 300.22 138.97 300.97 142.89 301.58C145.31 301.95 147.68 301.85 150.13 301.31C152.7 300.74 155.19 299.97 157.72 299.3C158.12 299.2 158.6 299.23 158.78 298.71C158.57 298.06 158 298.23 157.56 298.22C154.31 298.14 151.19 297.3 148 296.82C144.11 296.23 140.47 294.79 136.66 293.97C135.53 293.73 134.37 293.43 133.37 292.9C131.83 292.09 131.05 290.58 130.68 288.94C129.93 285.59 130.17 282.31 131.31 279.02C132.05 276.87 132.94 274.81 134.1 272.87C134.98 271.39 135.39 271.42 136.89 272.1C139.21 273.15 141.4 274.65 143.9 275.14C147.74 275.89 151.66 276.12 155.54 275.26C157.07 274.92 158.17 273.81 159.52 272.75C157.26 271.71 154.98 271.37 152.8 270.75C150.82 270.18 148.79 269.86 146.68 269.8C144.72 269.75 143.33 268.47 142.37 266.78C142.25 266.58 142.12 266.29 142.17 266.1C142.67 264.22 142.99 262.14 144.77 261.01C148.27 258.79 151.98 258.05 156.1 259.49C158.43 260.3 160.8 261.1 163.28 261.54C165.57 261.95 167.68 263.05 169.5 264.49C171.16 265.8 171.38 268.06 170.35 269.91C169.73 271.03 169.14 272.17 168.54 273.3C167.57 275.12 167.5 277.14 167.12 279.11C166.66 281.49 166.44 283.84 166.61 286.2C166.77 288.43 167.14 290.65 168.13 292.72C168.47 293.43 168.82 294.17 168.98 294.94C169.64 298.07 171.25 300.72 173.2 303.17C175.05 305.49 176.16 308.22 177.59 310.77C179.66 314.44 181.73 318.1 184.14 321.56C184.9 322.66 185.87 323.42 187.23 323.62C191.08 324.19 194.4 323.15 196.99 320.23C198.32 318.73 199.46 317.05 200.5 315.32C200.82 314.79 201.05 314.24 201.2 313.64C202.52 308.42 204.52 303.43 206.37 298.39C207.78 294.55 209.16 290.7 210.35 286.79C210.69 285.68 211.12 284.61 211.48 283.51C211.77 282.61 211.68 281.96 210.85 281.5C207.6 279.67 204.2 278.84 200.5 279.89C199.79 280.09 199.33 280.45 199.19 281.23C198.65 284.27 197 286.91 196.08 289.81C195.26 292.42 193.97 295 194.89 297.8C195.44 299.47 195.84 301.2 196.66 302.79C197.8 305 198.2 307.31 196.94 309.64C196.66 310.16 196.45 310.87 195.7 310.82C195.02 310.78 194.63 310.22 194.42 309.64C194.05 308.67 193.69 307.69 193.46 306.68C192.37 301.91 190.77 297.32 188.77 292.87C187.34 289.69 186.31 286.37 185.45 283C185.34 282.59 185.22 282.17 185.33 281.74C185.58 280.78 186.36 280.55 187.12 281.21C187.64 281.66 187.92 282.28 188.21 282.89C189.41 285.41 190.62 287.93 191.9 290.63C192.71 289.52 193.09 288.39 193.24 287.24C193.46 285.59 193.88 283.98 194.43 282.45C194.99 280.9 195.01 279.2 195.88 277.75C196.41 276.86 197.03 276.1 198.05 275.94C200.63 275.54 203.2 274.85 205.85 275.36C208.67 275.9 211.43 276.61 213.91 278.14C215.73 279.26 216.31 280.38 215.9 282.62C215.35 285.62 214.63 288.6 213.49 291.42C211.93 295.27 210.61 299.19 209.41 303.15C208.17 307.24 207.01 311.36 205.03 315.18C203.06 318.97 200.89 322.5 197.62 325.49C194.83 328.04 191.87 328.47 188.56 328.28C186.82 328.19 185.12 327.54 183.48 326.86C183.03 326.67 182.61 326.4 182.33 325.97C180.33 322.9 177.74 320.27 175.62 317.3C173.02 313.67 171.1 309.63 169.3 305.55C168.79 304.4 168.1 303.33 167.38 302.26C167.3 303.79 167.13 305.3 167.68 306.76C168.06 307.75 168.05 308.8 168.2 309.83C168.86 314.42 169.64 318.98 170.75 323.48C171.99 328.5 174.63 332.55 179.2 335.16C180.36 335.82 181.6 336.31 183 336.36C184.21 336.41 185.43 336.58 186.63 336.8C187.6 336.97 187.9 337.56 187.37 338.39C186.23 340.2 185.03 341.98 183.13 343.12C182.87 343.27 182.59 343.51 182.32 343.52C179.42 343.66 176.65 344.59 173.63 344.4C170.25 344.19 166.89 343.45 163.46 343.72C162.19 343.82 160.89 343.75 159.69 343.18C159.42 343.05 159.09 342.98 158.8 343.01C155.78 343.31 152.88 342.41 149.92 342.13C147.62 341.92 145.4 341.06 143.28 340.16C140.59 339.02 137.79 338.1 135.2 336.72C134.32 336.25 133.41 335.96 132.4 336.01C131.35 336.06 130.53 335.53 129.83 334.79C126.73 331.56 125.91 327.74 126.89 323.45C126.96 323.15 127.07 322.87 127.15 322.57C127.63 320.74 128.11 320.48 129.81 321.2C130.37 321.44 130.9 321.75 131.45 322.01C133.34 322.9 135.31 323.32 137.41 323.59C139.85 323.9 142.21 323.66 144.62 323.57C147.93 323.45 151.18 322.94 154.46 322.67C156.58 322.5 158.56 321.68 160.35 320.24L160.36 320.2ZM154.82 263.06C153.61 262.96 152.89 263.45 152.84 264.26C152.78 265.11 153.22 265.67 154.06 265.78C154.91 265.89 155.71 266.08 156.5 266.42C157.17 266.7 157.85 266.64 158.18 265.86C158.48 265.16 158.29 264.48 157.6 264.16C156.62 263.7 155.59 263.36 154.82 263.06Z" fill="#4177ED"/>
<path d="M304.89 326.36C305.75 325.47 306.08 324.35 306.57 323.31C307.73 320.88 308.68 320.47 311.23 321.29C312.8 321.8 314.46 321.75 316.05 322.26C317.63 322.76 319.12 323.42 320.66 324C322.04 324.52 322.95 325.58 323.97 326.55C324.42 326.98 324.52 327.5 324.36 328.06C324.18 328.71 324.04 329.38 323.75 329.98C321.45 334.78 320.15 339.96 317.91 344.79C316.69 347.43 316.24 350.39 315.04 353.07C314.16 355.02 313.19 356.93 312.07 358.75C310.44 361.39 307.77 362.17 304.92 361.93C301.47 361.64 298.54 360.26 296.35 357.3C293.61 353.6 292.01 349.4 290.39 345.18C289.54 342.97 288.69 340.76 287.72 338.56C287.47 339.56 287.45 340.56 287.75 341.52C288.16 342.82 288.24 344.15 288.28 345.5C288.38 348.69 289.14 351.77 289.79 354.88C289.83 355.06 289.95 355.24 289.93 355.41C289.73 357.83 291.07 359.76 292.07 361.73C293.49 364.52 295.94 366.23 298.88 367.22C300.38 367.73 301.93 368.09 303.45 368.57C304.62 368.94 304.82 369.38 304.43 370.48C303.71 372.5 302.44 374.12 300.73 375.38C299.83 376.04 298.81 376.38 297.65 376.36C294.84 376.32 292.03 376.38 289.22 376.34C287.14 376.31 285.18 375.52 283.14 375.19C282.55 375.1 281.97 374.84 281.35 374.84C278.33 374.84 275.49 373.77 272.55 373.31C269.52 372.84 266.65 371.81 263.69 371.11C260.69 370.4 257.57 370.12 254.76 368.65C251.69 367.04 250.34 364.43 250.08 361.11C249.91 358.94 250.37 356.85 250.93 354.78C251.46 352.83 253.12 352.13 254.75 353.3C256.79 354.76 258.95 356.02 261.04 357.39C262.87 358.59 264.75 359.47 266.98 359.45C267.73 359.44 268.4 359.78 269.07 360.06C272.89 361.66 276.68 361.49 280.43 359.82C280.7 359.7 280.97 359.52 281.19 359.33C281.31 359.23 281.35 359.02 281.42 358.89C281.25 358.28 280.72 358.17 280.29 358.02C277.6 357.07 274.98 356 272.07 355.66C269.37 355.34 266.73 354.46 264.12 353.64C262.66 353.18 261.14 353.07 259.67 352.66C257.7 352.11 255.88 351.28 254.08 350.41C252.15 349.49 251.72 347.48 251.79 345.54C251.9 342.48 252.43 339.47 253.47 336.57C253.7 335.93 254.04 335.35 254.45 334.82C255.36 333.63 256.58 332.95 258.1 334.45C260.78 337.09 264.22 338.67 267.54 340.33C268.96 341.04 270.63 341.45 272.32 341.44C276.05 341.44 279.77 341.45 283.5 341.46C283.68 341.46 283.87 341.46 284.05 341.44C284.82 341.38 285.64 341.19 285.71 340.32C285.78 339.43 285.08 338.91 284.25 338.7C283.85 338.6 283.39 338.55 282.98 338.62C281.19 338.93 279.64 338.32 278.06 337.59C275.56 336.44 272.94 335.61 270.19 335.25C269.01 335.09 267.97 334.75 266.98 334.05C264.6 332.37 261.84 331.46 259.03 330.95C257.32 330.65 256.49 329.78 256.18 328.34C255.43 324.88 255.55 321.44 256.9 318.1C257.22 317.3 257.67 316.54 258.29 315.96C259.99 314.37 262.11 313.14 264.41 315.09C266.06 316.49 268.07 317.55 270.08 318.41C273.55 319.9 277.22 320.39 280.99 319.75C281.11 319.73 281.24 319.72 281.34 319.66C282.06 319.26 283.19 319.2 283.27 318.2C283.36 317.16 282.23 317.13 281.56 316.84C277.59 315.1 273.54 313.62 269.29 312.73C268.4 312.54 267.55 312.15 266.71 311.79C264.88 310.99 264.59 310.38 264.82 308.35C265.48 302.66 270.88 301.02 274.63 302.45C279.13 304.16 283.51 306.16 288.07 307.69C288.53 307.85 289 308 289.48 308.04C290.32 308.11 290.99 308.52 291.63 308.99C293.33 310.25 293.34 311.51 291.63 312.82C288.81 314.97 287.6 317.77 287.46 321.34C287.27 326.2 288.7 330.59 290.43 334.98C292.11 339.24 293.65 343.55 295.39 347.78C296.62 350.76 297.86 353.77 299.95 356.31C300.95 357.52 302.2 358.48 303.61 358.98C305.04 359.49 306.46 358.73 307.71 357.97C309.87 356.65 310.78 354.4 311.72 352.21C313.75 347.5 315.11 342.56 316.89 337.76C317.86 335.13 318.9 332.53 319.9 329.91C320.38 328.66 320.28 328.27 319.11 327.74C317.22 326.87 315.32 326.05 313.39 325.29C312.46 324.93 311.46 325.11 310.49 325.27C309.76 325.39 309.5 325.99 309.35 326.58C308.72 329.01 307.64 331.29 306.84 333.66C306.43 334.86 306.5 336.08 306.92 337.26C307.56 339.05 307.34 340.89 307.3 342.71C307.28 343.55 306.91 344.36 306.01 344.49C305.08 344.63 304.52 343.84 304.28 343.11C303.27 339.99 302.04 336.89 302.22 333.51C302.36 330.96 301.63 328.56 301.02 326.15C300.73 325.02 300.83 323.85 300.38 322.74C299.71 321.09 298.84 319.55 298.05 317.96C297.69 317.22 297.07 316.72 296.34 316.37C295.96 316.19 295.54 316.03 295.23 315.75C294.68 315.27 294.5 314.62 294.7 313.92C294.9 313.25 295.45 312.97 296.09 312.91C297.58 312.78 298.92 313.15 299.84 314.38C301.72 316.87 303.47 319.44 304.05 322.62C304.28 323.87 304.93 325.04 304.93 326.4H304.94L304.89 326.36ZM279.64 310.58C280.47 310.58 281.09 310.39 281.42 309.68C281.65 309.18 281.61 308.63 281.18 308.34C280.07 307.59 278.82 307.05 277.46 307.08C276.73 307.09 276.3 307.7 276.06 308.37C275.89 308.84 276.06 309.26 276.48 309.46C277.52 309.97 278.58 310.45 279.64 310.58Z" fill="#4177ED"/>
<path d="M314.79 425.07C313.12 425.76 311.58 426.52 309.96 427.03C307.56 427.78 305.3 428.81 303.12 430.05C302.14 430.6 301.09 430.93 300 431.02C298.18 431.16 296.61 431.98 295.03 432.75C294.09 433.2 293.25 433.74 292.82 434.82C292.49 435.63 291.8 436.25 290.79 435.97C289.82 435.7 289.44 435.12 289.35 433.98C289.1 430.45 288 427.06 287.19 423.63C286.45 420.5 285.33 417.47 284.2 414.45C283.1 411.49 281.2 409.03 279.57 406.38C278.27 404.27 276.51 403.13 274.18 402.45C270.7 401.42 268 399.1 265.51 396.54C265.27 396.29 265.12 395.9 264.54 395.97C264.43 396.97 264.99 397.83 265.23 398.74C266.1 402.17 267 405.59 268.82 408.68C271.24 412.81 273.89 416.75 277.5 419.96C277.68 420.12 277.83 420.39 278.04 420.44C280.08 420.95 280.26 422.69 280.58 424.29C281.26 427.76 281.9 431.25 282.53 434.73C283.06 437.65 282.65 437.96 280.02 439.32C277.9 440.41 275.72 440.94 273.44 441.35C271.34 441.73 269.52 442.97 267.4 443.34C265.49 443.67 263.63 443.73 261.87 442.82C261.1 442.42 260.5 442.43 259.97 443.19C259.44 443.94 258.69 444.32 257.78 444.3C256.68 444.28 256.33 443.71 256.87 442.78C257.36 441.94 257.9 441.1 258.53 440.37C259.64 439.1 260.23 437.6 260.73 436.02C261.15 434.69 261.53 433.33 262.1 432.04C262.72 430.64 262.78 429.07 263.05 427.59C263.77 423.51 264.21 419.37 263.9 415.23C263.46 409.37 262.73 403.56 260.1 398.18C259.78 397.52 259.5 396.83 259.3 396.13C258.92 394.83 258.15 393.91 257.01 393.17C254.82 391.76 253.67 389.49 252.49 387.28C251.8 385.99 251.3 384.6 250.59 383.31C249.6 381.49 249.27 379.52 249.01 377.51C248.76 375.6 249.49 373.89 250.24 372.22C250.92 370.7 252.03 370.42 253.33 371.53C255 372.96 256.65 374.41 258.48 375.61C260.82 377.15 263.13 378.77 265.84 379.63C266.79 379.93 267.56 380.56 268.46 380.9C271.26 381.96 274.15 382.58 277.14 382.95C281.75 383.52 286.26 382.47 290.83 382.44C292.19 382.44 293.57 381.88 294.9 381.44C295.7 381.17 296.31 381.2 296.91 381.78C297.44 382.29 298.14 382.62 298.5 383.28C299.88 385.79 301.96 387.88 303.05 390.56C304.05 393.01 305.77 395.02 307.07 397.29C308.44 399.68 309 402.29 309.83 404.83C310.57 407.09 311.23 409.38 311.84 411.68C312.39 413.74 312.81 415.83 313.33 417.9C313.84 419.97 314.7 421.96 314.78 424.13C314.78 424.37 314.78 424.61 314.78 425.04L314.79 425.07Z" fill="#FFAA85"/>
<path d="M252.66 134.25C253.54 134.45 253.83 133.89 254.09 133.33C254.51 132.45 254.9 131.56 255.29 130.66C255.61 129.93 256.02 129.42 256.95 129.61C258.56 129.93 258.74 129.82 259.31 128.31C259.59 127.57 259.81 126.8 260.33 126.17C260.52 125.94 260.7 125.68 261.06 125.73C261.49 125.89 261.44 126.31 261.56 126.64C261.66 126.94 261.81 127.2 262.17 127.35C263.05 127.39 263.26 126.55 263.69 126.01C264.04 125.57 264.37 125.09 265.01 125.19C265.75 125.31 266 125.96 266.02 126.55C266.14 129.82 266.85 133.11 265.54 136.32C264.88 137.95 265.34 138.52 267.33 138.62C268.31 139.81 267.2 141.51 268.17 142.77C269.56 142.67 269.97 140.81 271.44 141.03C272.22 141.32 271.89 142.29 272.54 142.7C272.68 142.69 272.86 142.7 273.02 142.64C274.62 142.16 275.26 142.58 275.39 144.27C275.45 145 275.43 145.73 275.5 146.47C275.54 146.89 275.6 147.33 275.99 147.61C276.1 147.57 276.27 147.57 276.31 147.5C276.64 146.94 276.52 146.12 277.24 145.79C278 145.44 278.47 146.09 279.07 146.35C279.96 146.74 280.54 146.26 280.74 145.47C280.97 144.58 281.34 143.74 281.65 142.88C282.23 141.31 282.69 141.24 283.91 142.46C284.09 142.64 284.26 142.8 284.58 142.83C285.09 142.85 285.32 142.34 285.7 142.06C286.75 141.26 287.43 141.52 287.47 142.87C287.52 144.75 287.79 146.66 287.08 148.5C287.02 148.66 287.08 148.85 287.08 149.11C288.05 149.62 288.38 149.03 288.52 148.22C288.63 147.62 288.6 147 288.7 146.4C288.79 145.9 289.09 145.49 289.63 145.37C290.23 145.24 290.57 145.6 290.72 146.11C290.93 146.82 291.4 147.16 292.07 147.46C293.57 148.15 294.82 150.67 294.59 152.33C294.46 153.29 294.32 154.25 294.56 155.13C295.02 155.46 295.37 155.21 295.71 155.17C296.48 155.09 296.82 155.53 296.95 156.21C296.98 156.39 297.03 156.59 296.98 156.76C296.27 159.62 297.22 162.47 297.05 165.32C297 166.19 296.88 166.98 296.32 167.72C294.63 169.95 291.94 169.86 290.48 167.45C290.16 166.92 289.82 166.43 289.44 165.95C288.34 164.55 287.82 163.07 288.95 161.42C289.09 161.22 289.17 160.98 289.22 160.74C289.33 160.18 289.36 159.61 288.75 159.3C288.24 159.04 287.8 159.26 287.44 159.64C287.02 160.09 286.47 160.38 286.02 160.78C283.98 162.56 280.48 160.85 280.25 157.96C280.13 156.38 280.19 154.95 281.33 153.69C281.8 153.17 282.73 152.4 281.75 151.71C280.95 151.15 280.21 151.99 279.82 152.63C278.74 154.34 277.35 155.81 276.21 157.47C275.87 157.98 275.5 158.47 275.14 158.96C274.39 159.97 273.4 160.31 272.23 159.87C269.49 158.83 266.78 157.73 264.19 156.35C263.51 155.99 263.15 155.37 262.88 154.65C262.35 153.21 261.44 152.04 260.48 150.82C259.08 149.05 257.79 147.13 256.92 145C256.62 144.28 256.89 143.68 257.36 143.15C258.22 142.19 258.64 141.23 257.62 140.09C257.18 139.6 257.46 139.07 257.7 138.55C257.91 138.08 258.41 137.7 258.24 137.1C257.57 136.74 257.27 137.25 256.97 137.58C255.69 138.98 254.44 140.4 253.21 141.83C252.89 142.2 252.6 142.59 252.19 142.87C251.51 143.33 250.81 143.32 250.55 142.49C250.03 140.84 248.28 139.94 248.05 138.08C247.96 137.33 247.14 137.43 246.56 137.81C245.35 138.61 244.69 140.68 245.16 142.15C245.4 142.9 245.7 143.64 245.92 144.4C246.15 145.21 246.1 146 245.4 146.58C244.69 147.16 244.04 146.79 243.38 146.41C241.67 145.45 240.37 143.93 238.67 142.94C238.35 142.76 238.14 142.41 238.09 142.04C237.96 141.14 237.39 140.56 236.83 139.89C235.93 138.81 235.64 137.41 235.41 136.01C235.11 134.09 234.18 132.51 232.5 131.47C231.13 130.62 230.88 130.04 231.41 128.44C231.87 127.04 231.44 125.41 230.46 124.85C229.32 124.2 227.53 124.63 226.55 125.82C225.77 126.75 225 127.68 224.4 128.77C223.62 130.2 223.19 130.13 221.76 129.53C217.82 127.88 214.72 125 211.33 122.55C209.59 121.3 208.43 119.43 206.84 117.99C205.86 117.1 205.87 115.78 206.77 114.85C208.59 112.96 210.47 111.12 212.42 109.36C213.44 108.44 214.39 108.9 214.57 110.29C214.67 111.02 214.75 111.81 214.41 112.46C213.67 113.86 213.9 115.46 213.22 116.85C214.2 117.75 215.74 118.27 214.66 120.07C216.34 120.64 217.68 121.49 218.79 122.74C219.42 123.44 220.4 123.22 221.19 122.8C221.78 122.49 222.28 122.02 222.81 121.62C223.2 121.32 223.62 120.87 224.09 121.02C225.51 121.47 226.22 120.55 227 119.68C227.2 119.45 227.43 119.24 227.64 119.02C228.57 118.08 229.57 117.92 230.65 118.54C231.61 118.39 231.93 117.22 232.91 117.11C233.02 117.1 233.14 117.17 233.26 117.21C233.99 118.06 232.82 118.78 233.06 119.58C233.39 119.88 233.77 119.82 234.13 119.82C235.21 119.81 235.81 120.39 236.15 121.36C236.69 122.91 237.66 124.3 237.82 126C237.83 126.17 237.99 126.32 238.28 126.33C238.36 126.26 238.58 126.16 238.6 126.04C238.93 123.95 240.33 123.49 242.17 123.56C243.35 123.6 243.72 123.82 243.83 125C243.9 125.79 243.83 126.59 243.87 127.38C243.89 127.97 243.73 128.62 244.26 129.05C244.71 129.27 245.07 129.1 245.28 128.8C245.83 127.99 246.56 127.57 247.53 127.39C248.22 127.27 248.58 126.61 249.02 126.1C249.98 124.97 250.38 125.01 250.8 126.38C251.01 127.04 251.28 127.46 251.96 127.61C252.97 127.83 253.28 128.62 253.36 129.52C253.46 130.63 253.39 131.72 252.93 132.76C252.74 133.19 252.37 133.59 252.66 134.25Z" fill="#006739"/>
<path d="M122.85 191.93C122.76 191.32 123.11 190.95 123.51 190.69C126.31 188.81 129.28 187.35 132.6 186.57C136.49 185.65 140.47 185.65 144.4 185.27C149.04 184.82 153.61 185.94 158.06 187.25C159.82 187.77 161.67 187.68 163.39 188.43C165.85 189.49 168.51 189.96 171.07 190.72C173.11 191.33 175.19 191.81 177.17 192.56C181.71 194.28 186.43 195.51 190.83 197.61C191.86 198.1 193 197.89 194.04 198.3C197.32 199.6 200.61 200.88 203.94 202.02C207.17 203.13 210.32 204.42 213.52 205.59C217.18 206.93 220.74 208.51 224.28 210.15C228.82 212.25 233.35 214.37 238 216.2C244.76 218.86 251.35 221.86 257.87 225.06C262.24 227.2 266.58 229.41 271.28 230.84C273.64 231.56 275.76 233.04 278.06 234.04C285.65 237.37 293.09 241.04 300.7 244.36C303.98 245.79 307.08 247.7 310.47 248.9C313.53 249.99 316.42 251.4 319.35 252.75C324 254.89 328.78 256.78 333.34 259.1C338.01 261.48 342.57 264.1 346.43 267.77C348.11 269.37 349.92 270.83 351.25 272.76C351.81 273.58 352.19 274.47 352.61 275.35C352.8 275.75 352.82 276.2 352.46 276.54C352.01 276.97 351.55 276.75 351.13 276.46C350.14 275.75 349.05 275.13 348.2 274.28C347.18 273.26 346.05 272.5 344.71 272.02C342.73 271.32 341.04 270.05 339.34 268.91C335.98 266.65 332.28 265.09 328.74 263.19C324.49 260.91 319.98 259.18 315.81 256.77C312.8 255.03 309.68 253.49 306.57 251.96C302.54 249.98 298.28 248.45 294.09 246.81C291.08 245.63 288.13 244.33 285.18 243.01C278.34 239.94 271.59 236.69 264.74 233.63C261.03 231.97 257.28 230.36 253.75 228.27C252.47 227.51 251.02 226.92 249.61 226.39C247.26 225.51 245.15 224.11 242.79 223.31C239.27 222.12 236.02 220.28 232.49 219.14C231.74 218.9 231.08 218.42 230.34 218.13C225.51 216.27 220.74 214.23 215.82 212.65C211.76 211.36 207.87 209.59 203.78 208.42C200.32 207.43 197.05 205.9 193.64 204.8C190.16 203.68 186.7 202.54 183.28 201.25C179.7 199.9 176.18 198.31 172.48 197.33C169.08 196.43 165.78 195.2 162.38 194.31C160.15 193.73 158.1 192.6 155.82 192.13C151.7 191.29 147.68 189.98 143.42 189.96C139.08 189.96 134.76 189.96 130.45 190.63C128.5 190.94 126.67 191.59 124.82 192.18C124.1 192.41 123.41 192.65 122.86 191.91L122.85 191.93Z" fill="#D04417"/>
<path d="M240.87 444.13C240.2 444.22 239.65 444.85 238.86 444.77C238.24 444.71 238.06 445.24 237.83 445.66C237.28 446.65 236.42 447.03 235.37 446.81C233.43 446.41 231.63 447.05 229.82 447.52C228.51 447.86 227.18 448.02 225.84 448C223.99 447.98 223.11 447.23 222.91 445.66C222.7 444.04 223.63 442.65 225.21 442.2C226.42 441.86 227.63 441.49 228.78 441.15C228.96 440.48 228.61 440.09 228.38 439.68C227.09 437.31 226.16 434.79 225.67 432.17C225.29 430.14 225.24 428.05 224.48 426.09C224.39 425.87 224.4 425.6 223.92 425.44C222.92 427.38 221.88 429.35 220.87 431.33C218.85 435.3 216.85 439.27 214.84 443.24C214.67 443.57 214.5 443.89 214.32 444.21C213.52 445.58 212.33 446.24 211.41 445.82C209.85 445.11 209 443.4 209.58 441.88C210.14 440.4 210.74 438.91 211.53 437.55C212.66 435.59 213.38 433.44 214.53 431.5C216.96 427.42 218.48 422.86 221.21 418.91C222.44 417.13 223.1 414.96 224.03 412.97C224.93 411.04 225.51 408.97 226.62 407.13C227.16 406.23 227.81 405.42 228.5 404.66C229.72 403.31 231.77 403.49 232.71 405.05C233.27 405.98 233.88 406.91 234.16 407.99C234.98 411.09 236.85 413.71 238.19 416.57C240.09 420.6 241.95 424.64 243.2 428.93C243.69 430.63 244.3 432.27 244.96 433.92C246.03 436.63 246.81 439.46 247.42 442.31C247.75 443.86 246.64 445.75 245.34 446.24C244 446.75 242.7 446.24 241.6 444.75C241.42 444.51 241.27 444.23 240.9 444.11L240.87 444.13Z" fill="#006739"/>
<path d="M211.96 391C210.31 390.78 208.6 390.32 206.91 389.8C203 388.57 199.42 386.58 195.73 384.84C194.48 384.25 193.61 383.37 193.56 381.92C193.46 379.18 192.72 376.52 192.43 373.8C192.17 371.47 191.56 369.14 191.1 366.82C190.81 365.33 190.4 363.85 190.13 362.35C189.89 361.02 191.06 359.74 192.77 359.43C195.27 358.98 197.79 359.18 200.21 359.71C202.98 360.32 205.77 361 208.26 362.57C209.26 363.2 210.53 363.42 211.7 363.77C214.64 364.66 217.4 365.91 219.7 368C221.68 369.8 222.63 371.94 221.96 374.71C221.25 377.61 220.44 380.5 219.49 383.33C218.77 385.47 217.32 387.29 216.07 389.15C215.19 390.46 213.68 390.98 211.95 391H211.96Z" fill="#FF6A00"/>
<path d="M83.5902 319.85C86.4502 321.01 89.2802 321.5 91.9902 322.39C94.4202 323.19 96.8202 323.99 99.1402 325.12C103.07 327.05 106.92 329.16 111.11 330.55C113.3 331.28 115.25 332.62 117.47 333.32C119.68 334.01 121.74 335.1 124.02 335.6C124.66 335.74 125.28 336.07 125.86 336.4C128.06 337.63 128.63 341.01 127 342.95C126.52 343.52 125.9 343.64 125.21 343.71C123.43 343.89 121.81 343.38 120.28 342.61C114.65 339.78 108.69 337.84 102.71 335.93C101.78 335.63 100.83 335.36 99.9702 334.91C95.8502 332.74 91.3602 331.54 87.0202 329.95C85.4802 329.38 84.0002 328.65 82.5102 327.94C81.6202 327.51 81.0002 327.56 80.6802 328.61C80.3102 329.8 79.4602 330.72 78.8602 331.78C78.1802 332.98 76.3102 333.62 74.8302 333.33C74.7102 333.3 74.5902 333.28 74.4802 333.24C69.8102 331.56 69.6102 330.28 70.9402 326.8C72.4102 322.93 72.8702 318.72 74.9602 315.08C75.8402 313.54 76.6102 311.94 77.9402 310.71C78.2102 310.46 78.4502 310.16 78.7602 309.98C80.5802 308.93 82.0702 309.99 83.5102 310.85C84.7502 311.59 85.7202 312.64 85.3602 314.3C85.1602 315.19 85.0802 316.11 84.5602 316.91C84.0202 317.75 84.0002 318.75 83.6102 319.85H83.6002H83.5902Z" fill="#FF6A00"/>
<path d="M292.13 224.68C291.2 225.4 290.4 225.15 289.6 224.81C285.39 223.02 281.31 220.95 277.28 218.79C276.03 218.12 274.71 217.66 273.43 217.11C270.23 215.71 267.51 213.51 264.52 211.78C261.57 210.08 258.66 208.28 255.61 206.77C254.32 206.13 252.83 205.83 251.4 205.54C247.39 204.73 243.43 203.81 239.73 202.01C239.4 201.85 239.03 201.75 238.75 201.53C235.79 199.3 232.37 197.95 228.99 196.6C226.87 195.75 225.01 194.51 223.04 193.44C220.95 192.31 218.75 191.38 216.8 190.02C214.6 188.48 212.14 187.36 210.03 185.68C209.33 185.13 208.65 184.57 209.04 183.56C209.43 182.57 210.33 182.59 211.21 182.58C212.5 182.58 213.59 183.2 214.63 183.78C219.24 186.3 224.04 188.42 228.8 190.61C232.54 192.34 236.33 194.1 240.32 195.23C243.83 196.22 247.3 197.39 250.92 197.88C253.77 198.26 256.57 198.81 259.26 199.8C262.51 201.01 265.81 202.13 268.54 204.43C269.05 204.86 269.67 205.15 270.27 205.45C272.04 206.33 273.53 207.57 274.96 208.92C276.73 210.59 278.55 212.18 279.99 214.19C280.75 215.25 281.99 215.97 283.02 216.83C285.5 218.9 287.71 221.29 290.6 222.85C291.29 223.22 291.93 223.71 292.14 224.71L292.13 224.68Z" fill="#AEFFE4"/>
<path d="M82.57 209.43C82.86 207.76 82.48 205.98 81.75 204.27C81.54 203.77 81.33 203.26 80.84 202.93C79.8 202.23 78.73 202.55 78.71 203.77C78.66 206.4 77.55 208.76 77.11 211.27C76.79 213.12 76.5 215 76.47 216.87C76.4 221.52 74.91 225.72 72.82 229.77C72.45 230.48 72.1 231.18 71.97 231.98C71.86 232.59 71.54 232.96 70.86 232.96C70.18 232.96 69.68 232.68 69.44 232.03C69.18 231.31 69.35 230.59 69.44 229.86C69.77 227.42 70.84 225.18 71.38 222.8C72.73 216.91 73.82 210.98 74.84 205.02C75.53 200.98 75.89 196.92 76.46 192.87C76.77 190.7 76.4 188.49 76.65 186.29C76.8 185 76.96 183.74 77.56 182.58C78.02 181.67 78.71 180.95 79.81 180.95C81 180.95 82.06 181.23 82.72 182.46C83.7 184.29 84.39 186.23 85.15 188.14C85.5 189.01 85.95 189.74 86.7 190.35C88.66 191.93 90.1 194 91.62 195.95C93.35 198.17 95.03 200.42 97.01 202.41C98.31 203.72 99.26 205.29 100.4 206.71C100.84 207.25 100.92 207.94 100.93 208.62C100.96 209.85 100.71 211.02 99.46 211.53C98.25 212.02 97.2 211.47 96.35 210.55C94.89 208.97 93.73 207.18 92.73 205.29C92.01 203.94 91.18 202.66 90.39 201.35C89.93 200.57 89.29 200.24 88.39 200.44C88.09 200.51 87.79 200.57 87.49 200.61C84.86 200.92 84.85 201.07 84.82 203.64C84.8 205.95 85.91 207.7 87.09 209.5C88.73 212 90.38 214.47 92.7 216.43C93.63 217.22 93.61 218.25 93.32 219.29C93.05 220.27 92.35 220.8 91.31 220.89C90.95 220.92 90.6 221.06 90.25 221.17C88.52 221.73 86.46 221.04 85.78 219.38C84.96 217.41 84.02 215.51 83.09 213.59C82.47 212.3 82.52 210.99 82.54 209.44L82.57 209.43Z" fill="#006739"/>
<path d="M102.56 307.35C102.24 306.28 103.1 305.22 104.01 304.21C105.29 302.76 106.06 301.05 106.69 299.26C106.83 298.86 106.93 298.44 106.98 298.01C107.15 296.41 106.88 295.54 106.04 295.35C104.03 294.89 103.25 294.86 102.28 296.2C100.74 298.31 99.9702 300.74 99.1702 303.16C98.6002 304.89 97.5702 305.62 95.9202 305.3C94.9502 305.11 94.5502 304.59 94.7202 303.63C94.8402 302.96 95.0502 302.3 95.4802 301.78C96.3202 300.77 96.7202 299.57 97.1802 298.37C98.4802 294.95 99.9402 291.59 101.63 288.35C102.76 286.18 103.73 283.94 104.81 281.75C105.28 280.8 105.79 279.98 106.95 280.11C108.26 280.26 109.71 280.22 110.37 281.75C110.59 282.25 110.86 282.76 110.93 283.29C111.56 287.71 113.14 291.91 113.72 296.34C114.18 299.84 114.32 303.4 115.38 306.81C116.25 309.59 116.99 312.42 118.28 315.06C118.8 316.12 119.21 317.17 118.74 318.39C118.36 319.38 117.86 320.17 116.69 320.14C115.57 320.11 114.71 319.65 114.24 318.55C113.41 316.61 113.22 314.53 112.97 312.48C112.77 310.8 112.21 309.3 111.15 307.97C110.59 307.26 109.98 306.92 109.1 307.15C108.26 307.37 108.01 308.03 107.89 308.8C107.8 309.41 107.84 310.01 107.92 310.62C108.36 313.82 108.63 317.06 110.17 320C110.36 320.37 110.47 320.8 110.59 321.21C110.92 322.35 110.59 323.43 109.84 323.8C108.98 324.22 107.9 323.84 107.16 322.84C106.14 321.45 105.48 319.87 104.76 318.32C103.2 314.99 102.92 311.4 102.57 307.35H102.56Z" fill="#006739"/>
<path d="M245.65 339.4C246.23 341 247.28 342.28 248.16 343.66C248.42 344.07 248.73 344.45 248.97 344.88C250.6 347.74 250.62 347.75 249.64 350.82C249.31 351.87 248.89 352.88 248.63 353.95C248.43 354.75 247.99 355.46 247.09 355.57C246.24 355.68 245.74 355 245.36 354.4C243.26 351.11 240.58 348.23 238.56 344.88C238.34 344.52 238.1 344.15 237.47 343.88C236.16 344.69 234.66 345.5 233.3 346.49C232.1 347.37 230.82 347.46 229.47 347.29C228.3 347.15 227.06 345.74 226.78 344.37C226.53 343.15 227.01 342.44 228.32 341.56C230.8 339.9 233.17 338.08 235.68 336.48C238.71 334.54 241.83 332.75 244.93 330.93C246.23 330.16 247.7 330.02 249.18 330.06C250.31 330.09 250.97 330.68 251.3 331.73C252.05 334.05 251.51 335.52 249.38 336.85C248.19 337.59 247.01 338.33 245.82 339.07C245.78 339.1 245.76 339.17 245.63 339.4H245.65Z" fill="#FF6A00"/>
<path d="M217.27 298.52C219.97 298.58 222.32 299.81 224.73 300.79C230.43 303.11 235.88 306.02 241.56 308.37C243.91 309.34 246.42 309.94 248.69 311.14C250.04 311.85 251.39 312.55 252.72 313.3C254.15 314.11 254.66 316.11 253.94 317.83C253.4 319.12 251.63 319.7 250.09 319.47C246.97 319.01 244.57 316.95 241.72 315.92C238.28 314.67 235.06 312.95 231.71 311.53C227.72 309.83 223.91 307.82 220.01 305.95C218.43 305.19 216.68 304.82 215.27 303.64C213.99 302.56 213.53 301.78 213.92 300.41C214.28 299.13 215.21 298.54 216.89 298.54H217.26L217.27 298.52Z" fill="#D04417"/>
<path d="M115.96 355.93C114.66 356.52 114.18 357.66 113.52 358.56C112.46 360 111.27 360.44 109.58 359.89C108.11 359.41 107.67 358.94 107.75 357.4C107.84 355.68 108.7 354.26 109.59 352.87C110.61 351.28 111.56 349.73 111.91 347.78C112.53 344.35 115.61 343.43 118.19 345.82C120.74 348.19 122.12 351.12 122.47 354.63C122.69 356.82 122.76 358.98 122.76 361.18C122.76 364.09 121.67 366.54 120.27 368.91C118.91 371.22 117.7 373.62 116.04 375.75C114.73 377.42 113.76 377.81 112.05 376.88C110.8 376.2 110.13 374.35 110.8 372.86C111.63 371.03 112.65 369.28 113.6 367.51C114.84 365.21 116.28 363 116.82 360.4C117.14 358.86 117.05 357.38 115.95 355.93H115.96Z" fill="#006739"/>
<path d="M146.06 140.42C147.24 140.45 147.9 141.23 147.8 142.51C147.68 144.04 146.8 145.22 145.59 145.93C142.8 147.57 140.21 149.54 137.26 150.89C136.75 151.12 136.27 151.38 135.7 151.38C132.88 151.34 130.45 152.84 127.78 153.43C126.75 153.66 126.01 154.46 125.34 155.29C124.16 156.77 122.9 158.19 121.73 159.67C120.73 160.94 119.43 161.85 118.16 162.79C117.08 163.59 116.22 163.52 115.33 162.77C114.39 161.98 114.36 161.5 115.01 160.02C115.93 157.9 117.75 156.61 119.43 155.22C121.26 153.7 123.28 152.42 125.08 150.87C127.91 148.44 131.17 146.86 134.61 145.54C134.89 145.43 135.21 145.36 135.44 145.18C138.25 143.04 141.74 142.3 144.81 140.71C145.2 140.51 145.61 140.41 146.05 140.42H146.06Z" fill="#AEFFE4"/>
<path d="M85.9702 239.55C85.9702 240.01 86.0002 240.74 85.9702 241.47C85.8902 242.81 85.4402 244.02 84.3402 244.82C83.2402 245.61 82.4002 246.67 81.3602 247.5C80.5002 248.18 80.0902 248.93 80.3302 250.03C80.5002 250.77 80.3302 251.49 80.0202 252.17C79.6202 253.04 79.0902 253.77 78.0002 253.76C76.9902 253.76 76.0102 253.05 75.6902 251.98C75.1402 250.15 74.9502 248.28 75.2002 246.36C75.5702 243.46 76.0302 240.57 76.6602 237.71C77.1602 235.46 78.6102 233.81 79.7202 231.94C80.1302 231.25 80.9702 231.21 81.7102 231.28C83.3002 231.41 84.9702 232.81 85.4502 234.38C85.9302 235.97 86.0902 237.61 85.9802 239.55H85.9702Z" fill="#006739"/>
<path d="M341.52 416.42C341.4 418.77 341.29 418.9 338.89 419.12C337.41 419.25 336.24 420.36 334.72 420.39C334.52 420.39 334.29 420.79 334.14 421.04C333.95 421.35 333.84 421.71 333.66 422.03C333.2 422.84 332.71 423.68 331.56 423.38C330.55 423.12 329.89 421.99 330.01 420.8C330.17 419.16 330.37 417.52 330.54 415.89C330.62 415.16 330.72 414.43 330.75 413.71C330.81 412.47 331.1 411.29 331.57 410.16C332.59 407.68 335.08 407.25 336.8 409.31C338.12 410.89 339.37 412.53 340.75 414.07C341.32 414.7 341.77 415.46 341.52 416.43V416.42Z" fill="#006739"/>
<path d="M93.6002 280.05C94.4402 277.85 94.7402 274.87 97.4802 273.22C99.1802 272.2 100.99 273.04 101.34 274.97C101.49 275.77 101.37 276.56 101.16 277.32C100.69 279.02 100.1 280.69 99.3402 282.28C98.5002 284.04 97.8402 284.34 96.2102 283.91C94.3502 283.42 93.4402 282.25 93.5902 280.05H93.6002Z" fill="#006739"/>
<path d="M116.65 293.2C116.74 291.78 117.29 289.96 118.15 288.29C119.28 286.1 120.64 286.27 122.46 286.91C123.49 287.27 123.7 288.18 123.52 289.17C123.16 291.15 122.58 293.07 121.79 294.92C121.03 296.71 120.2 297.18 118.77 296.84C117.24 296.47 116.6 295.53 116.66 293.2H116.65Z" fill="#006739"/>
<path d="M115.06 406.06C113.8 406.08 112.92 405.42 112.06 404.72C111.67 404.41 111.67 403.92 111.82 403.54C112.69 401.41 113.38 399.18 115.33 397.66C116.8 396.51 118.09 396.88 118.58 398.72C119.29 401.36 118.11 403.46 116.62 405.46C116.24 405.98 115.62 406.13 115.05 406.06H115.06Z" fill="#006739"/>
<path d="M122.82 377.27C125.26 377.34 126.36 378.99 125.38 381.19C124.88 382.31 124.21 383.33 123.22 384.11C121.98 385.09 120.61 384.8 119.9 383.39C119.14 381.89 120.27 378.28 121.75 377.45C122.09 377.26 122.45 377.27 122.82 377.28V377.27Z" fill="#006739"/>
<path d="M88.9101 270C90.1001 269.79 90.5601 270.34 90.8401 271.29C91.2201 272.6 91.0201 273.79 90.4801 275C90.0401 275.98 89.3501 276.33 88.3101 276.23C86.2301 276.03 85.4401 275.29 85.4701 273.45C85.4901 271.57 86.7501 270.15 88.5001 270.02C88.6801 270.01 88.8601 270 88.9201 270H88.9101Z" fill="#006739"/>
<path d="M157.74 154.7C156.9 154.68 156.1 154.3 155.72 153.33C155.33 152.32 155.84 151.58 156.6 150.94C157.56 150.13 158.74 149.75 159.89 149.4C161.25 148.99 162.44 150.36 162.02 151.71C161.63 152.95 159.2 154.71 157.74 154.69V154.7Z" fill="#AEFFE4"/>
</g>
<mask id="mask1_1323_9557" style="mask-type:luminance" maskUnits="userSpaceOnUse" x="344" y="257" width="108" height="143">
<path d="M451.07 257H344.07V400H451.07V257Z" fill="white"/>
</mask>
<g mask="url(#mask1_1323_9557)">
<path d="M373.49 396.22C377.96 392.48 381.3 387.53 384.98 383C385.12 382.83 385.26 382.67 385.4 382.5C384.87 382.41 384.34 382.33 383.81 382.24C383.05 382.11 382.42 381.68 382.56 380.78C382.67 380.01 383.31 379.82 383.99 379.76C384.23 379.74 384.47 379.74 384.71 379.73C385.77 379.65 386.83 379.62 387.89 379.61C392.17 374.81 396.8 370.33 400.79 365.26C404.33 360.76 407.83 356.14 411.21 351.41C406.53 351.53 401.85 351.48 397.21 350.4C395.52 350.01 393.74 349.9 391.97 349.83C387.1 349.64 382.24 350 377.37 350.03C376.05 350.03 374.62 350.44 373.32 349.73C373.53 349.12 373.92 348.91 374.3 348.88C376.91 348.66 379.5 347.86 382.15 348.46C383.26 348.71 384.38 348.7 385.49 348.49C387 348.22 388.51 348.18 390.03 348.19C393.3 348.2 396.59 348.54 399.84 348.08C404.6 347.42 409.38 347.25 414.17 347.18C417.67 342.09 420.99 336.88 424.03 331.54C422.15 331.41 420.27 331.27 418.39 331.14C417.27 331.06 416.14 331.09 415.03 331.3C411.14 332.02 407.22 331.82 403.31 331.68C402.14 331.64 401.02 331.3 400.17 330.38C400.88 329.46 401.79 329.26 402.63 329.22C406.3 329.04 409.98 328.85 413.65 329.32C417.21 329.78 420.76 330.27 424.38 329.64C424.64 329.59 424.9 329.55 425.17 329.5C426.43 327.21 427.65 324.9 428.79 322.56C429.41 321.28 430 320 430.57 318.7C429.03 318.57 427.42 318.45 425.6 317.75C426.89 316.93 427.87 316.76 428.9 316.67C429.78 316.6 430.66 316.51 431.54 316.42C433.14 312.54 434.52 308.59 435.75 304.6C435.84 304.3 435.61 304 435.3 304C434.54 304.02 433.78 304.06 433.03 304.13C427.91 304.63 422.83 304.27 417.74 303.85C417.08 303.8 416.36 303.75 416.23 302.97C416.07 301.98 417.1 301.95 417.74 301.77C418.29 301.61 418.85 301.47 419.42 301.46C422.2 301.41 424.97 301.46 427.75 301.44C430.57 301.42 433.38 301.39 436.2 301.36C436.51 301.36 436.78 301.15 436.86 300.86C437.54 298.48 438.17 296.09 438.77 293.69C438.85 293.36 438.61 293.03 438.27 293.01C436.03 292.88 433.79 292.68 431.55 292.61C425.96 292.42 420.38 292.63 414.79 292.83C405.28 293.17 395.77 293.3 386.27 292.6C384.72 292.49 382.21 292.57 380.67 292.76C376.31 293.29 371.95 293.07 367.58 292.97C367.01 292.96 366.24 293.15 366.04 292.26C366.28 291.61 366.87 291.45 367.4 291.44C370.67 291.34 373.91 290.53 377.19 291.09C378.55 291.33 379.88 291.2 381.25 291.06C386.25 290.56 391.31 290.35 396.27 290.97C400.37 291.49 404.52 291.48 408.65 291.24C417.3 290.73 425.97 290.93 434.62 290.43C436.11 290.34 437.6 290.32 439.09 290.33C439.39 290.33 439.65 290.13 439.72 289.83C440.13 288.12 440.53 286.4 440.93 284.68C441.02 284.31 440.69 283.99 440.32 284.06C439.93 284.14 439.51 284.14 439.1 284.11C431.69 283.54 424.28 283.9 416.88 283.93C414.63 283.93 412.44 283.54 410.21 283.4C409.73 283.37 409.25 283.24 409.1 282.27C410.89 281.45 412.83 281.47 414.67 281.41C419.91 281.23 425.14 280.79 430.4 281.67C433.11 282.13 435.97 281.71 438.76 281.7C438.9 281.7 439.04 281.7 439.18 281.7C439.33 281.73 440.33 281.89 441.21 281.18C442.11 280.46 442.16 279.41 442.16 279.27C442.23 278.98 442.44 278.06 442.51 277.77C442.59 277.43 442.67 277.09 442.75 276.75C442.81 276.5 442.63 276.26 442.37 276.24C439.54 276.02 436.71 275.71 433.86 275.9C430.43 276.12 427.01 276.26 423.59 275.81C422.86 275.71 421.95 275.98 421.56 274.91C421.99 274.1 422.75 273.87 423.54 273.77C427.51 273.29 431.51 273.43 435.49 273.42C438.01 273.42 440.52 273.65 443.04 273.85C443.25 273.87 443.44 273.72 443.49 273.52C443.71 272.53 443.93 271.54 444.13 270.55C444.18 270.3 443.99 270.07 443.73 270.07C442 270.1 440.26 270.14 438.54 269.87C436.14 269.51 433.74 269.49 431.36 269.8C429.36 270.06 427.34 270.21 425.38 269.98C420.91 269.44 416.43 269.67 411.96 269.62C406.37 269.55 400.78 269.48 395.2 269.08C394.55 269.03 393.77 269.25 393.2 268.46C394.12 267.67 395.18 267.58 396.17 267.56C400.88 267.46 405.61 267.49 410.32 267.38C414.56 267.28 418.76 268.07 423.01 267.93C425.97 267.83 428.93 267.93 431.89 267.94C435.95 267.96 440.02 268.06 444.07 267.95C444.4 267.95 444.67 267.7 444.73 267.38C444.79 267.04 444.86 266.71 444.92 266.37C445.02 265.8 445.12 265.23 445.21 264.65C445.27 264.26 444.98 263.89 444.59 263.87C443.45 263.81 442.31 263.81 441.18 263.98C437.82 264.46 434.48 264.18 431.14 264.31C423.39 264.6 415.64 264.21 407.89 263.79C405.87 263.68 403.85 263.39 401.39 263.14C402.62 262.23 403.57 262.2 404.5 262.2C406.17 262.2 407.86 262.38 409.52 262.31C414.79 262.1 420.07 262.04 425.34 261.84C432.07 261.59 438.84 261.49 445.58 262.15C445.69 261.27 445.77 260.4 445.81 259.52C445.83 258.89 445.56 257.72 445.76 257.17C438.06 257.22 430.37 257.34 422.67 257.51C415.9 257.66 409.13 257.52 402.37 257.26C391.95 256.86 381.52 257.27 371.09 257.02C363.02 256.82 354.97 257.65 346.92 258.17C345.64 258.25 344.57 258.54 344.19 259.99C343.81 261.41 344.46 262.23 345.59 262.93C347.84 264.31 350.06 265.72 352 267.53C352.61 268.1 353.32 268.17 354.18 268.22C356.9 268.39 359.58 268.01 362.28 267.98C364.84 267.95 367.37 268.51 369.93 268.22C372.23 267.95 374.54 267.74 376.85 267.53C379.18 267.31 381.48 267.66 383.77 267.98C384.4 268.07 385.06 268.2 385.14 269.06C384.65 269.8 383.81 269.88 383.06 270.02C379.84 270.64 376.61 271.11 373.31 271.07C369.63 271.03 365.95 270.97 362.27 271C360.08 271.02 357.89 271.19 355.81 271.28C355.39 272.4 355.95 273.08 356.18 273.81C356.73 275.59 357.17 277.4 356.65 279.21C355.84 282.05 356.51 284.58 358.02 286.94C360.29 290.52 362.07 294.31 363.48 298.28C364.44 300.99 365.23 303.78 365.43 306.63C365.93 313.61 366.28 320.61 365.73 327.61C365.7 328.02 365.76 328.4 366.16 328.84C373.65 328.14 381.15 329.24 388.85 329.86C388.38 330.78 387.84 330.71 387.39 330.76C385.17 331.04 382.95 331.3 380.73 331.58C376.86 332.06 373.01 332.99 369.08 332.13C368.46 331.99 367.82 331.93 367.18 331.84C365.96 331.65 365.18 332.1 364.87 333.34C364.47 334.97 363.99 336.56 363.61 338.19C361.79 346.06 359.39 353.69 354.89 360.52C354.22 361.54 353.58 362.66 353.54 364.04C354.95 364.42 355.42 364.7 357.93 364.19C359.69 363.83 361.35 364.61 362.68 365.82C363.32 366.4 365.37 365.97 365.32 367.6C365.29 368.67 364.48 369.06 363.59 369.29C363.29 369.37 362.95 369.3 362.63 369.32C359.82 369.48 357.05 369.12 354.28 368.69C352.41 368.4 350.58 368.16 349.6 370.38C349.34 370.98 348.61 371.16 348.12 371.55C346.76 372.64 346.68 374.21 347.94 375.44C348.74 376.21 349.55 377.03 350.49 377.6C354.07 379.77 356.94 382.82 360.3 385.25C363.74 387.73 365.34 391.73 368.18 394.73C369.13 395.73 370.11 396.66 371.14 397.52C371.97 397.16 372.74 396.71 373.47 396.18L373.49 396.22ZM372.23 263.36C368.53 263.22 364.9 263.6 361.25 264.12C358.71 264.48 356.15 264.55 353.64 263.84C353.17 263.71 352.71 263.6 352.52 262.99C352.68 262.18 353.4 262.23 354 262.23C359.35 262.26 364.7 262.18 370.06 262.43C374.51 262.64 378.99 262.14 383.46 261.92C385.11 261.84 386.77 261.56 388.63 262.54C382.93 263.8 377.58 263.56 372.24 263.36H372.23ZM389.76 272.94C397.01 272.45 404.28 272.7 411.53 273.24C412.55 273.32 413.59 273.53 414.43 274.44C413.95 275.53 412.84 275.44 412 275.54C410.26 275.75 408.5 275.78 406.74 275.8C399.87 275.86 393.01 276.37 386.13 276.34C380.8 276.31 375.46 276.94 370.13 277.12C367.91 277.2 365.67 276.92 363.44 276.74C362.66 276.68 361.88 276.45 361.13 275.46C370.87 274.58 380.31 273.58 389.77 272.94H389.76ZM362.16 284.76C361.6 284.71 361.06 284.37 361.02 283.72C360.98 282.97 361.52 282.61 362.17 282.39C362.25 282.36 362.33 282.33 362.4 282.33C366.39 282.51 370.35 281.47 374.35 282.03C376.48 282.33 378.62 282.34 380.76 282.45C386.29 282.73 391.71 281.37 397.22 281.75C398.4 281.83 399.61 281.69 400.83 283.08C398.15 284.16 395.68 284.26 393.25 284.32C388.38 284.45 383.5 284.25 378.64 284.51C375.54 284.68 372.43 284.78 369.34 285.25C366.96 285.61 364.57 284.96 362.19 284.76H362.16ZM375.83 302.87C379.72 302.87 383.57 302.13 387.51 302.74C390.67 303.24 393.85 302.52 397.02 302.13C399.6 301.81 402.22 301.58 404.99 302.8C404.12 303.8 403.26 303.96 402.39 303.98C400.16 304.04 397.92 304.17 395.7 304.08C390.42 303.87 385.2 304.36 379.98 305.04C377.75 305.33 375.53 304.88 373.3 304.85C372.83 304.85 372.35 304.66 372.19 303.92C373.16 302.88 374.54 302.87 375.83 302.87ZM388.48 318.72C386.05 318.3 383.69 318.55 381.35 318.96C378.72 319.42 376.09 319.26 373.46 319.26C371.96 319.26 371.96 319.18 371.31 317.57C372.79 316.96 374.36 316.72 375.92 316.72C382.94 316.7 389.97 316.55 396.98 316.86C402.1 317.09 407.16 316.59 412.24 316.34C414.02 316.26 415.86 315.8 417.56 317.12C416.74 318.46 415.49 318.7 414.25 318.96C410.61 319.7 406.92 319.29 403.26 319.35C399.92 319.41 396.57 319.44 393.22 319.27C391.62 319.19 390.02 318.98 388.48 318.72Z" fill="#4177ED"/>
</g>
<path d="M64.8502 297.95C58.4102 293.27 52.1802 288.31 46.1602 283.09C46.2402 283.09 46.3202 283.09 46.4102 283.09C46.7602 283.05 47.0902 282.92 47.3602 282.71C48.8102 284.11 50.2602 285.52 51.7202 286.92C53.1102 288.26 55.2302 286.14 53.8402 284.8L42.2002 273.55C41.2602 272.64 40.3202 271.73 39.3802 270.82C38.4402 269.91 37.5402 268.86 36.4502 268.14C34.8002 267.04 32.6402 267.39 31.6302 269.17C30.5502 271.08 31.2902 273.14 32.6202 274.69C34.1802 276.53 36.1402 278.13 37.9102 279.76C41.6902 283.24 45.5702 286.62 49.5402 289.89C54.0302 293.58 58.6402 297.14 63.3402 300.55C64.9002 301.69 66.4002 299.08 64.8502 297.96V297.95Z" fill="#006739"/>
<path d="M70.81 350.76C67.67 348.3 65 345.5 62.66 342.44C63.16 342.02 63.44 341.31 63.07 340.56C59.61 333.54 56.16 326.51 52.7 319.49C53.76 319.74 55.09 318.56 54.43 317.25C52.94 314.29 51.77 311.2 50.9 308.02C51.3 308.3 51.7 308.56 52.12 308.79C54.54 310.1 56.92 309.15 59.47 309.49C60.28 309.6 61.07 309.3 61.32 308.44C61.52 307.74 61.07 306.7 60.27 306.59C60.15 306.57 60.03 306.57 59.92 306.55C60.43 306.35 60.91 306.06 61.32 305.61C62.38 304.45 62.64 302.9 62.84 301.4C62.95 300.6 62.07 299.9 61.34 299.9C60.44 299.9 59.95 300.59 59.84 301.4C59.75 302.07 59.54 303.24 59.03 303.66C58.41 304.16 56.76 303.95 55.88 303.94C53.46 303.92 51.01 303.69 48.97 302.28C48.86 302.2 48.74 302.15 48.63 302.11C48.4 301.92 48.18 301.73 47.95 301.54C46.09 299.98 44.21 298.43 42.37 296.84C40.69 295.39 39.1 293.87 38.01 291.92C37.45 290.91 36.31 291.05 35.67 291.68C35.09 292.09 34.72 292.85 35.1 293.67L46.88 318.98C50.63 327.02 53.93 335.6 59.13 342.84C61.84 346.62 65.04 349.99 68.7 352.85C70.2 354.03 72.34 351.92 70.82 350.73L70.81 350.76Z" fill="#006739"/>
<path d="M42.89 259.04C42.83 258.84 42.73 258.65 42.57 258.47C37.27 252.32 34.29 244.75 30.92 237.46C30.48 236.51 29.23 236.59 28.56 237.16C28.56 237.16 28.56 237.17 28.54 237.18C27.77 237.15 26.98 237.63 26.98 238.62C26.98 242.77 27.04 247.05 28.7 250.93C28.75 251.04 28.8 251.15 28.85 251.26C29.16 252.54 29.68 253.78 30.54 254.96C32.32 257.41 34.95 258.88 37.43 260.51C40 262.2 41.93 264.99 44.93 265.96C45.89 266.27 46.8 265.45 46.83 264.51C46.91 261.96 44.93 260.41 42.9 259.04H42.89Z" fill="#006739"/>
<path d="M43.7301 229.13C40.3201 222.23 33.7501 216.81 32.4601 208.93C32.2001 207.32 30.0901 207.66 29.6401 208.94C29.2801 209.01 28.9501 209.21 28.7401 209.64C26.1901 214.66 28.9801 219.3 32.1701 223.2C33.7401 225.12 35.4701 226.9 37.3401 228.51C38.9201 229.87 41.3601 232.62 43.4901 230.94C44.0301 230.51 44.0001 229.67 43.7201 229.12L43.7301 229.13Z" fill="#006739"/>
<path d="M386.8 251.16C382.42 250.05 378.1 248.73 373.73 247.65C370.8 246.93 368.38 245.35 365.8 243.99C365.49 243.82 365.22 243.53 364.99 243.25C363.19 241.03 361.44 238.77 359.6 236.58C358.15 234.85 357.09 232.78 355.24 231.42C353.63 230.24 352.47 228.77 351.6 226.99C351.31 226.41 350.75 225.96 350.3 225.46C346.14 220.86 341.53 216.67 337.61 211.86C335.17 208.88 331.97 206.6 329.91 203.29C329.69 202.94 329.31 202.68 328.97 202.43C326.89 200.89 325.26 198.89 323.56 196.99C320.82 193.93 317.86 191.16 314.6 188.66C312.86 187.33 311.27 185.81 309.59 184.4C308.35 183.37 307.72 181.77 306.52 180.82C304.74 179.41 303.09 177.86 300.75 177.07C294.86 175.08 289.73 171.39 283.88 169.2C280.94 168.1 278.37 166.15 275.35 165.06C273.72 164.47 272.03 163.94 270.43 163.17C264.4 160.26 258.57 156.86 252 155.21C248.28 154.28 245.48 151.92 243.05 149.14C241.91 147.83 240.68 146.63 239.25 145.74C236.07 143.76 233.46 141.09 230.52 138.82C227.38 136.41 224.45 133.71 221.18 131.47C219.61 130.4 218.13 129.25 216.66 128.06C214.77 126.53 212.81 125.04 210.83 123.65C209.27 122.55 207.78 121.46 206.49 120.07C205.57 119.09 204.63 118.14 203.42 117.49C200.74 116.04 198.2 114.36 195.84 112.42C194.57 111.38 193.26 110.37 191.94 109.39C188.54 106.88 184.77 104.99 181.2 102.76C179.45 101.66 177.48 101.01 175.3 101.05C173.79 101.08 172.28 100.81 170.79 100.39C165.84 98.98 161.13 97.03 156.57 94.65C154.45 93.55 152.19 92.93 149.71 93C148.1 93.04 146.88 93.55 145.83 94.69C145 95.59 144.17 96.48 143.3 97.33C140.28 100.26 137.23 103.15 134.4 106.28C131.33 109.67 128.49 113.25 125.41 116.63C122.75 119.55 120.47 122.83 118.09 126C116.92 127.57 115.75 129.12 114.54 130.66C112.64 133.05 110.39 135.17 108.65 137.67C105.11 142.76 100.4 146.55 95.1101 149.51C91.0601 151.78 87.6701 154.83 84.0201 157.57C79.7101 160.81 76.0501 164.76 72.5801 168.88C71.1401 170.59 69.6701 172.28 68.4201 174.13C68.0001 171.9 67.2801 169.81 65.7601 167.91C64.7801 166.67 63.9801 165.49 63.2901 164.07C62.6901 162.82 62.0801 161.54 61.0901 160.55C60.6301 160.09 60.0901 159.7 59.5101 159.42C58.7601 159.06 57.9301 159.01 57.1701 158.68C55.9501 158.15 55.2801 156.8 54.6601 155.71C53.1601 153.06 51.3201 150.86 48.7401 149.3C48.6501 148.95 48.4401 148.65 48.0801 148.44C47.4401 148.07 46.3601 148.23 46.0301 148.98C43.9101 153.78 41.9501 158.66 40.1601 163.59C39.4001 164.18 39.1601 165.47 40.2401 166.08C44.6101 168.57 49.0501 171.13 53.7401 172.98C55.9701 173.86 58.2101 174.23 60.5501 174.68C62.5701 175.07 64.2501 176.12 65.8601 177.32C65.8601 177.41 65.8801 177.5 65.8901 177.59C65.9001 177.76 65.9501 177.91 66.0001 178.05C65.2701 179.13 64.4501 180.13 63.4401 180.97C61.8701 182.27 60.9301 183.95 60.1401 185.74C59.4501 187.3 58.8801 188.91 58.2801 190.51C58.1601 190.84 58.0201 191.23 58.5901 191.52C59.3601 191.16 60.0301 190.54 60.7401 189.98C62.0301 188.96 63.2201 187.72 64.6701 186.99C68.0001 185.31 69.9901 182.36 72.1101 179.56C73.8701 177.23 75.4501 174.75 77.4301 172.59C80.6001 169.12 83.6201 165.52 87.0201 162.25C91.2501 158.19 94.8901 153.5 99.5701 149.96C104.8 146 109.57 141.56 114.25 137.01C117.23 134.12 120.05 131.08 122.8 127.96C127.48 122.64 132.06 117.25 136.34 111.61C139.38 107.62 142.51 103.72 145.89 100.02C146.32 99.56 146.6 98.83 147.67 98.86C148.44 101.01 150.43 102.19 152.12 103.66C153.27 104.66 154.4 105.7 155.47 106.78C156.67 108.01 157.86 109.23 159.51 109.86C160.24 110.14 160.79 110.62 160.9 111.43C161.05 112.43 161.55 113.26 162.02 114.11C162.8 115.5 162.65 116.56 161.56 117.75C160.72 118.68 160.14 119.74 159.95 120.98C159.87 121.53 159.67 122.03 159.44 122.53C158.06 125.48 156.16 128.1 154.33 130.77C153.5 131.99 152.8 133.27 152.2 134.61C151.92 135.24 151.89 135.96 152.52 136.45C153.06 136.87 153.67 136.78 154.25 136.49C154.68 136.27 155.11 136.03 155.52 135.76C158.27 133.94 160.97 131.98 163.01 129.39C164.67 127.29 166.74 126.17 169.14 125.37C169.61 125.21 170.07 124.99 170.56 125.13C171.62 125.44 172.57 125.1 173.59 124.82C177.37 123.76 180.4 126.09 180.48 130.05C180.49 130.78 180.47 131.52 180.49 132.25C180.52 133.24 180.17 134.01 179.37 134.63C178.16 135.58 177.24 136.79 176.31 138.02C175.06 139.67 173.82 141.38 172.29 142.74C170.65 144.19 169.52 145.96 168.3 147.7C167.04 149.49 167.22 151.24 168.19 153.03C168.48 153.57 168.75 154.12 169.12 154.6C170.84 156.9 172.54 159.22 174.67 161.17C176.44 162.8 177.87 164.69 179.03 166.79C179.93 168.42 181.1 169.94 182.67 170.85C185.45 172.46 188.41 173.76 191.31 175.15C191.88 175.42 192.55 175.41 192.97 174.82C193.35 174.27 193.05 173.77 192.69 173.33C191.91 172.37 190.99 171.59 189.86 171.06C186.87 169.69 185.53 166.97 184.65 164.11C184.03 162.1 183.31 160.2 182.2 158.44C180.32 155.44 177.81 153.06 175.01 150.97C173.43 149.79 173.38 149.46 174.72 147.95C176.3 146.16 177.91 144.41 179.57 142.69C180.67 141.55 181.52 140.14 182.92 139.33C184.99 138.13 187.06 136.93 189.59 138.25C191.17 139.07 192.01 140.46 192.67 141.97C193.55 143.98 194.21 146.08 195.09 148.1C195.94 150.05 196.85 151.95 197.38 154.05C198.14 157.06 199.13 160.01 199.7 163.08C200.17 165.6 201.48 167.51 203.8 168.83C208.68 171.62 213.62 174.14 219.19 175.35C222.99 176.17 226.75 177.25 230.38 178.7C231.26 179.05 232.25 179.27 232.97 178.43C233.03 177.84 232.69 177.65 232.42 177.41C230.54 175.77 228.29 174.82 225.95 174.1C224.26 173.58 222.9 172.55 221.72 171.35C220.82 170.44 219.97 169.5 218.94 168.71C216.42 166.77 214.09 164.61 211.8 162.41C211.27 161.9 210.81 161.32 210.12 161.02C209.12 160.59 208.56 159.72 207.88 158.93C206.23 157.02 205.4 154.62 203.95 152.59C202.88 151.09 202.95 149.19 202.86 147.28H202.87C205.45 148.38 207.69 149.78 209.74 151.5C211.93 153.34 214.11 155.2 216.39 156.92C217.6 157.83 219.02 158.42 220.23 159.39C224.35 162.66 228.66 165.63 233.71 167.31C234.63 167.62 235.52 168.05 236.51 168.13C239.83 168.4 242.5 170.02 244.93 172.16C246.45 173.5 247.51 175.22 248.78 176.76C251.03 179.48 253.21 182.27 255.5 184.95C256.48 186.09 257.55 187.03 258.81 187.78C261 189.09 263.26 190.23 265.66 191.14C268.1 192.06 270.73 192.52 272.95 194C273.24 194.19 273.64 194.28 274 194.3C275.99 194.42 277.8 195.13 279.59 195.9C281.87 196.89 284.33 197.31 286.61 198.37C288.58 199.28 290.76 199.79 292.77 200.67C295.84 202 298.95 203.29 302.09 204.41C305.71 205.7 309.34 206.87 312.71 208.75C313.13 208.99 313.62 209.11 314.09 209.21C316.95 209.8 319.49 211 321.68 212.94C322.68 213.83 323.62 214.9 324.79 215.45C327.16 216.56 329.01 218.34 331.03 219.9C331.76 220.46 332.49 221.01 333.42 221.19C336.6 221.8 339.3 223.27 341.92 225.2C346.2 228.36 349.63 232.32 353.05 236.28C354.95 238.48 356.67 240.88 358.49 243.18C361.26 246.69 364.16 250.01 368.56 251.57C369.72 251.98 370.81 252.51 372.08 252.48C374.84 252.42 377.49 253.25 380.22 253.43C382.28 253.57 384.32 254.02 386.39 254.21C387.56 254.32 388.47 253.66 388.47 252.87C388.47 251.8 387.69 251.43 386.81 251.2L386.8 251.16ZM231.43 158.39C230.93 158.93 230.28 158.66 229.74 158.36C227.11 156.9 224.76 155.06 222.59 153C221.17 151.66 219.82 150.24 218.31 149C217.01 147.93 216.1 146.58 215.44 145.03C214.23 142.14 212.43 139.75 209.63 138.21C207.72 137.15 206.58 135.24 204.98 133.83C203.74 132.74 202.49 131.68 201.24 130.61C198.02 127.87 195.09 124.88 192.72 121.36C192.09 120.42 191.16 119.82 190.18 119.31C186.67 117.46 184 114.57 180.99 112.09C180.76 111.9 180.54 111.66 180.65 111.29C181.12 110.93 181.56 111.18 182.01 111.37C183.98 112.18 185.97 112.97 187.93 113.82C189.95 114.7 191.83 115.84 193.38 117.43C194.52 118.6 196.06 119.09 197.42 119.9C201.84 122.52 206.18 125.27 209.57 129.2C211.32 131.23 212.83 133.44 213.8 135.98C214.46 137.74 215.68 139.13 217 140.39C218.52 141.84 219.62 143.57 220.73 145.33C222.38 147.96 224.12 150.52 226.65 152.48C228.27 153.73 229.91 155.05 231.1 156.79C231.44 157.28 231.99 157.8 231.43 158.4V158.39ZM329.29 214.16C327.56 213.33 326.49 212.1 325.4 211.03C322.28 207.96 318.5 206.06 314.67 204.15C311.65 202.64 308.38 201.89 305.25 200.69C303.92 200.18 302.65 199.6 301.53 198.78C299.92 197.61 298.16 196.82 296.29 196.23C293.96 195.49 291.69 194.57 289.47 193.56C287.75 192.78 285.8 192.52 284.22 191.45C280.65 189.04 276.55 187.79 272.64 186.15C270.94 185.44 269.35 184.54 267.83 183.58C264.24 181.29 260.87 178.65 257.35 176.27C254.46 174.32 252.2 171.82 249.71 169.51C248.85 168.72 248.22 167.76 247.58 166.78C245.83 164.13 243.73 161.76 241.43 159.56C240.33 158.51 239.16 157.52 238.24 156.3C236.8 154.42 235.02 152.96 232.94 151.87C230.6 150.65 228.94 148.71 227.28 146.75C227.24 146.71 227.21 146.65 227.18 146.6C226.83 146.01 226.42 145.37 227.03 144.77C227.55 144.27 228.2 144.51 228.72 144.86C229.58 145.44 230.48 145.99 231.23 146.7C233.26 148.62 235.42 150.44 237 152.81C238.05 154.39 239.41 155.71 240.98 156.82C241.97 157.52 242.97 158.25 243.79 159.17C246.15 161.83 249.13 163.56 252.27 165.12C253.51 165.74 254.61 166.65 255.73 167.48C258.13 169.26 260.5 171.08 262.89 172.89C263.92 173.67 265.1 174.13 266.3 174.6C268.51 175.47 270.65 176.52 272.79 177.55C279.58 180.84 286.34 184.21 293.11 187.54C296.51 189.21 300.02 190.59 303.4 192.28C304.17 192.66 304.92 193.06 305.61 193.57C305.8 193.71 306.01 193.98 306.21 193.98C308.75 193.98 310.25 196.02 312.24 197.07C314.1 198.05 315.4 199.74 316.86 201.21C320.47 204.84 324.03 208.53 327.91 211.88C328.51 212.39 329.08 212.95 329.33 214.15L329.29 214.16Z" fill="#AEFFE4"/>
</g>
<defs>
<clipPath id="clip0_1323_9557">
<rect width="470" height="470" fill="white" transform="translate(1 1)"/>
</clipPath>
</defs>
</svg>
