<svg  viewBox="0 0 157 109" fill="none" xmlns="http://www.w3.org/2000/svg">
<g clip-path="url(#clip0_1323_9725)">
<path d="M109.21 109H157V76.4199C157 34.2106 121.851 0 78.497 0C35.1431 0 0 34.2106 0 76.414V108.994H109.21V109Z" fill="#55DD4A"/>
<path d="M151.684 103.341H5.31006V77.5955C5.31006 38.3104 38.141 6.35059 78.497 6.35059C118.853 6.35059 151.684 38.3104 151.684 77.5955V103.341ZM6.03829 102.632H150.956V77.5955C150.956 38.7003 118.452 7.05949 78.497 7.05949C38.5416 7.05949 6.03829 38.7003 6.03829 77.5955V102.632Z" fill="black"/>
<path d="M21.0218 86.2734V80.1709H27.9703C29.2022 81.5533 29.9244 83.2723 29.9244 85.3223C29.9244 89.812 26.6716 92.9312 22.2112 92.9312C17.7508 92.9312 14.498 89.747 14.498 85.3223C14.498 84.1644 14.7104 83.1896 15.202 82.3449H18.8128C18.0906 83.2783 17.7265 84.188 17.7265 85.2396C17.7265 87.7857 19.5774 89.5403 22.2294 89.5403C24.8814 89.5403 26.799 87.7621 26.799 85.2396C26.799 84.5366 26.6291 83.8926 26.3318 83.296H23.9104V86.2734H21.0218Z" fill="black"/>
<path d="M30.343 67.5585L30.0214 70.8963C27.1085 70.5714 25.0148 71.9596 24.6143 74.3108L29.6451 74.7657L29.3356 78.0208L14.5283 76.6739L14.9713 72.0187C15.2626 68.9527 17.2956 67.0977 20.1296 67.3577C21.9927 67.529 23.2792 68.5569 23.7404 70.1756C24.9905 68.232 27.3269 67.2395 30.3248 67.5526L30.343 67.5585ZM17.7022 73.6787L21.8288 74.0509L21.9138 73.1471C22.0473 71.7706 21.3251 70.8077 20.0811 70.6954C18.8127 70.5832 17.9207 71.4102 17.7871 72.8103L17.7022 73.6728V73.6787Z" fill="black"/>
<path d="M23.1215 64.4155C18.9402 62.85 17.1136 58.7148 18.746 54.5795C20.3845 50.4324 24.5779 48.5656 28.7592 50.1311C32.9404 51.6966 34.7731 55.8142 33.1346 59.9672C31.5022 64.0965 27.3027 65.981 23.1215 64.4155ZM27.5212 53.2798C25.0816 52.3701 22.6542 53.3862 21.7378 55.7019C20.8336 57.9999 21.932 60.3393 24.3716 61.2491C26.8112 62.1588 29.2386 61.1427 30.1428 58.8447C31.0592 56.529 29.9547 54.1896 27.5151 53.2798H27.5212Z" fill="black"/>
<path d="M33.001 33.1234L35.216 30.5063L44.325 42.5105L42.0432 45.2102L33.1163 40.6378L39.4398 48.2939L37.1458 51.0114L23.2974 44.6135L25.4821 42.026L34.8155 46.7639L28.2068 38.7946L30.2823 36.3371L39.6036 41.0927L32.9949 33.1234H33.001Z" fill="black"/>
<path d="M48.2759 25.4259L45.3751 27.3813L52.1173 36.8689L49.3379 38.7415L42.5957 29.254L39.6949 31.2035L37.9775 28.7873L46.5524 23.0098L48.2698 25.4259H48.2759Z" fill="black"/>
<path d="M57.5426 18.2837L60.6679 17.0845L66.1175 30.5478L62.9922 31.747L60.7468 26.2057L55.9648 28.043L58.2101 33.5842L55.0848 34.7835L49.6353 21.3202L52.7606 20.1209L54.8542 25.296L59.6363 23.4587L57.5426 18.2837Z" fill="black"/>
<path d="M79.9777 17.6871L74.4007 17.9588L74.5524 20.889L78.9036 20.6763L79.0553 23.6301L74.7041 23.8427L74.9954 29.4785L71.6456 29.6439L70.8931 15.1882L79.826 14.7451L79.9777 17.6753V17.6871Z" fill="black"/>
<path d="M82.035 21.7101C82.9271 17.4331 86.8171 14.9932 91.2714 15.8735C95.75 16.7596 98.3292 20.4754 97.4431 24.7525C96.5571 29.0296 92.6854 31.4694 88.2068 30.5891C83.7524 29.7089 81.149 25.9872 82.035 21.7101ZM94.0447 24.0849C94.5666 21.592 93.1284 19.4298 90.6281 18.9395C88.1522 18.4492 85.9614 19.8965 85.4456 22.3895C84.9237 24.8825 86.3619 27.0446 88.8379 27.535C91.3382 28.0253 93.5228 26.5838 94.0447 24.0909V24.0849Z" fill="black"/>
<path d="M106.255 37.4241L103.214 35.8527C104.647 33.3597 104.137 30.9436 102.055 29.6853L99.6885 34.0332L96.7271 32.5032L103.694 19.7192L107.936 21.9109C110.733 23.3524 111.704 25.8926 110.369 28.3383C109.495 29.9452 108.021 30.7073 106.309 30.5005C107.669 32.3732 107.711 34.8544 106.261 37.4241H106.255ZM105.314 23.7127L103.372 27.275L104.197 27.7003C105.454 28.3502 106.637 28.0725 107.226 26.9973C107.82 25.8985 107.377 24.782 106.103 24.1204L105.314 23.7127Z" fill="black"/>
<path d="M121.05 39.3146L125.268 43.8279L120.128 48.3767C118.258 48.1582 116.541 47.3606 115.121 45.8483C112.02 42.5283 112.269 38.0917 115.57 35.1675C118.902 32.2196 123.477 32.4737 126.53 35.7464C127.331 36.603 127.847 37.4596 128.071 38.4107L125.401 40.7737C125.292 39.61 124.934 38.7061 124.2 37.9204C122.44 36.0418 119.861 35.9473 117.894 37.69C115.916 39.4445 115.746 41.9966 117.488 43.8634C117.973 44.3833 118.544 44.7495 119.175 44.9976L120.965 43.4144L118.908 41.2109L121.044 39.3205L121.05 39.3146Z" fill="black"/>
<path d="M126.245 46.9056C130.311 45.0684 134.631 46.6693 136.549 50.6806C138.473 54.7095 136.937 58.9452 132.871 60.7824C128.805 62.6197 124.491 61.0424 122.567 57.0075C120.649 52.9963 122.179 48.7429 126.245 46.9056ZM131.409 57.7223C133.776 56.6472 134.71 54.2428 133.636 51.992C132.568 49.759 130.08 48.9083 127.707 49.9776C125.34 51.0527 124.406 53.4571 125.468 55.6901C126.542 57.9409 129.036 58.7975 131.403 57.7223H131.409Z" fill="black"/>
<path d="M133.503 63.1871C137.957 62.685 141.544 65.5324 142.066 69.9276C142.588 74.3465 139.76 77.891 135.305 78.3872C130.851 78.8835 127.264 76.0656 126.742 71.6467C126.221 67.2515 129.049 63.6834 133.503 63.1871ZM134.911 75.0376C137.508 74.7482 139.171 72.7455 138.88 70.2821C138.588 67.8364 136.501 66.259 133.903 66.5544C131.306 66.8439 129.643 68.8465 129.928 71.2864C130.22 73.7498 132.313 75.3271 134.905 75.0376H134.911Z" fill="black"/>
<path d="M134.783 92.9196C130.341 92.9196 127.349 89.9186 127.349 85.4525V80.7974H142.217V85.4525C142.217 89.9186 139.219 92.9196 134.783 92.9196ZM130.365 85.3107C130.365 87.8332 132.149 89.5523 134.783 89.5523C137.417 89.5523 139.201 87.8332 139.201 85.3107V84.0701H130.365V85.3107Z" fill="black"/>
<path d="M114.441 90.9996L82.3266 82.9476C82.0839 82.8885 82.1385 82.5932 82.3873 82.5932H108.549C108.773 82.5932 109.447 82.5932 109.544 82.1147C109.587 81.902 109.459 81.6302 109.089 81.5298L82.1446 74.1217C81.9079 74.0568 81.9625 73.7673 82.2113 73.7673H103.251C103.931 73.7673 104.125 73.5133 104.173 73.3006C104.216 73.0938 104.101 72.8221 103.749 72.7158L81.8229 65.9339C81.5923 65.863 81.653 65.5795 81.8957 65.5795H97.9471C98.6086 65.5795 98.7603 65.2663 98.7906 65.1305C98.8513 64.8883 98.6936 64.6461 98.4083 64.5456L81.3678 58.3663C81.1493 58.2895 81.2161 58.0178 81.4527 58.0178H92.6432C93.2379 58.0178 93.3775 57.6929 93.4078 57.5984C93.4746 57.3798 93.3289 57.1199 93.0923 57.0076L80.7852 51.4014C80.5849 51.3127 80.6638 51.0587 80.8884 51.0587H87.3393C87.6609 51.0587 87.9279 50.911 88.0189 50.6865C88.1039 50.4857 88.0129 50.2317 87.8126 50.1017L80.1055 45.0094C79.9417 44.9031 80.0327 44.6845 80.239 44.6845H82.0353C82.2477 44.6845 82.4844 44.5722 82.5876 44.4186C82.7029 44.2532 82.7029 44.0465 82.5876 43.8811L79.1952 38.8715C78.8857 38.4107 78.0907 38.4107 77.7812 38.8715L74.3646 43.9165C74.2615 44.0701 74.2615 44.2828 74.3707 44.4305C74.4799 44.5841 74.6923 44.6845 74.9047 44.6845H76.7678C76.9741 44.6845 77.0652 44.9031 76.9013 45.0094L69.1457 50.1312C68.9454 50.2612 68.8544 50.4975 68.9393 50.7043C69.0304 50.9228 69.2731 51.0587 69.5583 51.0587H76.1367C76.3612 51.0587 76.4401 51.3127 76.2398 51.4014L63.8478 57.049C63.6111 57.1612 63.4776 57.4034 63.5444 57.622C63.599 57.8051 63.8114 58.0178 64.2119 58.0178H75.5905C75.8272 58.0178 75.8939 58.2895 75.6755 58.3663L58.5257 64.587C58.2647 64.6815 58.1009 64.9296 58.1616 65.16C58.1798 65.2309 58.2951 65.5854 58.8716 65.5854H75.1778C75.4206 65.5854 75.4813 65.8689 75.2507 65.9398L53.1853 72.763C52.9122 72.8457 52.7302 73.0938 52.7848 73.336C52.8091 73.4365 52.9244 73.7732 53.5373 73.7732H74.8926C75.1414 73.7732 75.196 74.0627 74.9594 74.1277L47.8389 81.583C47.5598 81.6598 47.3656 81.9079 47.4081 82.1501C47.4323 82.286 47.5658 82.5991 48.197 82.5991H74.7409C74.9897 82.5991 75.0443 82.8944 74.8016 82.9535L42.4864 91.0528C42.2012 91.1236 41.9888 91.3718 42.0313 91.6199C42.0616 91.7912 42.2073 92.0807 42.8566 92.0807H113.816C114.108 92.0807 114.793 92.0807 114.884 91.5844C114.921 91.3599 114.787 91.0941 114.405 90.9996H114.441ZM78.6976 40.118L80.9248 43.4085C81.0097 43.5325 80.9005 43.6802 80.7366 43.6802H76.2884C76.1245 43.6802 76.0153 43.5325 76.1003 43.4085L78.3274 40.118C78.4124 39.9939 78.6248 39.9939 78.7037 40.118H78.6976ZM78.6551 45.3107L85.3427 49.7295C85.5065 49.8359 85.4155 50.0544 85.2092 50.0544H71.8341C71.6277 50.0544 71.5367 49.8359 71.7005 49.7295L78.3881 45.3107C78.467 45.2575 78.5762 45.2575 78.6551 45.3107ZM78.6369 51.549L89.882 56.6768C90.0822 56.7654 90.0034 57.0194 89.7788 57.0194H67.2826C67.0581 57.0194 66.9792 56.7654 67.1795 56.6768L78.4245 51.549C78.4913 51.5195 78.5702 51.5195 78.6309 51.549H78.6369ZM78.6369 58.4609L94.5669 64.2384C94.7854 64.3152 94.7186 64.587 94.482 64.587H62.628C62.3914 64.587 62.3246 64.3152 62.5431 64.2384L78.4731 58.4609C78.5277 58.4431 78.5884 58.4431 78.643 58.4609H78.6369ZM78.6369 66.0107L99.355 72.4204C99.5856 72.4913 99.5249 72.7748 99.2822 72.7748H57.846C57.6033 72.7748 57.5426 72.4913 57.7732 72.4204L78.4913 66.0107C78.5398 65.993 78.5944 65.993 78.643 66.0107H78.6369ZM78.6369 74.2104L104.228 81.2462C104.465 81.3112 104.41 81.6007 104.161 81.6007H52.979C52.7302 81.6007 52.6756 81.3112 52.9122 81.2462L78.5034 74.2104C78.5459 74.1986 78.5944 74.1986 78.6369 74.2104ZM47.9846 90.7278L78.5216 83.0717C78.5641 83.0599 78.6066 83.0599 78.6491 83.0717L109.186 90.7278C109.429 90.7869 109.374 91.0823 109.125 91.0823H48.0513C47.8025 91.0823 47.7479 90.7869 47.9906 90.7278H47.9846Z" fill="#122315"/>
<path d="M113.859 92.1692H42.8989C42.1828 92.1692 42.0129 91.8325 41.9825 91.6316C41.934 91.3422 42.1646 91.0409 42.5044 90.9582L74.8196 82.8589C74.8802 82.8471 74.9106 82.8117 74.9045 82.7644C74.9045 82.729 74.862 82.6817 74.7832 82.6817H48.2392C47.5353 82.6817 47.3896 82.3154 47.3593 82.1559C47.3047 81.8665 47.5231 81.5711 47.8569 81.4825L74.9773 74.0272C75.032 74.0094 75.0623 73.9799 75.0562 73.9326C75.0562 73.8972 75.0138 73.8499 74.9349 73.8499H53.5796C52.8999 73.8499 52.7603 73.4541 52.736 73.336C52.6753 73.0583 52.8817 72.757 53.2033 72.6566L75.2686 65.8334C75.3233 65.8157 75.3536 65.7802 75.3415 65.7389C75.3354 65.6975 75.2929 65.6562 75.2201 65.6562H58.9138C58.2645 65.6562 58.131 65.2426 58.1067 65.1599C58.04 64.8823 58.222 64.5928 58.5315 64.4806L75.6813 58.2599C75.7298 58.2422 75.7541 58.2068 75.7481 58.1713C75.742 58.13 75.6995 58.0945 75.6267 58.0945H64.2481C63.793 58.0945 63.5502 57.8464 63.4895 57.6337C63.4107 57.3738 63.5624 57.0784 63.8415 56.9485L76.2335 51.3008C76.276 51.2831 76.3003 51.2477 76.2882 51.2122C76.2821 51.1768 76.2396 51.1354 76.1668 51.1354H69.5885C69.2607 51.1354 68.9816 50.97 68.8784 50.7219C68.7813 50.4797 68.8784 50.1961 69.1212 50.0425L76.8707 44.9207C76.9072 44.8971 76.9193 44.8675 76.9072 44.8321C76.895 44.7966 76.8586 44.7612 76.7858 44.7612H74.9227C74.68 44.7612 74.4372 44.643 74.3098 44.4658C74.1824 44.2827 74.1763 44.0346 74.3037 43.8455L77.7203 38.8005C77.8842 38.5583 78.1755 38.4165 78.5093 38.4165C78.843 38.4165 79.1343 38.5583 79.2982 38.8005L82.6905 43.8101C82.824 44.0109 82.824 44.2532 82.6905 44.454C82.5631 44.6312 82.3021 44.7612 82.0594 44.7612H80.2631C80.1902 44.7612 80.1538 44.7966 80.1417 44.8321C80.1296 44.8616 80.1417 44.8971 80.1781 44.9207L87.8852 50.013C88.1219 50.1725 88.225 50.4679 88.1279 50.7101C88.0187 50.97 87.7153 51.1413 87.3572 51.1413H80.9063C80.8335 51.1413 80.791 51.1768 80.785 51.2181C80.7789 51.2536 80.7971 51.289 80.8396 51.3068L93.1467 56.913C93.4319 57.043 93.5957 57.3502 93.5168 57.6101C93.4804 57.7223 93.3166 58.1004 92.6612 58.1004H81.4707C81.3979 58.1004 81.3554 58.1418 81.3493 58.1772C81.3433 58.2186 81.3676 58.2481 81.4161 58.2658L98.4566 64.4451C98.7844 64.5633 98.9664 64.8527 98.8997 65.1422C98.8632 65.2958 98.6933 65.6621 97.9651 65.6621H81.9137C81.8409 65.6621 81.7984 65.7034 81.7924 65.7448C81.7863 65.7861 81.8166 65.8216 81.8652 65.8393L103.791 72.6212C104.198 72.7452 104.331 73.0701 104.276 73.3123C104.222 73.5605 104.003 73.8558 103.263 73.8558H82.2232C82.1443 73.8558 82.1079 73.8972 82.1018 73.9385C82.0958 73.9799 82.1261 74.0153 82.1807 74.0331L109.125 81.4411C109.55 81.5593 109.696 81.8842 109.647 82.1323C109.538 82.6876 108.804 82.6876 108.561 82.6876H82.3992C82.3142 82.6876 82.2839 82.7349 82.2778 82.7703C82.2778 82.8117 82.3021 82.8471 82.3628 82.8648L114.478 90.9168C114.921 91.029 115.072 91.3422 115.03 91.608C114.933 92.1751 114.162 92.1751 113.871 92.1751L113.859 92.1692ZM78.5093 38.6055C78.2422 38.6055 78.0116 38.7178 77.8781 38.9068L74.4615 43.9519C74.3826 44.0759 74.3826 44.2413 74.4615 44.3654C74.5525 44.4895 74.7407 44.584 74.9167 44.584H76.7797C76.9193 44.584 77.0407 44.6667 77.0831 44.7848C77.1195 44.8971 77.071 45.0093 76.9678 45.0802L69.2122 50.202C69.0484 50.3084 68.9755 50.5033 69.0423 50.6628C69.1151 50.846 69.3275 50.9641 69.5763 50.9641H76.1546C76.3306 50.9641 76.4338 51.0764 76.4581 51.1827C76.4884 51.3068 76.4217 51.4249 76.2942 51.4781L63.9022 57.1257C63.708 57.2143 63.5988 57.4152 63.6534 57.5924C63.7019 57.746 63.8779 57.9232 64.236 57.9232H75.6145C75.7723 57.9232 75.8998 58.0177 75.924 58.1536C75.9483 58.2836 75.8694 58.4017 75.7359 58.449L58.5801 64.6696C58.3616 64.7464 58.2281 64.9532 58.2706 65.1363C58.2827 65.1954 58.3798 65.4908 58.8896 65.4908H75.1958C75.3536 65.4908 75.481 65.5912 75.5053 65.7271C75.5235 65.8393 75.4689 65.9693 75.299 66.0224L53.2337 72.8456C53.0091 72.9165 52.8574 73.1233 52.8938 73.3123C52.912 73.395 53.0152 73.6786 53.5492 73.6786H74.9045C75.0926 73.6786 75.1958 73.8027 75.214 73.9208C75.2322 74.0331 75.1715 74.1689 74.9956 74.2162L47.8751 81.6715C47.6384 81.7365 47.4746 81.9433 47.511 82.1382C47.5353 82.2504 47.6445 82.5104 48.2089 82.5104H74.7528C74.947 82.5104 75.0502 82.6344 75.0623 82.7526C75.0805 82.8885 74.9895 83.0125 74.8378 83.048L42.5226 91.1472C42.2799 91.2063 42.11 91.419 42.1403 91.608C42.1828 91.8561 42.4437 91.992 42.8746 91.992H113.834C114.101 91.992 114.733 91.992 114.805 91.5725C114.836 91.3953 114.72 91.1767 114.393 91.094L82.2778 83.0421C82.1261 83.0066 82.0351 82.8826 82.0533 82.7467C82.0715 82.6285 82.1747 82.5045 82.3628 82.5045H108.524C108.725 82.5045 109.344 82.5045 109.423 82.0969C109.453 81.9255 109.35 81.701 109.034 81.6183L82.0897 74.2103C81.9198 74.163 81.8591 74.0272 81.8712 73.9149C81.8895 73.7968 81.9926 73.6727 82.1807 73.6727H103.22C103.56 73.6727 103.979 73.6018 104.046 73.2769C104.082 73.1115 103.985 72.887 103.688 72.7984L81.762 66.0165C81.5982 65.9634 81.5375 65.8334 81.5557 65.7212C81.5799 65.5794 81.7074 65.4848 81.8652 65.4848H97.9165C98.5113 65.4848 98.6448 65.219 98.669 65.1068C98.7176 64.9118 98.5841 64.711 98.3474 64.6283L81.3069 58.449C81.1673 58.4017 81.0945 58.2777 81.1187 58.1536C81.143 58.0177 81.2705 57.9232 81.4282 57.9232H92.6187C93.1466 57.9232 93.268 57.6515 93.2923 57.5687C93.3469 57.3974 93.2255 57.1789 93.0253 57.0902L80.7182 51.484C80.5908 51.4249 80.5301 51.3127 80.5544 51.1886C80.5786 51.0764 80.6818 50.97 80.8578 50.97H87.3087C87.5878 50.97 87.8245 50.846 87.9034 50.6569C87.9702 50.4974 87.8913 50.2907 87.7274 50.1843L80.0203 45.092C79.9172 45.0211 79.8747 44.9089 79.905 44.7966C79.9414 44.6785 80.0628 44.5958 80.2085 44.5958H82.0048C82.1807 44.5958 82.3931 44.4954 82.4842 44.3713C82.5813 44.2354 82.5813 44.07 82.4842 43.9341L79.0918 38.9246C78.9644 38.7355 78.7277 38.6233 78.4607 38.6233L78.5093 38.6055ZM109.119 91.1708H48.0511C47.8569 91.1708 47.7537 91.0468 47.7416 90.9286C47.7234 90.7928 47.8144 90.6687 47.9661 90.6332L78.5032 82.9771C78.5578 82.9653 78.6185 82.9653 78.6731 82.9771L109.21 90.6332C109.362 90.6687 109.453 90.7928 109.435 90.9286C109.423 91.0468 109.313 91.1708 109.125 91.1708H109.119ZM48.0086 90.8105C47.9479 90.8223 47.9176 90.8577 47.9237 90.905C47.9237 90.9404 47.9661 90.9877 48.045 90.9877H109.113C109.198 90.9877 109.228 90.9404 109.234 90.905C109.234 90.8636 109.21 90.8282 109.149 90.8105L78.6124 83.1543C78.6124 83.1543 78.5578 83.1543 78.5335 83.1543L48.0025 90.8105H48.0086ZM104.161 81.6833H52.9788C52.7906 81.6833 52.6875 81.5593 52.6693 81.4411C52.6511 81.3289 52.7118 81.193 52.8877 81.1457L78.4789 74.1099C78.5396 74.0921 78.6064 74.0921 78.667 74.1099L104.258 81.1457C104.428 81.193 104.489 81.3289 104.477 81.4411C104.458 81.5593 104.355 81.6833 104.167 81.6833H104.161ZM78.5699 74.2871C78.5699 74.2871 78.5396 74.2871 78.5275 74.2871L52.9363 81.323C52.8817 81.3407 52.8513 81.3702 52.8574 81.4175C52.8574 81.4529 52.8999 81.5002 52.9788 81.5002H104.161C104.24 81.5002 104.276 81.4588 104.282 81.4175C104.282 81.3761 104.258 81.3407 104.204 81.323L78.6124 74.2871C78.6124 74.2871 78.5821 74.2871 78.5699 74.2871ZM99.2759 72.8575H57.8458C57.688 72.8575 57.5605 72.757 57.5363 72.6212C57.5181 72.5089 57.5727 72.373 57.7426 72.3258L78.4607 65.9161C78.5275 65.8925 78.6003 65.8925 78.667 65.9161L99.3851 72.3258C99.549 72.379 99.6097 72.5148 99.5915 72.6212C99.5672 72.7629 99.4398 72.8575 99.282 72.8575H99.2759ZM78.5578 66.0874C78.5578 66.0874 78.5275 66.0874 78.5093 66.0933L57.7912 72.503C57.7365 72.5207 57.7062 72.5562 57.7183 72.5975C57.7244 72.6389 57.7669 72.6802 57.8397 72.6802H99.2698C99.3427 72.6802 99.3851 72.6389 99.3912 72.5975C99.3973 72.5562 99.3669 72.5207 99.3184 72.503L78.6003 66.0933C78.6003 66.0933 78.5699 66.0874 78.5517 66.0874H78.5578ZM94.4757 64.6696H62.6217C62.464 64.6696 62.3365 64.5751 62.3122 64.4392C62.288 64.3093 62.3669 64.1911 62.5004 64.1438L78.4304 58.3663C78.5093 58.3426 78.5942 58.3426 78.667 58.3663L94.597 64.1438C94.7366 64.1911 94.8094 64.3152 94.7852 64.4392C94.7609 64.5751 94.6334 64.6696 94.4757 64.6696ZM78.5457 58.5317C78.5457 58.5317 78.5093 58.5317 78.491 58.5435L62.561 64.3211C62.5125 64.3388 62.4882 64.3742 62.4943 64.4156C62.5004 64.4569 62.5428 64.4924 62.6157 64.4924H94.4696C94.5424 64.4924 94.5849 64.451 94.591 64.4156C94.597 64.3742 94.5728 64.3447 94.5242 64.3211L78.5942 58.5435C78.5942 58.5435 78.5578 58.5317 78.5396 58.5317H78.5457ZM89.7786 57.108H67.2824C67.1064 57.108 67.0032 56.9957 66.979 56.8894C66.9486 56.7653 67.0154 56.6472 67.1428 56.594L78.3879 51.4663C78.4789 51.4249 78.5881 51.4249 78.6731 51.4663L89.9182 56.594C90.0456 56.6531 90.1063 56.7653 90.082 56.8894C90.0577 57.0016 89.9546 57.108 89.7786 57.108ZM78.5335 51.6199C78.5335 51.6199 78.491 51.6199 78.4728 51.6317L67.2278 56.7594C67.1853 56.7771 67.161 56.8126 67.1671 56.848C67.1732 56.8835 67.2156 56.9248 67.2885 56.9248H89.7847C89.8575 56.9248 89.9 56.8894 89.906 56.848C89.9121 56.8126 89.8939 56.7771 89.8514 56.7594L78.6063 51.6317C78.6063 51.6317 78.5639 51.6199 78.5457 51.6199H78.5335ZM85.209 50.1489H71.8338C71.6943 50.1489 71.5729 50.0662 71.5304 49.948C71.494 49.8358 71.5425 49.7235 71.6457 49.6586L78.3333 45.2397C78.4425 45.1688 78.6003 45.1688 78.7095 45.2397L85.3971 49.6586C85.5002 49.7294 85.5427 49.8417 85.5124 49.948C85.476 50.0662 85.3546 50.1489 85.209 50.1489ZM78.5214 45.3638C78.5214 45.3638 78.4668 45.3697 78.4425 45.3874L71.7549 49.8062C71.7185 49.8299 71.7064 49.8594 71.7185 49.8949C71.7307 49.9303 71.7671 49.9657 71.8399 49.9657H85.215C85.2878 49.9657 85.3243 49.9303 85.3364 49.8949C85.3485 49.8653 85.3364 49.8299 85.3 49.8062L78.6124 45.3874C78.6124 45.3874 78.5578 45.3638 78.5335 45.3638H78.5214ZM80.7364 43.7746H76.2882C76.1668 43.7746 76.0576 43.7156 76.009 43.621C75.9605 43.5383 75.9665 43.4379 76.0211 43.3611L78.2483 40.0706C78.3029 39.9879 78.4061 39.9347 78.5153 39.9347C78.6246 39.9347 78.7277 39.982 78.7823 40.0706L81.0095 43.3611C81.0641 43.4379 81.0702 43.5383 81.0216 43.621C80.967 43.7156 80.8639 43.7746 80.7425 43.7746H80.7364ZM78.5093 40.1238C78.4607 40.1238 78.4182 40.1415 78.4 40.177L76.1729 43.4675C76.1729 43.4675 76.1546 43.5147 76.1729 43.5383C76.1911 43.5679 76.2275 43.5974 76.2882 43.5974H80.7364C80.7971 43.5974 80.8335 43.5679 80.8517 43.5383C80.8639 43.5147 80.8639 43.4911 80.8517 43.4675L78.6246 40.177C78.6003 40.1474 78.5639 40.1238 78.5153 40.1238H78.5093Z" fill="#55DD4A"/>
<path d="M78.861 91.5254H78.1328V102.679H78.861V91.5254Z" fill="black"/>
</g>
<defs>
<clipPath id="clip0_1323_9725">
<rect width="157" height="109" fill="white"/>
</clipPath>
</defs>
</svg>
