<svg 

 viewBox="0 0 472 472" fill="none" xmlns="http://www.w3.org/2000/svg">
<g clip-path="url(#clip0_1323_9489)">
<mask id="mask0_1323_9489" style="mask-type:luminance" maskUnits="userSpaceOnUse" x="1" y="1" width="470" height="470">
<path d="M471 1H1V471H471V1Z" fill="white"/>
</mask>
<g mask="url(#mask0_1323_9489)">
<path d="M236 469.58C365 469.58 469.58 365 469.58 236C469.58 107 365 2.41992 236 2.41992C107 2.41992 2.41992 107 2.41992 236C2.41992 365 107 469.58 236 469.58Z" fill="#FFED52"/>
<path d="M236 471C106.42 471 1 365.58 1 236C1 106.42 106.42 1 236 1C365.58 1 471 106.42 471 236C471 365.58 365.58 471 236 471ZM236 3.83C107.98 3.83 3.83 107.98 3.83 236C3.83 364.02 107.98 468.17 236 468.17C364.02 468.17 468.17 364.02 468.17 236C468.17 107.98 364.02 3.83 236 3.83Z" fill="#122315"/>
<path d="M236 454.71C356.79 454.71 454.71 356.79 454.71 236C454.71 115.21 356.79 17.29 236 17.29C115.21 17.29 17.29 115.21 17.29 236C17.29 356.79 115.21 454.71 236 454.71Z" fill="#122315"/>
<path d="M156.55 76.4201C158.42 79.7601 157.01 83.4601 152.99 85.7201L145.64 89.8501L134.51 70.0601L141.3 66.2401C145.12 64.0901 148.88 64.8401 150.72 68.0901C151.91 70.2201 151.68 72.3901 150.15 73.8901C152.73 73.0401 155.17 73.9401 156.57 76.4301H156.56L156.55 76.4201ZM141.03 71.1801L143.5 75.5701L145.14 74.6501C146.67 73.7901 147.21 72.2901 146.49 71.0301C145.76 69.7301 144.21 69.4101 142.67 70.2801L141.03 71.2001V71.1801ZM150.17 82.5201C151.83 81.5801 152.44 79.9401 151.65 78.5201C150.86 77.1101 149.16 76.7901 147.46 77.7501L145.39 78.9201L148.07 83.7001L150.16 82.5201H150.17Z" fill="#EFE9E0"/>
<path d="M156.83 70.4898C154.28 64.1498 157.12 57.6798 163.56 55.0798C170.02 52.4798 176.54 55.1698 179.09 61.5198C181.64 67.8598 178.82 74.3098 172.36 76.9298C165.92 79.5198 159.38 76.8398 156.83 70.4898ZM174.19 63.4998C172.7 59.7898 169 58.1798 165.39 59.6398C161.81 61.0898 160.28 64.8198 161.76 68.5098C163.25 72.2198 166.95 73.8298 170.52 72.3898C174.13 70.9298 175.67 67.1998 174.18 63.5098H174.19V63.4998Z" fill="#EFE9E0"/>
<path d="M202.09 67.3501L197 68.6401C195.99 64.2801 192.87 61.9901 189.19 62.6601L191.09 70.1401L186.12 71.4001L180.53 49.4001L187.64 47.5901C192.33 46.4001 196.1 48.3601 197.17 52.5701C197.88 55.3401 197.01 57.7301 194.85 59.2501C198.36 60.0301 201.02 62.8701 202.09 67.3501ZM186.57 52.3701L188.13 58.5101L189.51 58.1601C191.61 57.6301 192.67 56.0801 192.19 54.2401C191.72 52.3601 190.03 51.5101 187.89 52.0501L186.57 52.3901V52.3701Z" fill="#EFE9E0"/>
<path d="M221.32 64.61L216.11 65.31C215.61 60.86 212.77 58.24 209.04 58.48L210.07 66.13L204.99 66.81L201.95 44.31L209.22 43.33C214.01 42.69 217.54 45.06 218.11 49.36C218.49 52.19 217.36 54.48 215.05 55.73C218.45 56.91 220.77 60.03 221.32 64.6V64.61ZM207.61 47.98L208.46 54.25L209.87 54.06C212.02 53.77 213.24 52.36 212.98 50.46C212.72 48.53 211.14 47.5 208.96 47.8L207.61 47.98Z" fill="#EFE9E0"/>
<path d="M222.71 52.93C222.67 46.09 227.69 41.13 234.64 41.08C241.61 41.03 246.67 45.94 246.7 52.78C246.74 59.62 241.74 64.58 234.77 64.63C227.83 64.68 222.74 59.77 222.7 52.93H222.71ZM241.42 52.82C241.39 48.83 238.55 45.97 234.66 45.99C230.8 46.01 228 48.92 228.03 52.9C228.05 56.89 230.9 59.75 234.75 59.73C238.64 59.71 241.44 56.8 241.42 52.82Z" fill="#EFE9E0"/>
<path d="M273.4 44.9198L278.66 45.6998L269.69 67.3298L264.27 66.5298L263.39 51.1598L258.07 65.6198L252.61 64.8198L250.31 41.5298L255.51 42.2998L256.48 58.3398L261.98 43.2498L266.92 43.9798L267.85 60.0198L273.36 44.9298H273.37L273.4 44.9198Z" fill="#EFE9E0"/>
<path d="M310.92 56.3201L315.91 58.1401L302.76 77.5101L297.61 75.6301L299.86 60.3901L291.73 73.4801L286.55 71.5801L289 48.3101L293.93 50.1101L291.65 66.0101L300.09 52.3501L304.78 54.0601L302.46 69.9501L310.9 56.2901L310.92 56.3201Z" fill="#EFE9E0"/>
<path d="M309.62 80.8202L319.72 60.4902L324.31 62.7602L314.21 83.1002L309.62 80.8202Z" fill="#EFE9E0"/>
<path d="M318.31 83.7602L321.26 78.7902C321.64 80.9402 322.83 82.8802 324.33 83.7802C325.67 84.5702 327.06 84.3102 327.77 83.1502C329.71 79.8802 322.7 76.1802 326.06 70.5402C328.08 67.1402 331.77 66.2802 335.26 68.3402C336.68 69.1902 337.74 70.3302 338.56 71.9202L335.96 76.2902C335.61 74.6002 334.82 73.3902 333.65 72.6902C332.48 72.0002 331.26 72.2202 330.67 73.1902C328.97 76.0602 335.91 79.8102 332.37 85.7502C330.13 89.5202 326.26 90.3802 322.21 87.9702C320.45 86.9302 319.19 85.5602 318.31 83.7302H318.3L318.31 83.7602Z" fill="#EFE9E0"/>
<path d="M353.29 86.7502L346.41 81.7002L343.86 85.1702L349.43 89.2602L346.76 92.8902L341.2 88.8002L338.43 92.5702L345.31 97.6202L342.58 101.33L331.58 93.2402L345.03 74.9502L356.04 83.0402L353.31 86.7502H353.29Z" fill="#EFE9E0"/>
<path d="M352.39 103.76L358.49 109.25L355.42 112.68L345.5 103.76L360.69 86.8701L364.51 90.3001L352.41 103.76H352.4H352.39Z" fill="#EFE9E0"/>
<path d="M384.21 110.17L368.86 114.23L362.49 120.2L358.97 116.43L365.34 110.46L370.41 95.4199L374.37 99.6599L370.26 109.42L380.25 105.95L384.21 110.19V110.17Z" fill="#EFE9E0"/>
<path d="M340 181.772C340.11 181.309 340.442 181.113 340.736 180.908C343.497 178.983 346.139 176.782 349.019 175.125C350.888 174.047 352.876 173.593 354.799 172.844C355.821 172.443 356.824 171.98 357.781 171.356C359.557 170.189 361.49 169.503 363.248 168.291C365.273 166.902 367.344 165.627 369.341 164.157C370.859 163.044 372.369 161.841 373.998 160.985C374.43 160.754 374.78 160.371 375.166 160.05C377.928 157.716 380.854 156.032 384.177 155.657C385.704 155.488 387.131 154.695 388.594 154.161C389.257 153.92 389.699 153.278 390.058 152.557C391.512 149.581 393.656 147.701 395.948 146.053C396.795 145.447 397.494 144.6 398.258 143.843C399.869 142.239 401.654 141.197 403.651 140.751C404.25 140.618 404.848 140.823 405.464 140.6C407.314 139.932 408.879 138.684 410.204 136.902C411.401 135.29 412.947 134.381 414.401 133.294C415.229 132.679 416.15 133.071 416.72 134.078C416.95 134.479 417.217 134.889 417.309 135.352C417.705 137.178 418.717 138.426 419.638 139.753C419.868 140.083 420.116 140.386 420.31 140.769C421.359 142.881 421.267 143.896 419.656 145.233C418.441 146.24 417.245 147.327 415.8 147.817C415.119 148.04 414.484 148.601 413.886 149.118C411.483 151.185 408.98 152.931 406.237 154.134C403.771 155.221 401.258 156.014 398.737 156.744C396.252 157.457 393.712 157.903 391.217 158.553C389.653 158.963 388.097 159.515 386.551 160.05C385.364 160.46 384.177 160.745 382.953 160.861C382.069 160.95 381.232 161.244 380.468 161.868C379.133 162.946 377.651 163.632 376.28 164.63C372.912 167.08 369.525 169.485 366.11 171.829C363.782 173.432 361.232 174.421 358.849 175.829C355.287 177.923 351.403 177.834 347.777 179.322C346.866 179.696 345.927 179.892 345.053 180.427C343.58 181.318 341.997 181.647 340.414 181.986C340.267 182.021 340.11 182.004 340.018 181.772H340Z" fill="#AEFFE4"/>
</g>
<path d="M380.9 265.54C381.04 262.83 380.23 260.3 379.06 258.02C376.81 253.66 373.07 250.96 368.33 249.78C365.19 249 364.01 249.58 362.38 252.37C360.5 255.58 358.69 258.84 356.67 261.97C354.2 265.8 351.14 268.99 347.28 271.38C344.24 273.26 340.85 274.29 337.55 275.55C335.22 276.44 332.76 276.8 330.31 276.97C328.66 277.08 327.27 277.6 326.09 278.66C323.19 281.28 320.35 283.98 317.49 286.64C312.53 291.25 307.62 295.93 301.27 298.64C298.78 299.7 296.36 300.99 293.55 301.14C289.7 301.34 285.91 301.14 282.17 300.08C280.37 299.56 278.88 300.06 277.77 301.62C276.43 303.49 274.93 305.23 273.22 306.78C270.92 308.87 268.76 311.14 266.12 312.78C259.58 316.85 252.68 319.94 244.8 320.09C239.85 320.18 235.41 318.8 231.68 315.43C229.23 313.22 228.78 312.04 226.6 309.58C225.9 308.8 225.31 308.5 224.4 308.72C223.31 308.98 222.25 309.35 221.32 309.99C218.52 311.93 213.91 310.97 210.79 312.09C210.61 312.15 210.42 312.14 210.21 311.87C210.71 311.23 211.48 310.97 212.19 310.67C219.1 307.73 225.69 304.18 232.27 300.58C234.99 299.1 237.77 297.73 240.56 296.38C245.08 294.21 249.63 292.1 254.18 290C258.11 288.18 261.97 286.22 265.96 284.51C268.92 283.25 271.84 281.88 274.74 280.47C279.09 278.36 283.34 276.06 287.82 274.23C290.86 272.99 293.85 271.66 296.78 270.15C300.14 268.42 303.34 266.38 306.85 264.94C309.25 263.95 311.65 262.93 313.99 261.8C319.17 259.29 324.31 256.69 329.54 254.29C334.7 251.93 339.8 249.42 344.97 247.08C346.65 246.31 349.34 244.91 350.95 243.99C352.41 243.16 353.93 242.46 355.39 241.64C359.37 239.4 362.07 236.21 362.78 231.5C362.97 230.26 362.5 229.17 362.36 228C361.67 222.32 359.29 217.67 354.41 214.47C352.93 213.5 351.39 212.79 349.65 212.49C348.18 212.24 347.11 212.82 346.37 214.06C345.79 215.02 345.26 216.01 344.7 216.98C341.83 221.96 337.89 225.65 332.32 227.37C331.07 227.75 329.86 228.22 328.68 228.79C327.72 229.25 327.1 229.98 326.92 231.05C326.72 232.24 326.29 233.33 325.65 234.34C322.67 239.01 319.07 243.18 314.36 246.06C308.05 249.92 301.12 251.88 293.67 251.44C290.83 251.27 289.04 252.32 287.76 254.92C286.25 257.97 283.92 260.47 281.53 262.85C279.97 264.4 278.29 265.81 276.52 267.12C274.62 268.52 272.84 270.1 270.74 271.24C268.18 272.63 265.53 273.79 262.87 274.96C257.11 277.5 251.14 279.24 244.96 280.32C243.13 280.64 241.29 280.82 239.45 280.95C235.11 281.26 230.81 280.74 226.5 280.39C222.05 280.03 217.67 279.2 213.33 278.23C209.55 277.39 205.82 276.32 202.08 275.32C200.42 274.88 198.7 274.78 196.63 274.58C197.58 273.43 198.45 272.88 199.4 272.41C201.18 271.53 203.05 270.84 204.79 269.85C207.01 268.59 210.74 266.73 213.04 265.64C215.67 264.4 218.33 263.2 221.02 262.07C228.95 258.73 236.84 255.31 244.32 250.97C249.34 248.06 254.41 245.21 259.83 243.04C265.34 240.83 270.66 238.18 276 235.58C279.67 233.8 283.16 231.64 286.89 230.01C290.75 228.33 294.51 226.45 298.39 224.8C303.97 222.43 309.47 219.84 314.99 217.33C319.72 215.18 324.43 212.95 329.19 210.87C331.02 210.07 332.99 209.6 334.88 208.92C336.36 208.39 338.17 206.82 338.9 205.42C340.46 202.42 341.98 199.43 341.18 195.68C339.91 189.68 338.46 183.97 333.06 180.09C330.77 178.44 328.4 177.57 325.74 177.38C320.84 177.03 316.15 178.11 311.63 179.94C309.43 180.83 307.92 182.28 307.8 184.93C307.72 186.76 306.69 188.53 307.41 190.43C307.47 190.58 307.38 190.8 307.32 190.97C306.13 194.46 304.65 197.78 302.2 200.62C300.16 202.97 297.72 204.74 294.98 206.07C292.99 207.03 290.94 207.91 288.77 208.45C284.3 209.57 280.05 208.46 275.84 207.15C274.04 206.59 272.38 206.46 270.61 207.2C268.04 208.28 265.49 209.39 262.97 210.57C259.95 211.98 256.87 213.27 253.61 214.06C251.63 214.54 249.84 215.64 247.79 215.91C247.23 215.98 246.77 216.32 246.28 216.6C244.79 217.47 244.1 218.97 243.42 220.43C242.46 222.51 240.95 223.92 238.94 224.96C232.99 228.04 226.98 230.97 220.9 233.78C219.55 234.4 218.24 235.14 216.85 235.62C213.4 236.79 209.86 236.73 206.48 235.46C204.14 234.57 202.54 235.28 201.06 236.97C200.61 237.48 200.21 238.04 199.74 238.55C197.77 240.71 195.36 242.56 192.61 243.06C189.36 243.65 186.05 244.27 182.57 243.36C177.65 242.07 173.03 243.64 168.82 246.3C165.69 248.28 163.65 251.26 161.95 254.49C161.06 256.18 160.06 257.87 159.73 259.76C159.43 261.46 159.23 263.2 159.27 264.96C159.33 268.52 160.62 271.51 162.98 274.06C164.23 275.42 165.74 276.5 167.11 277.73C168.06 278.38 169.04 278.95 170.12 279.36C173.05 280.49 176.32 280.39 179.39 280.76C180.3 280.87 180.79 282 180.4 282.78C179.51 284.56 178.55 286.31 177.32 287.88C176.7 288.68 175.65 288.37 175.09 287.73C173.14 285.47 170.88 283.58 168.31 282.06C168 281.88 167.81 281.64 167.69 281.38C165.89 280.46 164.26 279.19 162.69 277.89C159.24 275.88 155.66 275.74 151.91 277.03C148.8 278.1 146.54 280.37 144.35 282.63C141.58 285.5 139.12 288.63 138.66 292.87C138.3 296.19 138.11 299.44 139.73 302.55C140.81 304.62 142.14 306.51 143.38 308.47C144.11 309.62 145.11 310.58 146.32 311.21C148.02 312.09 149.56 313.22 151.02 314.47C151.45 314.83 151.98 315.27 151.52 315.87C150.98 316.57 150.42 316.09 149.92 315.7C149.77 315.59 149.62 315.46 149.52 315.31C148.91 314.31 147.94 314.02 146.87 313.82C145.59 313.58 144.33 313.25 143.07 312.94C141.57 312.57 140.09 312.12 138.5 312.22C135.45 312.42 132.83 313.77 130.14 315.08C124.25 317.94 121.51 323.14 119.97 329.06C118.9 333.14 119.26 337.35 120.6 341.41C121.38 343.75 122.57 346.01 124.24 347.66C128.65 352.02 133.98 354.4 140.35 353.52C141.2 353.4 142 353.02 142.84 352.85C145.66 352.28 147.57 350.88 149.92 349.73C151.54 348.94 153.01 347.85 154.24 346.53C155.39 345.29 156.52 344.18 157.7 343.58C158.79 343.02 161.5 346.72 162.41 347.75C162.69 348.07 163.14 348.24 163.42 348.57C165.56 351.08 168.47 352.37 171.4 353.51C174.8 354.83 178.37 355.16 181.94 354.03C187.14 352.38 192.15 350.23 197.17 348.09C198.22 347.64 198.98 347.66 199.86 348.4C201.83 350.04 204.03 351.31 206.44 352.18C209.47 353.28 212.62 353.46 215.77 353.03C218.02 352.72 220.23 352.11 222.48 351.69C225.66 351.09 228.76 350.15 231.69 348.87C236.62 346.71 241.39 344.19 246.28 341.92C250.98 339.75 255.69 337.59 260.51 335.71C268.85 332.45 277.17 329.12 285.41 325.62C290.69 323.38 295.97 321.12 301.14 318.61C306.26 316.12 311.55 313.97 316.84 311.87C322.26 309.72 327.44 307.07 332.77 304.75C335.16 303.71 337.32 302.2 339.71 301.16C345.57 298.62 351.17 295.55 356.93 292.8C360.23 291.23 363.44 289.48 366.88 288.2C368.61 287.55 370.57 287.32 371.99 286.04C373.81 284.39 375.79 282.95 377.21 280.79C379.35 277.53 380.71 274.11 380.94 270.2C381.03 268.64 380.84 267.09 380.93 265.54H380.9ZM330.96 234.85C331.79 234.32 332.64 233.78 333.52 233.35C337.45 231.41 341.48 229.66 345.55 228.02C346.37 227.69 347.08 227.74 347.75 228.33C346.28 230.82 333 236.85 329.9 236.44C329.85 235.64 330.39 235.21 330.96 234.84V234.85ZM338.56 238.53C338.58 239.56 337.83 240.03 337.08 240.41C332.64 242.64 327.89 243.99 323.16 245.4C323.12 245.41 323.06 245.33 323.02 245.29C324.63 242.92 336.13 237.88 338.57 238.54L338.56 238.53ZM295.17 256.11C294.21 257.59 292.61 257.68 291.1 257.99C292.2 256.77 293.59 256.22 295.17 256.11ZM287.53 265.87C289.93 264.59 292.21 263.03 294.71 262C298.48 260.45 301.84 258.03 305.77 256.85C306.67 256.58 307.53 256.32 308.44 257.04C307.96 258.42 307.16 259.43 305.91 260.12C303.25 261.61 300.42 262.7 297.6 263.78C295.86 264.45 294.24 265.33 292.55 266.09C290.51 267.01 288.4 267.67 286.24 268.23C285.84 268.34 285.4 268.43 284.81 267.97C285.66 267.07 286.51 266.39 287.51 265.86L287.53 265.87ZM232.56 285.63C234.05 285.25 235.48 285.26 236.94 285.41C237.9 285.51 238.34 285.96 238.3 286.7C238.08 287.53 237.46 288.12 236.68 288.56C235.28 289.36 233.85 290.11 232.32 290.61C228.45 291.86 224.63 293.29 220.69 294.32C220.04 294.49 219.42 294.8 218.79 295.05C217.92 295.4 217.3 295.31 216.83 294.34C216.38 293.4 216.35 292.68 217.28 292.1C218.01 291.64 218.77 291.22 219.5 290.76C223.54 288.24 227.99 286.81 232.56 285.64V285.63ZM215.52 286.19C216.75 284.89 218.2 284.02 220.04 283.95C220.74 283.92 221.5 283.83 221.74 284.71C221.94 285.46 221.53 286.07 220.96 286.49C219.69 287.41 218.17 287.83 216.75 288.41C216.2 288.63 215.8 288.35 215.49 287.9C215.08 287.32 215.04 286.73 215.54 286.19H215.52ZM214.88 302.14C215.5 301.28 216.14 300.45 217.16 300C221.24 298.21 225.38 296.58 229.55 295.02C232.38 293.96 235.11 292.62 237.93 291.53C242.08 289.92 246.04 287.85 250.26 286.38C250.55 286.28 250.82 286.12 251.25 286.34C250.65 287.44 249.67 287.86 248.74 288.35C245.4 290.13 242.24 292.2 238.98 294.12C235.02 296.45 230.78 298.13 226.44 299.65C223.26 300.76 219.87 301.49 216.99 303.43C216.69 303.63 216.32 303.78 215.97 303.85C215.45 303.96 214.98 303.81 214.68 303.33C214.4 302.87 214.63 302.49 214.89 302.13L214.88 302.14ZM243.82 237.34C243.48 236.3 244.09 235.91 244.61 235.68C246.99 234.63 249.08 232.73 251.99 233.17C249.76 235.59 247.18 237.25 243.82 237.34ZM327.97 192.48C328.51 192.33 329.19 192.23 329.78 192.78C329.55 193.71 328.74 194.08 328.06 194.57C325.53 196.37 322.55 197.03 319.66 197.85C318.12 198.29 316.59 198.77 315.06 199.23C314.42 199.42 313.75 199.5 312.84 199.68C317.81 196.68 322.62 194 327.97 192.48ZM300.7 211.57C303.3 210.16 306.13 209.18 308.78 207.83C311.7 206.34 314.61 204.84 317.51 203.29C318.88 202.56 320.36 202.01 321.78 201.38C320.97 203.32 319.65 204.6 318.11 205.64C313.37 208.84 308.28 211.32 302.96 213.4C299.34 214.81 295.73 216.3 292.36 218.29C290.37 219.47 288.2 220.23 286.05 220.99C281.51 222.59 276.84 223.8 272.38 225.64C272.17 225.73 271.91 225.7 271.62 225.62C274.93 223.35 278.2 221 282 219.65C288.42 217.38 294.7 214.83 300.7 211.58V211.57ZM241.34 230.19C244.73 227.79 248.24 225.61 252.21 224.31C252.39 224.25 252.58 224.21 252.73 224.11C256.65 221.53 261.16 220.29 265.4 218.45C268.96 216.9 272.64 215.6 276.28 214.23C277.01 213.96 277.79 213.62 278.8 214.2C278.17 215.66 276.91 216.25 275.75 216.88C272.39 218.72 268.87 220.24 265.55 222.19C263.97 223.12 262.13 223.62 260.47 224.43C255.74 226.73 250.93 228.8 245.91 230.41C244.03 231.01 241.94 230.73 240.02 232.35C240.17 231.04 240.76 230.59 241.32 230.19H241.34ZM206.77 283.07C209.17 285.28 210.96 288.08 211.26 291.59C211.7 296.73 209.92 301.08 206.89 305.08C206.18 306.02 205.22 306.57 204.3 307.16C202.21 308.48 200.06 309.71 197.89 310.88C196.84 311.45 195.63 311.49 194.29 311.43C192.85 311.76 191.57 311.16 190.34 310.17C189.28 309.32 187.98 308.84 186.89 308C185.83 307.19 184.98 306.26 184.31 305.12C183.17 303.19 182.25 301.15 181.48 299.05C180.38 296.04 181.3 293.17 182.22 290.3C183.42 286.58 185.72 283.82 188.99 281.74C190.41 280.83 191.89 280.25 193.5 280.38C194.57 280.47 195.59 280.33 196.61 280.19C200.42 279.66 203.98 280.51 206.76 283.07H206.77ZM224.06 251.54C221.32 253.38 218.33 254.78 215.27 255.91C212.89 256.78 211.04 258.47 208.83 259.57C206.94 260.51 204.93 261.12 202.96 261.85C202.49 262.03 201.98 262.03 201.5 261.84C200.76 261.54 200.54 260.85 200.97 260.18C201.28 259.7 201.7 259.31 202.21 259.07C204.16 258.14 206.02 256.99 208.18 256.57C208.54 256.5 208.91 256.4 209.24 256.25C212.93 254.55 216.91 253.51 220.4 251.32C221.89 250.39 223.6 250.11 225.49 249.9C225.32 250.98 224.59 251.18 224.06 251.55V251.54ZM221.66 241.75C225.11 240.22 228.6 238.8 232.1 237.41C233.97 236.67 234.89 236.67 236.34 237.1C236.29 238.33 235.54 238.84 234.67 239.25C232.99 240.03 231.36 240.94 229.61 241.52C224.26 243.31 219.19 245.76 214.12 248.18C213.67 248.39 213.21 248.59 212.81 248.87C209.86 251 206.42 252.06 203.08 253.33C201.76 253.83 200.52 254.57 199.08 254.76C198.47 254.84 197.79 255.05 197.44 254.32C197.13 253.65 197.51 253.09 197.99 252.67C199.3 251.52 200.72 250.52 202.35 249.87C204.59 248.97 206.83 248.09 209.08 247.22C213.34 245.56 217.47 243.6 221.64 241.74L221.66 241.75ZM193.99 247.1C195.73 246.16 197.47 245.19 199.38 244.61C202.17 243.76 204.73 242.4 207.38 241.22C208.36 240.78 209.28 240.72 210.27 241.58C210.05 243.01 209.03 243.67 208.01 244.19C205.43 245.52 202.81 246.79 200.17 248C198.44 248.79 196.76 249.73 194.87 250.18C193.88 250.42 193.06 250.37 192.22 249.63C192.19 248.37 192.99 247.64 194 247.09L193.99 247.1ZM175.16 275.74C174.62 275.59 174.08 275.5 173.53 275.39C172.34 275.16 171.24 274.67 170.48 273.74C169.33 272.34 167.92 271.23 166.65 269.96C166.02 269.32 165.5 268.57 165.41 267.71C165.14 265.17 164.95 262.58 166.1 260.22C167.13 258.11 167.94 255.88 169.56 254.08C171.06 252.41 172.55 250.8 174.77 250.08C176.53 249.51 178.18 248.57 180.11 248.73C180.54 248.77 181.04 248.68 181.38 248.87C183.5 250.02 186.01 250.36 187.93 251.87C189.32 252.96 190.81 254.02 191.57 255.75C192.12 257 193.07 258 193.57 259.31C194.07 260.63 194.27 261.94 194.18 263.67C194.62 266.66 192.76 269.07 190.78 271.31C186.54 276.08 181.26 277.43 175.17 275.75L175.16 275.74ZM151.81 338.45C151.51 338.83 151.02 339.07 150.8 339.52C149.59 342.01 147.4 343.49 145.11 344.7C142.83 345.9 140.46 347.01 137.83 347.31C136.47 347.46 135.13 347.47 133.78 347.2C131.62 346.77 130.12 345.33 128.87 343.74C126.35 340.54 124.76 336.93 125.25 332.75C124.88 329.55 126.21 326.86 127.44 324.14C127.97 322.96 128.99 322.06 129.95 321.44C133.41 319.2 136.87 316.96 141.46 317.79C143.49 318.16 145.09 318.83 146.44 320.26C148.78 322.75 151.05 325.33 152.52 328.44C153.25 329.99 153.72 331.74 153.94 333.44C154.19 335.4 153.01 336.98 151.83 338.44L151.81 338.45ZM149.53 307.83C147.97 307.55 146.92 306.22 146.15 304.81C145.67 303.93 145.22 303.06 144.47 302.37C144 301.93 143.85 301.32 143.69 300.71C142.63 296.59 143.28 292.84 145.85 289.42C147.42 287.33 149 285.26 151.05 283.62C153.27 281.85 155.71 280.64 158.6 281.64C160.22 282.2 161.75 283.06 163.27 283.87C164.13 284.33 164.9 285 165.71 285.56C169.78 288.35 170.49 292.41 169.92 296.94C169.85 297.5 169.67 298.04 169.62 298.6C169.31 302.21 167.28 304.66 164.4 306.54C164.04 306.78 163.66 306.99 163.31 307.24C161.46 308.56 159.58 309.78 157.38 309.12C154.45 309.61 152.06 308.28 149.53 307.83ZM161.93 319.1C161.07 320.47 160.3 321.91 159.07 322.98C158.14 323.79 157.22 324.65 155.78 324.04C154.23 323.39 155.62 319.24 156.32 318.13C157.35 316.52 158.48 315.01 159.82 313.6C162.38 310.93 165.56 309.34 168.67 307.57C170.53 306.51 172.58 306.04 174.69 305.84C174.75 305.84 174.8 305.83 174.86 305.83C177.53 305.65 178.61 309.35 176.2 310.53C176.13 310.57 176.06 310.59 175.99 310.62C175.3 310.88 174.56 311.06 173.84 311.14C168.5 311.72 164.74 314.67 161.95 319.09L161.93 319.1ZM190.69 338.61C189.55 341.45 187.93 343.88 185.34 345.57C184.82 345.91 184.25 346.14 183.63 346.28C182.61 346.52 181.53 346.64 180.57 347.04C176.23 348.86 172.74 346.88 169.4 344.5C167.89 343.43 166.59 342.07 165.2 340.85C164.73 340.43 164.3 339.97 164.06 339.39C162.93 336.65 162.18 333.87 163.27 330.9C164.1 328.62 164.89 326.31 166.21 324.27C169 319.98 173.6 317.62 178.97 317.63C183.56 317.3 186.85 319.59 189.55 323.02C189.7 323.21 189.86 323.43 189.93 323.66C190.77 326.58 191.69 329.48 191.67 332.6C191.66 334.69 191.47 336.66 190.69 338.61ZM197.86 321.28C197.57 322.51 196.05 322.81 195.3 321.8C194.86 321.2 194.29 320.75 193.69 320.32C193.53 320.2 193.41 320.03 193.33 319.85C193.31 319.84 193.29 319.82 193.28 319.8C192.97 319.48 192.68 319.16 192.43 318.8C192.01 318.22 192.18 317.41 192.68 316.95C193.24 316.44 193.95 316.55 194.53 316.95C194.89 317.2 195.52 316.96 195.9 316.88C196.53 316.75 197.13 316.71 197.76 316.82C198.47 316.94 199.07 317.74 198.89 318.48C198.64 319.45 198.09 320.31 197.86 321.27V321.28ZM229.72 331.21C229.56 333.96 229.11 336.81 227.02 339C226.34 339.72 225.75 340.54 225.19 341.36C224.07 343.02 222.46 344.06 220.75 344.94C219.49 345.59 218.16 346.12 216.89 346.75C215.81 347.28 214.71 347.64 213.86 347.48C212.37 347.51 211.29 347.36 210.21 347C209.04 346.61 207.88 346.17 206.66 345.91C204.99 345.56 203.87 344.36 202.86 343.07C202.21 342.24 201.66 341.33 201.01 340.5C199.45 338.49 199.06 336.1 198.75 333.68C198.6 332.47 198.88 331.33 199.65 330.33C200.53 329.17 200.96 327.79 201.51 326.47C202.78 323.42 204.6 320.79 207.28 318.84C209.09 317.52 211.09 316.54 213.24 315.9C215.38 315.27 217.59 314.98 219.8 314.75C221.25 314.59 222.65 315.03 223.81 315.94C225.69 317.42 227.15 319.24 228.02 321.52C229.22 324.64 229.89 327.91 229.7 331.2L229.72 331.21ZM236.36 329.15C240.85 326.73 245.32 324.66 250.16 323.13C253.69 322.01 257.15 320.42 260.55 318.97C261.52 318.56 262.83 318.98 264.23 318.97C261.6 321.69 258.71 323.24 255.43 324.12C253.33 324.68 251.35 325.55 249.42 326.53C245.61 328.48 241.62 329.99 237.58 331.35C237.46 331.39 237.34 331.42 237.23 331.46C236.35 331.69 235.35 331.84 235 330.82C234.65 329.81 235.68 329.52 236.38 329.15H236.36ZM283.93 318.93C279.99 320.73 276.03 322.51 272.12 324.35C266.9 326.81 261.31 328.31 256.17 330.92C253.19 332.43 250.29 334.14 247.25 335.54C243.89 337.09 240.41 338.4 236.97 339.78C236.32 340.04 235.63 340.07 234.97 339.27C235.57 338.08 236.67 337.54 237.65 337.01C240.7 335.36 243.9 334.02 247.2 332.93C249.6 332.13 251.92 331.07 254.3 330.19C259.85 328.15 264.92 325.15 270.1 322.37C271.53 321.61 273.09 321.2 274.58 320.58C277.95 319.18 281.28 317.7 284.64 316.26C285.52 315.88 286.41 315.43 287.59 315.79C286.73 317.41 285.37 318.26 283.94 318.92L283.93 318.93ZM298.18 307.49C293.58 309.64 286.88 313.15 282.07 314.75C278.16 316.05 276.22 315.64 271.86 316.87C272.62 315.8 273.37 315.41 274.09 314.98C277.82 312.73 281.85 311.15 285.93 309.71C289.15 308.57 292.12 306.87 295.25 305.53C298.43 304.18 301.56 302.64 305.01 302.06C305.83 301.92 306.68 301.67 307.68 302.18C305.9 304.08 303.89 305.32 301.59 306.08C300.41 306.47 299.29 306.98 298.17 307.5L298.18 307.49ZM314.47 307.4C312.32 308.46 310.16 309.54 307.79 310.02C307.11 310.16 306.33 310.45 305.61 309.63C306.19 308.36 307.5 308.37 308.38 307.77C309.95 306.71 311.51 305.53 313.43 305.11C314.25 304.93 315.34 304.51 315.78 305.45C316.24 306.45 315.19 307.04 314.47 307.39V307.4ZM347.01 288.34C343.39 289.93 339.69 291.29 335.93 292.5C334.11 293.08 332.33 293.79 330.51 294.39C329.24 294.81 327.96 295.29 326.39 294.75C328.96 291.35 346.68 284.08 349.76 285.17C349.41 286.74 348.39 287.73 347.01 288.33V288.34ZM370.63 268.85C369.5 269.34 368.32 269.7 367.19 270.21C366.28 270.62 365.36 270.99 364.56 271.57C361.1 274.01 357.2 275.57 353.36 277.25C348.49 279.38 343.62 281.51 338.76 283.67C337.96 284.02 337.13 284.27 336.29 284.45C335.8 284.56 335.29 284.58 334.92 283.78C336.01 282.58 337.35 281.84 338.72 281.14C342.46 279.22 346.23 277.34 349.95 275.38C351.77 274.43 353.65 273.63 355.54 272.89C357.34 272.18 358.98 271.21 360.59 270.19C363.1 268.59 365.77 267.29 368.5 266.12C368.84 265.97 369.18 265.79 369.54 265.73C370.38 265.59 371.31 265.3 371.77 266.4C372.14 267.29 371.66 268.4 370.62 268.85H370.63Z" fill="#FF6A00"/>
<path d="M341.24 339.1C341.06 341.22 340.84 343.25 340.73 345.29C340.67 346.35 340.66 347.41 340.42 348.45C340.24 349.21 339.91 349.8 339.28 350.3C337.18 351.95 335.73 354.15 334.41 356.44C332.77 359.3 331.68 362.42 330.16 365.34C329.33 366.94 329.85 368.18 331.54 368.95C333.86 370.01 334.54 369.81 336.14 367.81C337.28 366.37 338.02 364.74 338.66 363.04C339.33 361.3 340.19 359.66 341.16 358.02C342.28 358.38 342.74 358.98 342.7 360.1C342.61 362.98 342.07 365.76 341.38 368.56C340.84 370.72 340.38 372.95 340.17 375.15C339.84 378.48 338.71 381.58 338.05 384.81C337.36 388.23 335.97 391.27 333.47 393.83C332.33 394.99 331.71 396.65 330.75 398.01C329.47 399.83 328.63 401.94 327.17 403.65C326.57 404.34 326.36 405.2 326.25 406.06C326.07 407.34 326.79 408.42 328.09 408.97C329.71 409.66 329.99 409.5 331.18 408.36C332.97 406.65 334.05 404.47 335.27 402.4C336.56 400.21 338.13 398.2 339.14 395.81C340.05 393.67 342.65 393.18 343.82 394.74C344.57 395.74 345.08 396.99 344.62 398.25C343.66 400.88 343.06 403.64 341.78 406.16C341.32 407.06 341.18 408 341.13 409.03C341.06 410.64 340.61 412.1 339.37 413.39C337.49 415.36 335.93 417.63 335.1 420.31C334.81 421.25 334.3 421.87 333.48 422.46C327.91 426.48 321.56 428.98 315.44 431.94C312.15 433.53 308.9 435.17 305.54 436.6C304.79 436.92 304.03 437.14 303.23 437.27C301.85 437.49 300.8 436.91 299.99 435.9C299.16 434.87 299.16 433.7 299.81 432.57C301.09 430.3 302.36 428.02 303.73 425.81C305.21 423.44 306.35 420.86 308.12 418.66C308.94 417.65 309.66 416.56 310.54 415.59C313.08 412.78 315.19 409.63 317.31 406.5C317.62 406.05 317.8 405.48 317.92 404.94C318.2 403.74 318.69 402.45 317.43 401.5C316.25 400.6 314.18 400.68 312.9 401.58C312.23 402.05 311.69 402.63 311.24 403.32C309.84 405.45 308.44 407.58 306.97 409.66C306.07 410.94 304.98 412.01 303.34 412.37C302.57 412.54 301.86 413 301.13 413.34C299.86 413.93 298.56 414.21 297.16 413.97C295.03 413.6 294 411.73 295.24 409.97C296.71 407.9 297.92 405.64 299.67 403.76C303.58 399.57 307 395.04 309.93 390.08C311.96 386.64 313.54 383.01 315.36 379.48C315.99 378.26 316.74 377.14 317.6 376.06C320.31 372.66 323.11 369.32 325.18 365.46C325.36 365.13 325.56 364.81 325.68 364.46C326.08 363.32 325.7 362.24 324.69 361.52C323.58 360.74 323.05 360.74 321.92 361.78C320.77 362.82 319.67 363.94 318.85 365.28C317.88 366.88 316.74 368.35 315.55 369.79C314.48 371.08 313.39 371.27 311.8 370.42C310.56 369.76 310.32 369.04 310.91 367.25C311.91 364.21 313.49 361.45 315.23 358.79C318.58 353.69 321.18 348.15 324.28 342.91C327.46 337.53 329.43 331.6 331.97 325.93C332.61 324.51 333.22 323.09 333.82 321.66C335.32 318.09 337.61 318.44 339.99 320.79C341.07 321.86 341.59 323.39 341.96 324.77C342.58 327.04 343.77 329.01 344.69 331.1C345.69 333.37 346.45 335.77 347.74 337.91C350.07 341.78 352.11 345.85 355.37 349.09C356.61 350.32 357.44 351.87 358.27 353.41C358.76 354.33 358.91 355.26 358.09 355.98C357.24 356.72 356.42 357.77 355.02 357.27C354.2 356.98 353.36 356.69 352.84 355.92C350.49 352.35 347.41 349.31 345.28 345.57C344.18 343.63 342.77 341.86 342.06 339.71C341.98 339.48 341.84 339.26 341.23 339.15H341.22L341.24 339.1Z" fill="#006739"/>
<path d="M329.88 273.79C329.65 273.02 329.88 272.72 330.19 272.5C332.84 270.61 334.41 267.6 337.11 265.76C337.79 265.3 337.93 264.65 337.53 263.97C337.04 263.12 336.38 263.51 335.76 263.81C333.1 265.1 330.97 267.11 328.85 269.11C325.86 271.91 323.58 275.18 322.14 279.07C321.72 280.2 320.91 281.25 320.08 282.16C317.37 285.15 314.54 287.96 310.99 290.02C307.65 291.95 304.04 292.84 300.38 293.79C296.66 294.75 293.02 295.15 289.21 294.51C287.72 294.26 286.12 294.44 284.6 294.66C281.13 295.18 277.56 295.1 274.21 296.47C272.91 297 271.48 297.35 270.08 297.48C268.48 297.63 267.34 298.55 266.1 299.34C265.69 299.6 265.26 299.98 265.57 300.57C265.82 301.03 266.32 301.05 266.72 300.89C269.48 299.85 272.39 299.64 275.27 299.31C275.45 299.29 275.63 299.18 275.81 299.18C276.46 299.17 277.26 298.88 277.64 299.66C277.98 300.36 277.58 301.02 277.13 301.54C275.11 303.93 272.84 306.04 270.08 307.54C267.85 308.75 265.66 310.05 263.36 311.11C261.05 312.17 258.76 313.23 256.26 313.78C254.21 314.23 252.39 315.45 250.24 315.59C246.28 315.86 242.33 316.08 238.5 314.65C235.5 313.53 232.69 312.06 230.88 309.32C229.12 306.66 230.05 305.39 232.12 304.33C235.82 302.45 239.66 300.87 243.39 299.07C249.52 296.11 255.82 293.51 261.57 289.75C264.36 287.92 267.37 286.42 270.3 284.81C272.26 283.74 274.41 283.11 276.4 282.09C277.51 281.52 278.47 280.73 279.57 280.19C281.41 279.29 283.21 278.29 285.12 277.59C288.44 276.36 291.5 274.58 294.68 273.06C297.53 271.7 300.32 270.23 303.31 269.18C305.77 268.31 307.99 266.91 310.34 265.8C313.48 264.32 316.82 263.32 319.86 261.62C324.84 258.85 330.17 256.78 335.13 253.95C336.85 252.97 338.69 252.2 340.48 251.36C344.63 249.42 348.63 247.15 352.69 245.03C353.73 244.49 354.78 243.96 355.94 243.68C358.71 243.02 360.72 244.39 361.1 247.23C361.42 249.59 360.57 251.64 359.4 253.6C356.02 259.25 351.29 263.41 345.58 266.56C342.86 268.05 340.15 269.55 337.34 270.84C334.94 271.95 332.42 272.8 329.85 273.81L329.88 273.79Z" fill="#AEFFE4"/>
<path d="M287.65 249.39C287.46 248.7 287.9 248.37 288.24 248.03C289.37 246.88 290.45 245.64 291.72 244.66C293.24 243.49 294.21 241.91 295.3 240.41C295.96 239.49 295.7 238.76 294.68 238.35C293.53 237.89 292.66 238.39 291.86 239.2C289.18 241.89 286.71 244.76 284.34 247.73C282.38 250.18 280.07 252.22 277.6 254.12C272.84 257.81 267.68 260.9 262.68 264.24C259.54 266.34 256.58 268.72 253.45 270.84C249.69 273.39 245.4 274.59 240.98 275.39C238.3 275.88 235.56 276.43 232.88 276.27C228.94 276.04 224.95 276.21 221.06 275.28C218.88 274.76 216.6 275.1 214.43 274.59C211.21 273.83 208.03 274.5 204.85 274.8C203.99 274.88 203.38 274.69 203.07 273.86C202.75 273 203.19 272.42 203.82 271.93C204.01 271.78 204.25 271.67 204.47 271.58C209.15 269.79 213.47 267.12 218.31 265.69C220.98 264.91 223.61 263.94 226.37 263.51C228.41 263.19 230.32 262.47 232.23 261.75C234.03 261.08 235.77 260.27 237.54 259.53C240.06 258.47 242.4 257.15 244.64 255.53C247.04 253.8 249.95 252.9 252.6 251.57C256.97 249.37 261.46 247.42 265.93 245.44C269.62 243.81 273.29 242.12 276.74 240.07C281.93 236.98 287.52 234.79 292.95 232.25C293.57 231.96 294.15 231.61 294.73 231.25C297.84 229.3 301.34 228.14 304.47 226.25C307.28 224.55 310.24 223.12 312.97 221.29C315.45 219.63 318.32 218.7 321.01 217.46C324.17 216.02 327.22 214.39 330.21 212.63C332.51 211.28 334.95 210.19 337.66 209.9C340.74 209.57 342.56 212.02 341.37 214.88C339.54 219.26 336.17 222.03 332.07 224.09C327.56 226.35 322.8 227.84 317.92 229C315.33 229.62 312.8 230.46 310.14 230.72C309.96 230.74 309.77 230.77 309.6 230.83C309.12 231.02 308.69 231.31 308.67 231.88C308.65 232.5 309.14 232.7 309.64 232.83C311.53 233.33 313.45 233.23 315.35 232.97C317.06 232.73 318.76 232.38 320.47 232.11C321.13 232.01 321.93 231.78 322.27 232.6C322.63 233.49 321.92 234 321.3 234.39C319.19 235.69 316.99 236.82 314.7 237.8C308.84 240.31 302.87 242.57 297.26 245.66C294.93 246.94 292.48 248.01 290.05 249.11C289.32 249.44 288.5 249.94 287.67 249.37H287.66L287.65 249.39Z" fill="#AEFFE4"/>
<path d="M215.36 224.13C213.79 223.24 212.4 222.78 210.79 223.04C206.64 223.72 203.31 225.95 200.4 228.84C196.14 233.07 191.46 236.7 186.21 239.6C184.21 240.7 182.05 241.27 179.82 241.41C177.84 241.54 175.91 240.96 174.79 239.17C173.58 237.24 173.6 235.14 174.78 233.13C175.64 231.66 176.8 230.53 178.15 229.48C182.71 225.95 187.8 223.44 193.01 221.1C195.55 219.95 198.09 218.8 200.63 217.65C202.12 216.98 203.72 216.62 205.28 216.43C209.06 215.98 212.62 214.75 216.22 213.65C221.14 212.15 225.99 210.36 230.62 208.17C235.08 206.06 239.52 203.83 243.72 201.18C246.77 199.26 250.08 197.85 253.26 196.17C254.68 195.42 256.13 194.7 257.55 193.95C262.04 191.55 266.63 189.4 271.3 187.4C274.6 185.98 277.68 184.13 280.85 182.46C282.59 181.53 284.31 180.55 286.2 179.92C287.9 179.36 289.52 178.59 291.21 177.98C293.23 177.26 295.28 177 297.36 176.71C299.76 176.37 301.53 177.17 302.8 179.35C304.84 182.84 304.57 186.17 302.5 189.68C300.03 193.86 296.4 196.46 292.23 198.47C288.84 200.1 285.14 200.63 281.44 201.06C281.15 201.1 280.83 201 280.53 200.92C279.82 200.75 278.94 200.75 278.81 199.79C278.69 198.9 279.53 198.75 280.09 198.39C282.27 196.98 284.63 195.78 285.87 193.28C285.98 193.06 286.14 192.85 285.95 192.45C283.64 192.59 281.6 193.63 279.67 194.81C274.8 197.79 270.02 200.91 265.17 203.9C262.06 205.83 258.72 207.35 255.56 209.18C251.83 211.34 247.84 212.89 243.78 214.15C238.52 215.78 233.12 216.98 227.55 216.87C226.2 216.85 224.97 217.08 224.12 218.41C224.75 219.62 225.95 219.77 227.06 220.01C227.65 220.13 228.3 220.08 228.91 220.06C229.84 220.02 230.43 220.49 230.8 221.3C231.16 222.1 230.84 222.75 230.3 223.34C229.71 223.98 229.12 224.63 228.35 225.07C225.14 226.92 221.75 228.18 218.06 228.58C216.63 228.74 215.3 229.27 213.97 229.78C212.91 230.19 211.82 230.35 210.69 230.35C209.75 230.35 208.96 229.94 208.6 229.06C208.23 228.14 208.96 227.56 209.53 226.99C210.13 226.4 210.92 226.25 211.7 226.01C212.9 225.64 214.24 225.5 215.34 224.14L215.36 224.13Z" fill="#AEFFE4"/>
<path d="M224.82 422.04C224.11 422.73 223.7 423.41 223.49 424.19C222.41 428.16 220.28 431.59 218.07 434.98C217.35 436.08 216.69 437.16 216.31 438.46C215.67 440.62 214.32 441.28 212.16 440.69C210.59 440.26 209.21 439.42 207.75 438.74C206.96 438.38 206.21 438.06 205.27 438.18C204.15 438.32 203 438.08 202.1 437.35C201.16 436.6 200.11 436.1 199 435.71C198.88 435.67 198.76 435.63 198.65 435.58C195.66 434.04 195.36 432.74 196.94 429.9C198.18 427.67 199.53 425.5 200.83 423.31C203 419.67 204.8 415.85 206.78 412.11C209.11 407.72 211.47 403.34 213.76 398.92C214.61 397.27 215.41 395.58 216.05 393.84C216.89 391.55 217.98 389.39 219.06 387.22C219.95 385.44 220.51 383.52 221.21 381.66C221.58 380.67 222.09 379.76 222.64 378.85C223.83 376.9 227.35 377.5 227.97 379.85C228.1 380.33 228.26 380.82 228.26 381.31C228.29 384.39 229.3 387.32 229.75 390.33C229.92 391.46 230.68 392.47 231 393.62C231.32 394.77 231.58 395.9 231.54 397.11C231.45 399.2 231.99 401.09 232.81 403.05C234.32 406.69 236.25 410.09 238.2 413.48C239.56 415.84 241.25 418.01 242.76 420.28C244.16 422.38 245.92 424.22 247.06 426.52C247.71 427.84 247.56 428.85 246.66 429.94C245.75 431.04 244.69 431.32 243.35 430.96C241.34 430.42 239.34 429.82 237.19 429.06C237.37 430.42 238.38 431.12 238.75 432.15C239.35 433.78 240.15 435.33 241.19 436.76C242.21 438.15 241.44 441.58 240.02 442.49C239.5 442.82 238.96 442.81 238.42 442.6C237.42 442.23 236.49 441.71 235.76 440.94C234.77 439.91 233.72 438.9 232.93 437.73C232 436.34 230.75 435.18 229.97 433.7C228.47 430.84 227.29 427.83 226.09 424.84C225.72 423.92 225.28 423.07 224.82 422.06V422.04Z" fill="#006739"/>
<path d="M392.78 352.75C392.2 353.37 391.61 353.99 391.04 354.63C389.81 356.02 388.34 356.21 386.65 355.6C385.71 355.26 385.23 354.63 385.17 353.66C385.13 352.91 385.21 352.17 385.38 351.43C386.29 347.28 387.73 343.3 389.48 339.45C390.15 337.97 390.97 336.61 391.03 334.92C391.06 334.1 391.03 333.32 390.79 332.52C390.21 330.54 389.93 330.18 388.71 330.13C386.07 330.03 384.98 330.43 384.61 332.35C384.1 334.96 382.65 337.2 382.05 339.7C381.53 341.87 380.79 343.27 378.45 343.6C377.75 343.7 377.11 344.27 376.39 343.7C375.6 343.07 375.59 342.25 375.77 341.32C376.09 339.65 376.8 338.12 377.26 336.5C378.67 331.53 380.15 326.58 381.63 321.63C382.84 317.57 384.29 313.59 385.26 309.46C386.31 304.98 387.34 300.48 388.47 296.02C389.07 293.68 389.88 293.25 392.32 293.06C393.9 292.94 395.38 292.79 396.57 294.14C396.9 294.52 397.24 294.86 397.4 295.35C398.28 298.26 399.57 301.02 400.1 304.08C400.37 305.66 401.21 307.21 401.72 308.8C403.2 313.35 404.66 317.92 406.39 322.37C407.6 325.48 409.23 328.41 411.14 331.2C412.62 333.36 414.27 335.15 416.45 336.56C417.94 337.52 418.13 338.69 417.41 340.31C416.88 341.52 416 341.99 414.3 341.65C411.37 341.05 409.01 339.59 407.89 336.63C407.58 335.82 407.2 335.03 406.86 334.24C406.42 333.19 405.58 332.35 404.27 332.48C402.9 332.62 401.56 332.9 400.92 334.37C400.46 335.41 401.13 338.26 402.32 339.16C403.73 340.22 403.9 341.49 403.72 343.07C403.17 347.68 403.55 352.16 405.92 356.3C406.39 357.13 406.5 358.06 406.26 359.02C405.78 360.91 405.11 362.69 403.68 364.1C402.57 365.19 401.58 366.38 400.67 367.65C399.12 369.82 397.34 371.81 395.37 373.62C394.74 374.2 394.36 375.03 393.82 375.7C392.57 377.24 391.73 377.43 390.13 376.63C388.68 375.9 388.34 375.03 388.72 373.21C389.34 370.21 390.62 367.4 391.24 364.41C392.03 360.6 392.71 356.77 392.78 352.72V352.75ZM397.53 362.34C398.93 361.51 399.58 360.45 400.31 359.45C400.53 359.15 400.85 358.73 400.63 358.44C399.68 357.21 399.58 355.6 398.65 353.97C398.26 356.91 397.91 359.5 397.54 362.34H397.53Z" fill="#006739"/>
<path d="M153.22 181.28C153.94 181.43 154.6 181.56 155.23 181.69C156.05 180.38 156.01 179.88 155.02 179.18C154.62 178.9 154.16 178.57 153.7 178.51C152.03 178.3 151.15 177.13 150.29 175.88C149.38 174.54 148.57 173.13 147.93 171.65C147.3 170.19 147.65 169.55 149.21 169.17C149.8 169.03 150.27 168.78 150.46 168.19C150.68 167.51 150.18 167.17 149.74 166.81C149.5 166.62 149.28 166.38 149.02 166.23C146 164.52 145.48 161.5 145.06 158.45C144.95 157.68 145.14 157.06 146.06 156.7C147.23 156.24 147.38 154.91 146.28 154.29C144.64 153.36 144.17 151.74 143.65 150.21C142.65 147.27 142.18 144.16 140.87 141.23C139.58 146.57 139.43 152.12 137.32 157.52C138.17 157.08 138.36 156.52 138.72 156.11C139.14 155.64 139.55 155.11 140.28 155.37C141.06 155.65 141.23 156.33 141.12 157.05C140.76 159.39 140.25 161.69 139.47 163.93C138.21 167.57 136.28 170.92 134.97 174.88C135.94 174.18 136.2 173.29 136.66 172.55C137.55 171.11 138.35 170.94 139.75 171.73C140.52 172.16 140.69 172.77 140.65 173.59C140.57 175.43 139.96 177.1 139.2 178.75C137.79 181.8 136.48 184.89 135.14 187.96C134.92 188.46 134.68 188.97 134.74 189.71C136.16 188.44 137.08 186.92 137.98 185.41C138.56 184.44 139.2 183.53 139.93 182.68C140.48 182.04 141.17 181.64 142.07 182C143.05 182.39 143.87 183.48 143.81 184.41C143.74 185.47 143.48 186.53 143.05 187.49C141.14 191.81 139.51 196.26 137.03 200.32C135.79 202.36 134.17 204.07 132.68 205.87C131.83 206.89 129.93 206.82 129.01 205.92C128.4 205.32 128.34 204.2 129.13 203.39C130.16 202.32 130.63 200.97 131.33 199.73C131.58 199.28 131.71 198.82 131.71 198.3C131.71 197.59 131.38 197.11 130.73 196.87C130.07 196.62 129.62 197.02 129.35 197.52C128.67 198.78 128.06 200.07 127.43 201.36C126.91 202.42 126.22 203.21 124.94 203.34C122.67 203.56 121.43 202.19 121.85 199.95C122.53 196.36 124.23 193.3 126.46 190.5C127.52 189.16 128.2 187.63 128.83 186.07C129.15 185.28 129.5 184.35 128.55 183.71C127.75 183.17 126.67 183.65 125.94 184.79C125.81 185 125.7 185.23 125.57 185.44C124.72 186.86 124.04 187.1 122.69 186.46C121.24 185.77 120.87 184.92 121.37 183.46C121.93 181.82 122.83 180.42 124.24 179.42C127.17 177.36 128.98 174.37 130.8 171.4C130.9 171.24 130.96 171.06 131.03 170.89C131.32 170.12 131.68 169.29 130.71 168.75C129.82 168.26 129.36 169.02 128.88 169.58C128.52 170 128.23 170.49 127.87 170.92C127.49 171.38 127.01 171.65 126.4 171.39C125.8 171.13 125.62 170.61 125.64 170.01C125.69 168.98 126.12 168.12 126.74 167.31C129.65 163.56 132.05 159.49 134.06 155.19C134.4 154.46 134.78 153.73 134.72 152.88C134.65 151.94 134.19 151.67 133.37 152.06C132.48 152.49 131.99 153.24 131.63 154.15C131.07 155.58 130.48 155.88 129.48 155.38C128.69 154.98 128.41 154.06 129.07 152.93C130.07 151.2 130.82 149.36 131.73 147.58C133.85 143.41 135.24 138.93 137.13 134.65C137.56 133.69 137.61 132.59 137.65 131.53C137.71 130.15 137.97 128.8 138.48 127.52C138.88 126.5 139.6 125.93 140.77 126.02C141.97 126.1 142.47 126.78 142.73 127.89C143.35 130.5 143.9 133.16 145.29 135.48C147.05 138.4 148.76 141.38 151.42 143.62C152.72 144.72 153.2 146 152.74 147.01C152.22 148.16 151.36 148.52 149.95 148.11C149.37 147.94 148.81 147.67 148.04 147.35C148.88 149.98 149.85 152.31 151.21 154.53C152.34 156.36 153.92 157.76 155.17 159.45C156.1 160.71 156.12 161.39 155.36 162.46C154.58 163.56 153.64 163.15 152.7 162.82C152.36 162.7 152.08 162.41 151.44 162.49C152.64 164.53 153.82 166.49 155.33 168.14C157.33 170.31 157.41 170.91 155.14 172.87C155.05 172.95 155 173.07 154.85 173.27C156.02 175.31 157.75 176.9 159.4 178.56C159.84 179 160.33 179.4 160.69 179.89C162.04 181.74 161.8 183.09 159.9 184.47C160.01 185.71 161.15 186.17 161.91 186.75C163.77 188.18 165.37 189.92 167.5 191.04C169.2 191.93 170.07 193.5 169.76 195.57C169.56 196.93 168.99 197.53 167.61 197.71C166.39 197.87 165.18 197.61 164.07 197.45C163.6 198.15 164.1 198.4 164.31 198.74C165.67 200.9 164.45 203.39 161.91 203.4C158.58 203.41 155.63 202.18 153.14 199.94C152.26 199.14 151.35 198.43 150.22 198C148.98 197.53 148 196.65 147.02 195.79C146.17 195.05 146.26 194.17 146.74 193.26C147.29 192.2 148.4 191.38 149.16 191.49C149.57 191.55 149.78 191.87 150.03 192.15C150.85 193.08 151.67 194.02 152.49 194.95C152.99 195.52 153.56 196.01 154.25 196.3C154.93 196.59 155.44 196.3 155.82 195.7C156.19 195.11 156.04 194.71 155.55 194.24C154.08 192.84 154.1 192.81 155.09 190.95C156.11 190.99 156.85 191.69 157.69 192.17C158.23 192.47 158.72 192.87 159.27 193.16C159.97 193.53 160.74 193.7 161.28 192.95C161.87 192.14 161.56 191.48 160.82 190.87C158.91 189.3 157.03 187.67 155.15 186.05C154.59 185.56 154.08 185.02 153.55 184.49C152.65 183.59 152.42 182.59 153.24 181.28H153.22Z" fill="#006739"/>
<path d="M255.31 111.73C255.64 113.39 256.37 114.78 257.24 116.03C258.44 117.78 259.36 119.69 260.38 121.53C261.73 123.95 263.39 126.09 265.08 128.24C265.2 128.39 265.33 128.52 265.45 128.67C266.25 129.72 267.26 130.92 266.56 132.2C265.84 133.53 264.44 134.24 262.8 134.13C262.62 134.12 262.42 134.05 262.2 134.36C263.27 136.09 264.59 137.7 266.16 139.08C267.15 139.95 267.99 140.95 268.69 142.05C269.52 143.36 269.11 144.23 267.68 144.78C266.42 145.26 265.16 144.87 263.58 144.89C266.09 147.45 268.13 150.04 270.84 151.91C271.92 152.66 272.83 153.59 273.76 154.5C274.41 155.14 274.81 155.96 274.26 156.86C273.67 157.81 272.76 157.87 271.8 157.5C270.88 157.14 269.93 156.84 269.1 156.27C265.52 153.82 261.99 151.32 259.55 147.57C258.74 146.33 258.35 144.98 258.1 143.57C257.96 142.79 258.16 142.06 258.71 141.49C259.28 140.9 259.94 140.62 260.65 141.3C260.74 141.38 260.82 141.48 260.91 141.57C261.36 142.04 261.86 142.42 262.54 142.17C262.91 142.03 263.13 141.69 263.1 141.28C263.05 140.51 262.41 140.25 261.84 140.06C260.71 139.69 259.94 138.84 259.25 137.99C257.5 135.82 255.77 133.62 254.57 131.06C254.03 129.89 253.86 128.68 253.95 127.41C253.99 126.81 254.16 126.27 254.73 126.03C255.45 125.74 255.74 126.36 256.03 126.8C256.64 127.74 257.43 128.32 258.54 128.56C259.2 128.71 259.81 128.84 260.15 128.14C260.5 127.4 260.76 126.6 259.91 125.95C259.32 125.5 258.75 125.01 258.17 124.55C257.53 124.05 256.91 123.54 256.24 123.08C254.17 121.65 252.86 119.69 252 117.34C250.9 114.35 249.9 111.35 249.29 108.22C248.99 106.65 249.41 105.97 251.42 104.85C250.7 103.43 249.9 102.03 249.25 100.56C248.87 99.6999 248.73 98.9399 248.97 98.0499C249.18 97.2599 249.29 96.4399 249.05 95.6499C248.82 94.8899 248.34 94.2999 247.51 94.1999C246.76 94.0999 246.46 94.7399 246.12 95.2599C245.62 96.0199 245.53 96.9099 245.53 97.7799C245.52 100.35 244.76 102.69 243.38 104.83C243.18 105.14 243 105.48 242.86 105.82C242.12 107.68 242.76 108.57 244.74 108.49C246.29 108.44 246.3 108.53 246.75 109.98C247.42 112.18 246.68 114.17 246.01 116.18C245.46 117.84 244.83 119.46 244.24 121.1C243.73 122.5 243.24 123.9 242.28 125.1C241.78 125.73 241.44 126.49 241.47 127.35C241.49 127.82 241.66 128.23 242.1 128.42C242.59 128.64 242.96 128.32 243.22 127.98C243.52 127.59 243.76 127.14 243.94 126.69C244.47 125.44 245.42 124.56 246.4 123.68C247 123.14 247.69 122.93 248.46 123.26C249.31 123.63 249.59 124.36 249.61 125.23C249.63 125.87 249.38 126.46 249.18 127.04C248.12 130.11 246.66 133 245.29 135.94C244.03 138.66 242.44 141.18 240.97 143.77C240.67 144.31 240.22 144.76 239.88 145.27C238.59 147.21 239.06 149.34 240.92 150.39C241.86 150.92 242.53 150.74 243.18 149.94C244.35 148.5 244.54 146.74 244.68 145.01C244.78 143.73 245.33 142.92 246.42 142.38C247.84 141.68 248.89 142.17 249.12 143.74C249.36 145.38 248.91 146.96 248.51 148.53C247.9 150.91 246.65 153.01 245.58 155.17C243.36 159.65 240.36 163.63 237.21 167.45C235.4 169.64 233.17 171.47 230.62 172.83C229.19 173.58 227.4 173.35 226.54 172.31C225.81 171.43 225.79 169.14 226.61 168.08C227.44 166.99 228.42 166.03 229.23 164.93C230.89 162.69 232.58 160.49 234.72 158.67C235.52 157.99 236.16 157.11 236.6 156.13C236.97 155.32 237.02 154.54 236.11 154.02C235.31 153.56 234.57 153.57 233.98 154.38C233.33 155.29 232.7 156.22 232.06 157.13C231.25 158.28 230.18 158.63 229.02 158.13C227.48 157.46 226.88 156.55 227.07 155.12C227.23 153.92 227.72 152.85 228.41 151.87C230.17 149.39 231.93 146.91 233.68 144.42C233.89 144.12 234.12 143.8 234.24 143.45C235.03 141.07 236.52 139.2 238.4 137.61C239.19 136.95 239.54 135.99 239.93 135.07C240.28 134.25 240.04 133.61 239.31 133.14C238.61 132.69 237.88 132.63 237.27 133.25C236.84 133.69 236.51 134.23 236.13 134.71C235.58 135.4 234.94 135.69 234.02 135.44C233.03 135.17 232.56 134.57 232.43 133.62C232.22 132.04 232.81 130.72 233.7 129.45C235.61 126.72 237.66 124.06 238.7 120.82C238.93 120.1 239.26 119.43 239.83 118.92C241.1 117.78 241.83 116.24 242.83 114.89C243.26 114.31 243.53 113.7 242.89 113.06C242.03 112.21 241.2 112.03 240.41 112.59C239.66 113.12 239.35 113.94 239 114.75C238.39 116.14 237.24 116.63 236.08 116.02C234.92 115.4 234.65 114.1 235.43 112.84C237.07 110.2 238.87 107.65 240.39 104.93C242.65 100.88 244.26 96.5699 245.41 92.0899C245.63 91.2399 245.77 90.3699 246.16 89.5899C247.17 87.5299 249.05 87.3699 250.3 89.2599C250.81 90.0299 251.29 90.8699 251.58 91.7399C253.16 96.4599 255.56 100.71 258.59 104.63C259.27 105.51 259.84 106.48 260.25 107.55C261.16 109.91 259.73 111.93 257.19 111.83C256.64 111.81 256.13 111.45 255.31 111.65V111.67V111.73Z" fill="#006739"/>
<path d="M167.34 168.45C166.57 168.18 166.12 168.66 165.67 169.06C164.16 170.42 162.35 170.25 160.56 170.07C159.59 169.97 159.19 169.28 159.38 168.32C159.95 165.49 160.95 162.9 163.69 161.48C164.84 160.88 165.56 159.86 166.4 158.97C166.87 158.48 167.29 157.76 166.63 157.15C166.05 156.61 165.34 156.87 164.76 157.31C164.17 157.76 163.65 158.31 163.04 158.73C161.83 159.56 160.83 159.06 160.8 157.58C160.78 156.71 160.99 155.85 161.39 155.06C163.49 150.83 165.6 146.6 167.68 142.37C168.1 141.52 168.67 140.84 169.44 140.26C170.57 139.4 171.68 138.46 172.26 137.09C172.5 136.51 172.76 135.86 172.08 135.41C171.51 135.04 170.87 135.08 170.34 135.5C169.9 135.84 169.55 136.29 169.14 136.67C168.02 137.66 166.89 137.38 166.43 135.96C165.94 134.46 166.4 133.12 167.32 131.93C168.57 130.31 170.02 128.83 170.96 126.99C171.96 125.04 173.69 123.62 174.74 121.7C175.16 120.93 175.57 120.16 175.77 119.31C175.91 118.71 176.12 117.99 175.34 117.69C174.57 117.39 173.85 117.61 173.43 118.38C172.89 119.36 172.39 120.37 171.89 121.37C171.64 121.86 171.52 122.43 171.05 122.77C169.33 122.35 169.04 121.92 169.42 120.38C169.66 119.4 170.01 118.47 170.6 117.65C173.91 112.98 175.97 107.71 177.91 102.38C178.29 101.33 178.36 100.18 178.85 99.1601C179.24 98.3501 179.75 97.5901 180.78 97.7001C181.73 97.8001 182.3 98.4401 182.58 99.3601C182.78 100.02 183.04 100.65 183.23 101.31C184.03 104.09 185.83 106.21 187.78 108.22C188.52 108.98 189.02 109.76 188.75 110.88C188.46 112.1 187.96 112.43 186.68 112.17C185.57 111.95 185.01 112.4 185.1 113.54C185.15 114.28 185.23 115.14 185.8 115.62C187.47 117.06 188.39 119.13 190.02 120.57C191.05 121.47 192.05 122.39 192.83 123.53C193.15 123.99 193.46 124.44 193.51 125.04C193.63 126.46 192.94 127.29 191.52 127.38C190.77 127.43 190.05 127.28 189.33 127.08C188.96 126.98 188.59 127.08 188.34 127.43C188.05 127.84 188.07 128.27 188.38 128.64C189.02 129.39 189.62 130.23 190.38 130.84C192.46 132.47 193.72 134.79 195.43 136.74C195.63 136.97 195.74 137.28 195.86 137.57C196.14 138.24 196.7 138.91 196.1 139.65C195.56 140.33 194.75 140.18 194.02 140.11C191.82 139.89 190.24 138.56 189.04 136.85C187.59 134.78 186.18 132.68 185.11 130.34C184.04 128 183.42 125.78 185 123.46C185.46 122.78 185.06 122.28 184.77 121.74C183.04 118.45 182.11 114.93 181.76 111.23C181.7 110.6 181.83 109.99 181.82 109.37C181.81 108.7 181.64 108.09 180.88 107.97C180.14 107.85 179.69 108.34 179.52 108.98C178.9 111.22 178.52 113.5 178.82 115.82C179.01 117.35 178.88 118.75 178.42 120.22C177.56 122.96 176.74 125.71 175.1 128.11C174.86 128.46 174.73 128.9 174.65 129.33C174.55 129.85 174.75 130.3 175.22 130.61C175.66 130.9 176.02 130.72 176.41 130.47C177.26 129.92 177.98 129.25 178.45 128.34C178.86 127.56 179.4 126.96 180.36 127.35C181.34 127.74 181.31 128.6 181.05 129.41C180.23 131.96 179.47 134.56 178.08 136.86C176.51 139.46 175.25 142.26 173.37 144.69C172.95 145.23 172.58 145.8 172.11 146.3C171.64 146.8 171.24 147.37 171.05 148.04C170.88 148.65 170.82 149.31 171.45 149.73C172.1 150.17 172.78 150.11 173.33 149.58C174.22 148.71 175.01 147.74 175.63 146.66C176.19 145.69 176.69 144.68 177.15 143.66C177.48 142.91 177.79 142.29 178.77 142.66C179.68 143 180.29 143.55 180.1 144.61C179.9 145.72 179.57 146.84 178.86 147.71C176.87 150.19 175.2 152.87 173.63 155.62C173.23 156.32 172.63 156.91 171.95 157.35C170.55 158.27 169.72 159.68 168.78 160.98C168.09 161.93 168.17 162.94 168.8 163.32C169.46 163.72 170.33 163.42 171.03 162.57C172.38 160.95 173.2 158.94 174.81 157.49C175.91 156.5 176.71 156.27 177.79 156.83C178.59 157.24 178.98 158.43 178.68 159.65C178.59 160.01 178.43 160.35 178.26 160.69C175.85 165.47 173.09 170.04 169.81 174.29C168.86 175.52 167.77 176.64 166.47 177.51C166.12 177.75 165.73 178 165.33 178.1C164.42 178.32 163.6 178.02 162.96 177.37C162.39 176.78 162.7 176.09 162.93 175.44C163.28 174.49 163.76 173.7 164.64 173.08C165.8 172.26 166.87 171.28 167.35 169.85C167.48 169.45 167.71 169.03 167.33 168.48L167.34 168.45Z" fill="#006739"/>
<path d="M301.84 161.01C301.28 160.81 300.95 161.16 300.62 161.45C299.52 162.43 298.2 162.31 296.89 162.18C296.18 162.11 295.89 161.61 296.03 160.92C296.44 158.88 297.18 157.02 299.18 155.99C300.02 155.56 300.54 154.82 301.16 154.18C301.5 153.83 301.81 153.31 301.33 152.87C300.9 152.48 300.39 152.67 299.97 152.99C299.54 153.31 299.16 153.71 298.71 154.02C297.83 154.62 297.1 154.26 297.08 153.19C297.06 152.57 297.22 151.95 297.51 151.37C299.04 148.32 300.58 145.28 302.1 142.22C302.41 141.6 302.82 141.12 303.38 140.7C304.21 140.08 305.01 139.4 305.44 138.42C305.62 138.01 305.81 137.54 305.31 137.21C304.9 136.94 304.43 136.97 304.04 137.27C303.72 137.52 303.47 137.84 303.16 138.11C302.34 138.83 301.52 138.62 301.18 137.6C300.83 136.52 301.16 135.55 301.83 134.69C302.74 133.52 303.8 132.45 304.49 131.13C305.22 129.72 306.48 128.7 307.25 127.31C307.56 126.75 307.86 126.2 308 125.59C308.1 125.16 308.25 124.64 307.69 124.42C307.13 124.2 306.61 124.36 306.3 124.92C305.91 125.63 305.55 126.35 305.18 127.07C305 127.43 304.91 127.84 304.57 128.08C303.31 127.78 303.1 127.47 303.38 126.36C303.55 125.65 303.81 124.98 304.24 124.39C306.65 121.03 308.16 117.23 309.57 113.39C309.85 112.64 309.9 111.8 310.26 111.07C310.55 110.49 310.91 109.94 311.67 110.02C312.37 110.09 312.78 110.55 312.98 111.22C313.12 111.69 313.31 112.15 313.45 112.62C314.03 114.63 315.34 116.16 316.77 117.6C317.31 118.15 317.67 118.71 317.48 119.51C317.27 120.39 316.9 120.63 315.97 120.44C315.17 120.28 314.76 120.61 314.82 121.43C314.86 121.96 314.91 122.58 315.33 122.93C316.55 123.96 317.22 125.46 318.41 126.5C319.16 127.15 319.89 127.81 320.46 128.63C320.69 128.96 320.92 129.29 320.96 129.72C321.05 130.74 320.54 131.34 319.51 131.4C318.96 131.44 318.44 131.33 317.91 131.19C317.64 131.12 317.37 131.19 317.19 131.44C316.98 131.74 316.99 132.05 317.22 132.31C317.69 132.85 318.12 133.46 318.68 133.89C320.2 135.07 321.12 136.74 322.36 138.14C322.5 138.3 322.58 138.53 322.67 138.74C322.88 139.22 323.28 139.71 322.85 140.24C322.45 140.73 321.86 140.62 321.33 140.57C319.72 140.41 318.57 139.45 317.7 138.22C316.64 136.73 315.61 135.21 314.83 133.53C314.05 131.85 313.6 130.24 314.75 128.57C315.09 128.08 314.79 127.72 314.58 127.33C313.32 124.95 312.64 122.42 312.39 119.76C312.35 119.3 312.44 118.87 312.43 118.42C312.43 117.93 312.3 117.49 311.75 117.41C311.21 117.32 310.89 117.68 310.76 118.14C310.31 119.75 310.03 121.4 310.25 123.07C310.39 124.17 310.3 125.18 309.96 126.24C309.33 128.22 308.74 130.19 307.54 131.92C307.37 132.17 307.27 132.49 307.21 132.8C307.14 133.18 307.28 133.5 307.62 133.73C307.94 133.94 308.2 133.81 308.49 133.63C309.11 133.23 309.63 132.75 309.98 132.09C310.28 131.52 310.67 131.1 311.37 131.38C312.08 131.66 312.06 132.28 311.87 132.86C311.27 134.7 310.72 136.57 309.7 138.23C308.55 140.11 307.64 142.12 306.27 143.87C305.97 144.26 305.7 144.67 305.35 145.03C305.01 145.39 304.72 145.81 304.58 146.29C304.45 146.73 304.41 147.2 304.87 147.51C305.34 147.82 305.84 147.78 306.24 147.4C306.89 146.78 307.47 146.08 307.92 145.3C308.33 144.6 308.69 143.88 309.03 143.14C309.27 142.6 309.49 142.15 310.22 142.42C310.88 142.67 311.33 143.06 311.19 143.82C311.04 144.62 310.8 145.43 310.29 146.06C308.84 147.84 307.62 149.78 306.47 151.76C306.18 152.26 305.74 152.69 305.25 153.01C304.23 153.67 303.63 154.69 302.94 155.62C302.44 156.3 302.5 157.03 302.96 157.31C303.44 157.6 304.07 157.38 304.59 156.77C305.58 155.6 306.18 154.15 307.35 153.11C308.15 152.4 308.74 152.23 309.53 152.63C310.11 152.93 310.4 153.78 310.18 154.66C310.11 154.92 310 155.17 309.87 155.41C308.11 158.86 306.1 162.15 303.71 165.21C303.02 166.1 302.22 166.9 301.28 167.53C301.02 167.7 300.74 167.88 300.45 167.95C299.79 168.11 299.18 167.89 298.72 167.42C298.31 167 298.53 166.5 298.7 166.03C298.95 165.35 299.31 164.78 299.95 164.33C300.8 163.74 301.58 163.03 301.93 162C302.03 161.71 302.19 161.41 301.92 161.01H301.84Z" fill="#006739"/>
<path d="M166.26 211.31C166.49 212.16 166.2 212.65 165.35 212.79C159.58 213.72 154.15 215.79 148.77 218C146.54 218.92 144.24 219.68 141.92 220.27C133.5 222.4 126.44 226.86 120.6 233.17C117.5 236.52 113.77 238.87 110.09 241.38C105.79 244.31 101.49 247.24 97.9102 251.09C96.7802 252.31 95.6102 253.49 94.4802 254.71C93.2402 256.05 91.5802 257 90.0302 258.01C88.8302 258.79 87.7502 258.08 86.7902 257.39C85.8902 256.74 86.0302 255.77 86.2802 254.83C86.5902 253.67 87.1502 252.63 87.8502 251.67C91.5602 246.58 95.5102 241.78 100.76 238.13C104.55 235.49 108.17 232.51 111 228.77C112.62 226.64 114.51 224.76 116.3 222.79C117.68 221.27 119.61 220.59 121.4 219.86C125 218.4 128.82 217.54 132.56 216.48C136.35 215.41 140.21 214.49 143.83 212.86C145.59 212.07 147.43 211.52 149.29 211.08C150.86 210.71 152.4 210.23 153.86 209.61C155.55 208.9 157.29 208.62 159.06 208.53C160.5 208.46 161.92 208.75 162.71 210.23C162.99 210.75 163.4 210.88 163.94 210.86C164.74 210.84 165.54 210.8 166.25 211.3L166.26 211.31Z" fill="#AEFFE4"/>
<path d="M281.4 435.75C281.51 438.87 280.21 440.46 277.39 441.35C273.05 442.71 268.54 443.03 264.12 443.88C263.88 443.93 263.6 443.9 263.39 444.01C260.95 445.3 258.82 444.13 256.7 443.12C255.37 442.49 255.1 441.73 255.38 440.2C255.62 438.96 256.01 437.76 256.67 436.71C257.99 434.61 259.1 432.38 260.41 430.27C261.45 428.6 262.02 426.65 262.9 424.87C264.45 421.75 265.83 418.55 267.12 415.32C267.33 414.8 267.56 414.28 267.89 413.84C269.14 412.13 270.66 411.89 272.39 413.09C274.22 414.37 275 416.38 275.86 418.29C277.03 420.89 278 423.58 279.04 426.23C279.2 426.63 279.26 427.07 279.4 427.48C280.1 429.66 280.15 432.04 281.32 434.09C281.61 434.61 281.32 435.2 281.39 435.75H281.4Z" fill="#006739"/>
<path d="M353.73 374.42C355.37 375.58 356.51 377.08 357.88 378.34C358.34 378.76 358.83 379.13 359.33 379.5C359.98 379.98 360.69 380.17 361.36 379.56C362.06 378.92 362.64 378.26 362.23 377.13C361.55 375.29 360.13 374.06 358.78 372.8C357.91 372 357.08 371.18 356.31 370.28C355.26 369.06 354.26 367.81 352.93 366.84C351.92 366.11 351.4 364.9 350.86 363.78C350.43 362.89 350.68 362.24 351.39 361.65C352.18 360.99 352.89 361.22 353.54 361.83C355.65 363.84 357.72 365.9 359.84 367.9C364.53 372.33 369.39 376.57 374.53 380.46C376.01 381.58 376.49 383.14 376.57 384.87C376.62 385.92 375.88 386.51 375.03 387.02C374.13 387.55 373.51 387.09 372.85 386.6C372.1 386.05 371.3 385.56 370.59 384.97C369.89 384.38 369.34 384.36 368.66 385.01C367.98 385.65 367.72 386.27 368.17 387.15C368.57 387.92 369.21 388.36 369.98 388.66C371.24 389.17 372.5 389.69 373.75 390.23C374.38 390.5 374.92 390.89 375.3 391.52C376.09 392.84 376.22 393.93 375.6 394.64C374.41 396 373.08 396.45 371.69 395.85C367.84 394.19 364.55 391.73 361.59 388.74C358.6 385.71 356.36 382.11 353.88 378.7C352.71 377.09 352.69 375.76 353.74 374.43L353.73 374.42Z" fill="#006739"/>
<path d="M196.16 173.04C194.88 171.7 193.49 170.99 192.22 170.14C190.68 169.11 189.62 167.66 188.62 166.17C188 165.26 187.9 164.15 188.37 163.12C188.72 162.36 188.51 161.87 188.04 161.28C187.46 160.56 187 159.74 186.52 158.94C185.84 157.82 185.95 156.68 186.5 155.55C187.33 153.84 189.19 153.72 190.15 155.38C192.19 158.95 195.34 161.1 198.99 162.66C199.39 162.83 199.78 163 200.16 163.21C201.04 163.68 201.62 164.28 201.45 165.43C201.29 166.55 201.04 167.52 199.76 167.79C199.52 167.84 199.28 167.91 199.07 168.31C199.83 169.37 201.1 169.91 202.14 170.65C203.22 171.42 204.48 172 204.29 173.6C204.1 175.14 202.76 175.51 201.59 176.12C199.16 177.39 196.65 178.29 193.94 178.75C191.29 179.2 188.78 178.6 186.3 177.84C185.4 177.56 184.3 177.18 184.33 175.91C184.37 174.65 185.04 173.67 186.11 173.02C186.7 172.66 187.38 172.53 188.07 172.78C190.65 173.72 193.27 173.32 196.16 173.03V173.04Z" fill="#006739"/>
<path d="M284.93 121.83C284.14 122.29 283.98 122.85 284.67 123.45C285.48 124.16 285.52 125 285.39 125.99C284.6 131.68 283.47 137.28 281.09 142.55C280.91 142.95 280.77 143.37 280.52 143.73C279.78 144.83 278.63 144.76 278.07 143.55C277.42 142.17 277.19 140.83 277.8 139.25C278.82 136.61 280.04 134 280.22 131.01C279.33 131.32 278.72 132.04 277.99 132.56C277.42 132.97 276.83 133.39 276.13 132.94C275.35 132.44 274.9 131.71 275.02 130.73C275.13 129.82 275.65 129.13 276.21 128.45C278.99 125.08 280.73 121.2 281.74 116.97C282.03 115.75 282.29 114.55 283.19 113.59C283.73 113.01 284.28 112.84 285.01 113.17C286.09 113.67 287.1 114.18 287.48 115.5C287.7 116.26 288.13 116.99 288.56 117.66C290.63 120.88 291.94 124.43 293.16 128.02C293.4 128.71 293.78 129.2 294.38 129.59C295 129.99 295.59 130.46 296.15 130.95C296.69 131.41 297.18 132 296.71 132.73C296.24 133.46 295.46 133.84 294.62 133.43C292.94 132.61 291.32 131.68 290.32 130C289.74 129.03 289.08 128.16 288.27 127.36C287.37 126.48 286.9 125.3 286.45 124.14C286.12 123.29 285.91 122.34 284.94 121.84L284.93 121.83Z" fill="#006739"/>
<path d="M219.12 174.45C217.78 178 214.71 178.61 212.31 175.69C210.59 173.59 208.8 171.56 207.67 168.99C207.17 167.85 206.03 167 204.81 166.43C203.55 165.84 202.75 164.86 202.63 163.42C202.5 161.89 203.36 160.73 204.86 160.51C205.59 160.41 206.35 160.39 207.07 160.48C209.59 160.8 212.1 160.81 214.61 160.54C216.6 160.33 218.56 160.7 220.49 161.03C222.9 161.44 223.86 162.91 223.06 165.4C222.29 167.8 221.71 170.29 220.57 172.56C220.2 173.28 219.8 173.99 219.1 174.45C219.08 173.8 218.97 173.22 218.22 173C216.8 172.59 215.39 172.46 213.94 172.84C214.02 173.84 214.69 173.89 215.26 174.08C216.52 174.49 217.83 174.28 219.1 174.45H219.12ZM218.97 167.94C216.5 167.33 214.05 166.65 211.48 166.7C211.03 166.7 210.64 166.91 210.59 167.46C211.69 168.52 216.57 168.93 218.97 167.95V167.94Z" fill="#4177ED"/>
<path d="M245.02 168.97C243.97 169.77 243.03 170.48 242.1 171.19C241.45 171.68 240.77 172.1 239.91 172.08C239.28 172.07 238.62 172.06 238.3 171.4C237.95 170.68 238.21 170 238.77 169.56C240.2 168.42 241.17 166.88 242.36 165.54C244.1 163.57 245.42 161.31 246.85 159.13C248.14 157.16 249.3 155.11 250.54 153.11C251.07 152.26 251.73 151.51 252.56 150.94C253.79 150.07 254.91 150.22 255.86 151.32C256.26 151.79 256.41 152.27 256.07 152.85C254.73 155.15 253.72 157.65 252.18 159.85C251.71 160.52 251.1 161.05 250.63 161.7C250.15 162.36 249.92 162.97 250.62 163.69C251.26 164.35 251.88 164.34 252.61 163.92C253.27 163.53 253.77 163 254.16 162.35C254.64 161.55 255.13 160.76 255.63 159.97C256.01 159.38 256.5 158.91 257.17 158.68C258.13 158.35 258.78 158.77 258.82 159.79C258.86 160.68 258.62 161.56 258.14 162.29C256.47 164.85 254.7 167.29 251.97 168.87C249.63 170.22 247.36 171.17 245.03 168.99L245.02 168.97Z" fill="#006739"/>
<path d="M328.81 162.6C329.86 163.4 330.79 164.11 331.73 164.82C332.38 165.31 333.06 165.73 333.92 165.71C334.55 165.7 335.21 165.69 335.53 165.03C335.88 164.31 335.62 163.63 335.06 163.19C333.63 162.05 332.66 160.51 331.47 159.17C329.73 157.2 328.41 154.94 326.98 152.77C325.69 150.8 324.53 148.74 323.29 146.74C322.76 145.89 322.1 145.14 321.27 144.57C320.04 143.71 318.92 143.85 317.97 144.95C317.57 145.42 317.42 145.9 317.76 146.48C319.1 148.78 320.11 151.28 321.65 153.48C322.12 154.15 322.73 154.68 323.2 155.33C323.68 155.99 323.91 156.6 323.21 157.32C322.57 157.98 321.95 157.97 321.22 157.55C320.55 157.16 320.06 156.63 319.67 155.98C319.19 155.18 318.7 154.39 318.2 153.6C317.82 153.01 317.33 152.54 316.65 152.31C315.69 151.98 315.04 152.4 315 153.42C314.96 154.31 315.2 155.19 315.68 155.92C317.35 158.48 319.13 160.92 321.86 162.5C324.2 163.85 326.47 164.8 328.81 162.62V162.6Z" fill="#006739"/>
<path d="M191.27 210.54C189.3 210.61 187.44 209.76 187.07 208.66C186.64 207.38 187.44 205.36 189 204.32C191.62 202.56 194.22 200.77 196.98 199.23C198.6 198.33 200.16 197.33 201.73 196.36C203.18 195.46 204.61 194.64 206.35 195.75C207.67 196.59 208.27 198.48 207.44 199.81C204.12 205.16 199.46 208.7 193.39 210.34C192.66 210.54 191.93 210.54 191.27 210.54Z" fill="#AEFFE4"/>
<path d="M117.24 323.83C116.27 322.5 115.83 321.2 116.28 319.83C117.48 316.25 118.43 312.56 121.05 309.61C122.54 307.93 124.3 306.76 126.31 305.91C126.99 305.62 127.71 305.44 128.41 305.19C131.13 304.22 133.5 305.25 135.81 306.52C136.57 306.94 136.9 307.74 136.72 308.61C136.54 309.5 135.85 309.9 135.01 310.1C131.21 310.97 127.87 312.85 124.66 314.98C122.56 316.37 120.95 318.23 119.76 320.48C119.14 321.65 118.67 322.98 117.26 323.84L117.24 323.83Z" fill="#AEFFE4"/>
<path d="M136.79 282.82C136.67 280.45 138.03 278.61 139.22 276.86C141.29 273.82 143.72 271.08 147.23 269.58C149.51 268.61 151.87 268.3 154.3 268.43C155.18 268.48 155.98 268.88 156.68 269.41C157.34 269.91 157.89 270.55 157.75 271.46C157.61 272.39 156.87 272.8 156.06 273C153.95 273.52 151.87 274.14 149.9 275.04C147.71 276.03 145.47 276.96 143.65 278.63C142.3 279.87 141.2 281.27 140.64 283.04C140.41 283.77 140.1 284.43 139.56 284.97C139.11 285.42 138.62 285.85 137.94 285.69C137.15 285.51 136.97 284.77 136.8 284.12C136.69 283.72 136.78 283.26 136.78 282.83L136.79 282.82Z" fill="#AEFFE4"/>
<path d="M380.09 353.81C380.17 354.96 379.66 356.04 379.13 357.1C377.91 359.55 376.62 361.96 375.65 364.54C375.13 365.93 373.97 366.86 372.86 367.72C371.62 368.69 369.16 367.51 368.77 365.82C368.5 364.65 368.56 363.5 369.21 362.4C370.2 360.74 371.1 359.04 372.02 357.35C373 355.55 373.8 353.66 374.51 351.73C374.83 350.86 375.16 349.79 376.27 349.8C377.53 349.8 378.66 350.38 379.45 351.43C379.95 352.1 380.1 352.9 380.08 353.82L380.09 353.81Z" fill="#006739"/>
<path d="M182.38 168.48C182.26 170.45 180.75 172.02 179.4 173.6C177.68 175.63 175.56 177.27 173.48 178.93C172.55 179.67 171.53 180.21 170.29 180.27C169.26 180.32 168.41 180.06 168.01 179.07C167.62 178.1 168.17 177.35 168.89 176.82C171.5 174.91 173.5 172.35 175.88 170.19C176.62 169.52 177.24 168.75 177.78 167.91C178.22 167.22 178.8 166.64 179.54 166.3C181.14 165.56 182.45 166.44 182.37 168.47L182.38 168.48Z" fill="#006739"/>
<path d="M197.2 148.31C197.15 150.15 196.07 151.08 194.3 150.76C192.49 150.44 190.9 149.72 189.61 148.32C188.12 146.72 186.84 144.97 185.63 143.16C185.1 142.37 185.1 141.5 185.33 140.64C185.65 139.43 186.56 138.89 187.74 139.24C188.82 139.56 189.81 140.11 190.52 141.01C191.98 142.85 193.31 144.79 195.59 145.79C196.54 146.21 197.31 147.05 197.2 148.3V148.31Z" fill="#006739"/>
<path d="M288 133.62C289.08 133.7 289.86 134.02 290.45 134.75C291.43 135.96 292.5 137.07 293.63 138.14C294.56 139.03 294.61 140.47 293.87 141.56C293.2 142.56 292.26 142.35 291.37 142.04C288.84 141.14 287.14 139.26 285.97 136.94C285.26 135.53 286.65 133.6 288.01 133.62H288Z" fill="#006739"/>
<path d="M195.47 285.24C198.01 285.59 200.62 286.54 202.4 289.23C204.56 292.5 205.64 295.93 204.39 299.81C203.34 303.09 201.46 305.3 197.83 306.15C194.56 306.92 191.9 305.77 189.13 304.59C188.4 304.28 187.74 303.6 187.52 302.84C186.51 299.29 184.91 295.82 186 291.95C186.53 290.08 187.47 288.55 189.09 287.45C191.37 285.91 193.1 285.24 195.46 285.23L195.47 285.24ZM195.96 301.79C198.88 301.77 200.93 299.52 200.34 296.88C199.86 294.73 198.74 292.87 197.42 291.13C197.11 290.72 196.71 290.46 196.21 290.33C193.84 289.72 190.42 292.23 190.27 294.7C190.24 295.23 190.41 295.68 190.69 296.09C191.15 296.77 191.42 297.53 191.6 298.32C192.18 300.9 193.32 301.82 195.96 301.79Z" fill="#FF6A00"/>
<path d="M211.81 343.53C208.76 343.97 206.86 342.11 205.15 339.97C204 338.54 203.31 336.85 202.86 335.1C202.5 333.71 202.45 332.22 203.19 330.9C204.5 328.57 205.5 326.08 207 323.86C207.78 322.72 208.74 321.75 209.79 320.88C212.31 318.84 215.21 319.05 218.09 319.67C219.86 320.05 221.45 321.04 222.79 322.22C224.48 323.71 224.84 325.89 224.72 328.04C224.55 330.9 224.13 333.78 223.16 336.46C222.01 339.63 220.28 342.35 216.39 342.79C214.88 342.96 213.42 343.61 211.83 343.51L211.81 343.53ZM212.5 338.78C212.93 338.78 213.38 338.86 213.79 338.77C218.12 337.8 218.07 338.24 219.34 334.19C220.03 331.98 220.15 329.67 220.72 327.44C220.94 326.58 220.57 326.05 219.89 325.57C218.07 324.29 215.97 324.21 213.88 324.05C213.26 324 212.74 324.43 212.23 324.81C209.8 326.64 208.43 329.16 207.54 332.01C206.52 335.27 209.13 338.85 212.5 338.78Z" fill="#FF6A00"/>
<path d="M137.49 322.58C141.28 322.77 144.63 323.87 146.64 327.49C147.25 328.59 148.34 329.29 148.9 330.44C151.32 335.42 149.46 338.82 145.34 341.56C142.96 343.14 140.35 344.21 137.47 344.63C136.29 344.81 135.19 344.77 134.25 344.18C132.13 342.86 130.2 341.29 129.5 338.69C129.05 337.01 128.36 335.41 127.93 333.71C127.22 330.88 128.08 328.53 129.8 326.42C131.76 324.02 134.17 322.38 137.48 322.57L137.49 322.58ZM137.52 339.63C140.23 339.33 142.65 338.32 144.59 336.36C145.43 335.51 145.61 334.48 145.02 333.29C143.74 330.74 141.95 328.77 139.21 327.88C135.85 326.79 132.9 329.12 132.74 332.32C132.62 334.8 133.59 337.34 135.8 339.03C136.31 339.42 136.86 339.66 137.51 339.64L137.52 339.63Z" fill="#FF6A00"/>
<path d="M155.39 306.19C152.4 306.06 149.75 305.28 148.29 302.5C147.36 300.73 146.37 298.89 146.94 296.7C147.15 295.86 147.18 294.97 147.34 294.12C147.87 291.31 149.06 289.07 151.78 287.66C155.16 285.9 160.23 286.08 163.18 288.4C165.81 290.47 167.24 295.16 166.21 298.54C165.8 299.9 165.24 301.21 164.48 302.45C163.44 304.14 162.05 305.24 160.09 305.53C158.51 305.76 156.92 305.97 155.41 306.18L155.39 306.19ZM155.55 301.51C156.7 301.41 157.63 301.31 158.55 301.27C161.26 301.13 163.78 296.77 161.48 294.28C161.19 293.96 160.94 293.6 160.67 293.26C158.53 290.6 154.55 290.97 153.02 294.02C152.63 294.79 152.4 295.65 152.11 296.47C151.24 298.98 153.11 301.54 155.55 301.52V301.51Z" fill="#FF6A00"/>
<path d="M178.14 321.63C179.64 321.39 180.93 322.08 182.12 323.13C184.01 324.79 185.51 326.71 186.54 329.04C187.76 331.83 187.67 334.34 185.76 336.83C184.44 338.55 183.21 340.33 181.48 341.68C180.32 342.59 179.02 343.03 177.58 343.06C174.85 343.12 172.36 342.38 170.14 340.73C169.49 340.25 169.15 339.56 168.83 338.89C167.48 336.11 166.49 333.25 167.31 330.09C168.59 325.16 173.88 321.33 178.14 321.61V321.63ZM171.81 333.71C171.77 334.3 171.74 334.94 171.89 335.59C172.02 336.16 172.24 336.68 172.82 336.82C174.08 337.14 175.24 337.76 176.52 338.03C177.26 338.18 177.86 338.04 178.54 337.73C180.52 336.82 181.65 335.09 182.86 333.42C183.17 333 183.29 332.51 183.04 332.03C181.98 330.01 180.94 327.96 179.04 326.55C178.57 326.2 178.1 326.07 177.52 326.2C174.34 326.93 171.76 330.28 171.8 333.7L171.81 333.71Z" fill="#FF6A00"/>
<path d="M176.95 273.92C174.4 274.08 169.85 270.56 168.44 267.11C168.15 266.41 168.1 265.65 168.13 264.9C168.28 261.36 169.41 258.18 171.85 255.6C173.86 253.48 176.55 252.93 179.3 252.78C181.87 252.65 184.28 253.26 186.47 254.74C188.19 255.91 189.32 257.44 189.83 259.46C190.23 261.02 190.74 262.56 190.51 264.23C190.22 266.34 189.48 268.24 187.77 269.56C184.91 271.77 181.95 273.81 176.95 273.92ZM179.79 256.95C178.1 256.99 176.61 256.99 175.32 257.92C173.49 259.22 172.33 263.55 173.28 265.6C173.3 265.66 173.33 265.71 173.37 265.76C174.75 267.36 176.46 268.38 178.49 268.96C180 269.39 180.95 268.45 182.04 267.8C182.41 267.58 182.77 267.33 183.14 267.1C185.88 265.33 186.37 260.73 184.03 258.44C182.81 257.24 181.31 256.76 179.8 256.96L179.79 256.95Z" fill="#FF6A00"/>
<path d="M194.79 298.56C193.51 298.54 192.67 297.71 192.69 296.48C192.69 295.14 193.93 293.85 195.13 293.91C196.39 293.97 197.22 294.76 197.19 295.85C197.13 297.55 196.22 298.58 194.8 298.56H194.79Z" fill="#FF6A00"/>
<path d="M216.2 330.58C216.23 331.96 214.87 333.95 213.86 334C212.52 334.07 211.33 333.11 211.27 331.9C211.2 330.41 212.51 328.83 213.86 328.77C215.17 328.71 216.18 329.49 216.2 330.58Z" fill="#FF6A00"/>
<path d="M140.77 333.73C140.79 335.3 139.55 336.6 138.01 336.63C136.71 336.65 135.19 335.09 135.16 333.7C135.12 332.24 136.59 330.92 138.25 330.91C139.71 330.91 140.75 332.07 140.77 333.74V333.73Z" fill="#FF6A00"/>
<path d="M158.69 296.95C158.65 298.41 157.95 299.19 156.74 299.12C155.24 299.03 154.46 298.3 154.46 296.97C154.46 295.58 155.39 294.41 156.44 294.46C157.77 294.53 158.72 295.57 158.69 296.94V296.95Z" fill="#FF6A00"/>
<path d="M179.16 332.3C179.17 334.05 178.49 334.89 177.01 334.92C175.51 334.95 174.66 334.12 174.65 332.66C174.65 331.2 175.38 330.17 176.4 330.17C178.36 330.17 179.14 330.78 179.16 332.3Z" fill="#FF6A00"/>
<path d="M178.69 265.87C177.31 265.9 175.74 264.69 175.73 263.59C175.71 262.16 177.35 260.27 178.69 260.19C180.02 260.11 181.66 261.67 181.65 263.02C181.64 264.36 180.1 265.85 178.7 265.88L178.69 265.87Z" fill="#FF6A00"/>
<mask id="mask1_1323_9489" style="mask-type:luminance" maskUnits="userSpaceOnUse" x="18" y="160" width="106" height="137">
<path d="M124 160H18V297H124V160Z" fill="white"/>
</mask>
<g mask="url(#mask1_1323_9489)">
<path d="M71.4198 256.33C65.5298 256.45 59.6698 256.21 53.7998 255.47C51.1798 255.14 48.4798 255 45.7798 255.19C40.7898 255.55 35.7598 255.89 30.8498 254.42C30.3598 254.27 29.7798 254.18 29.3198 253.96C29.7998 257.32 30.2298 260.68 30.6598 264.04C30.7498 264.76 31.3398 265.3 32.0698 265.38C33.3798 265.53 33.8598 266.17 34.5898 267.94C34.8198 268.5 34.6998 269.16 34.2798 269.59C33.7698 270.11 33.2198 270.54 32.5998 270.87C31.9798 271.2 31.6498 271.8 31.7398 272.46C32.7098 279.73 33.8398 286.98 35.5798 294.12C35.7998 295.04 36.7998 295.54 37.6698 295.18C38.5398 294.82 39.3298 294.44 40.1198 293.96C42.7098 292.39 45.3898 290.99 48.2198 289.84C52.4898 288.1 56.3298 285.55 60.2598 283.19C60.4798 283.06 60.6098 282.83 60.4898 282.39C59.8198 282.24 59.0798 281.97 58.3198 281.94C54.8698 281.81 51.4098 281.76 47.9598 281.65C47.2198 281.63 46.3198 281.77 46.1698 280.47C47.9998 279.4 50.0798 278.86 52.1598 278.38C57.3898 277.17 62.6398 276.04 68.0298 275.74C69.4998 275.66 70.4498 274.88 71.2198 273.78C73.4498 270.58 75.4798 267.26 76.5098 263.47C77.0198 261.61 77.6398 259.75 77.9198 257.84C78.0398 256.98 77.4098 256.16 76.5498 256.1C74.7798 255.97 73.1098 256.28 71.4298 256.31L71.4198 256.33Z" fill="#4177ED"/>
<path d="M120.33 161.15C119.99 161.1 119.64 161.07 119.29 161.05C107.43 160.35 95.5498 160.22 83.6898 160.45C76.4098 160.59 69.1498 160.12 61.8598 160.25C55.4598 160.37 49.9 160.09 43.48 159.99C42.99 159.99 42.49 159.99 42 159.99C41.64 159.99 41.34 160.27 41.29 160.63C41.15 161.65 40.0898 162.66 39.8598 163.66C39.7798 164 40.0198 164.34 40.3698 164.38C44.0698 164.74 47.7598 164.55 51.4598 164.12C53.0398 163.94 55.6398 163.84 57.2298 163.97C62.6298 164.42 68.0098 164.48 73.4398 164.08C78.1898 163.73 82.9198 164.8 87.6698 165.09C88.9798 165.17 90.2598 165.12 91.5598 165.09C98.9298 164.83 106.27 165.33 113.6 165.97C113.94 166 114.29 166.02 114.63 166.08C115.27 166.19 115.82 166.48 115.88 167.19C115.92 167.75 115.62 168.02 115.22 168.16C114.26 168.5 112.61 168.72 111.6 168.76C108.14 168.89 104.7 169.02 101.25 168.44C99.3098 168.11 97.2698 168.27 95.2698 168.28C93.3498 168.29 91.4398 168.28 89.5998 167.73C84.3298 166.19 78.9098 167.01 73.5598 166.66C70.9698 166.49 68.3798 166.3 65.8098 165.88C62.0898 165.27 58.3598 165.78 54.6598 165.99C51.7998 166.15 48.9598 166.35 46.1098 166C45.4098 165.91 44.7398 165.99 44.0498 166.05C42.5998 166.18 41.1498 166.21 39.6998 166.17C39.4198 166.17 39.1798 166.34 39.0998 166.6C38.7698 167.72 38.3998 168.84 37.9998 169.94C37.8698 170.3 38.1298 170.68 38.5098 170.69C43.2998 170.8 48.0398 171.01 52.7498 171.92C52.3398 172.63 51.7598 172.46 51.2898 172.49C46.7598 172.87 42.2398 172.44 37.7298 172.24C37.3898 172.23 37.0798 172.43 36.9598 172.75C36.4998 173.94 36.0298 175.12 35.5598 176.31C40.7298 176.27 45.8798 176.39 51.0298 177.13C54.6998 177.66 58.4498 177.47 62.1698 177.51C68.7498 177.57 75.3298 177.91 81.9198 178C90.2998 178.11 98.6798 178.49 107.06 178.45C108.14 178.45 109.2 178.67 110.26 178.91C110.95 179.07 111.88 178.83 112.3 179.8C111.89 180.74 110.96 180.66 110.14 180.77C102.37 181.74 94.5798 181.42 86.7898 180.89C81.0898 180.5 75.4098 180.17 69.6798 180.45C66.4598 180.61 63.2298 180.57 60.0198 180.23C56.0498 179.81 52.0998 180.19 48.1298 180.09C43.8998 179.98 39.6698 179.79 35.4498 179.5C34.8398 179.46 34.3098 179.87 34.1898 180.47C33.9698 181.54 33.7298 182.61 33.4798 183.68C33.3598 184.19 33.6998 184.7 34.2198 184.78C36.4998 185.11 38.7898 185.34 41.1298 185.15C44.1198 184.9 46.9798 185.8 49.8698 186.3C50.3898 186.39 51.0498 186.47 51.2598 187.62C48.3198 187.62 45.5198 187.34 42.7998 187.68C39.6698 188.08 36.5598 188.01 33.4598 187.81C32.8798 187.77 32.3598 188.15 32.2198 188.71C31.6498 190.97 31.0998 193.24 30.6698 195.54C32.5898 195.74 34.4598 195.92 36.3198 196.02C43.2098 196.41 50.0398 197.39 57.0198 196.75C61.1798 196.37 65.4798 196.94 69.7198 196.93C73.8798 196.92 78.0398 197.04 82.2098 197.09C84.2198 197.11 86.1698 197.46 88.1098 197.91C88.9198 198.09 89.8798 198.17 90.1398 199.42C88.7298 200.65 86.9798 201 85.1498 200.93C81.9498 200.8 78.7498 200.53 75.5498 200.36C72.5898 200.2 69.6298 200.05 66.6598 199.96C63.6898 199.87 60.9298 199.59 58.1198 198.99C54.1698 198.14 50.1598 197.79 46.1098 197.79C40.8698 197.79 35.6098 197.85 30.4398 196.87C29.6798 201.88 29.7598 206.98 29.3698 212.04C32.8598 211.53 36.3498 212.1 39.8398 212.08C44.5198 212.05 49.1998 212.03 53.8698 212.16C57.8398 212.26 61.7698 213.09 65.7498 213.13C71.4598 213.18 77.1698 212.97 82.8598 213.63C84.3898 213.81 85.9198 213.89 87.4498 214.89C86.3298 215.87 85.1498 215.99 83.9598 215.98C79.3798 215.95 74.7898 215.78 70.1998 215.87C62.9898 216.03 55.9298 214.58 48.7898 214.06C46.3198 213.88 43.7698 214.24 41.2998 214.63C38.7798 215.02 36.3098 215.01 33.8098 214.66C32.4398 214.47 31.0498 214.45 29.6698 214.34C29.4998 214.33 29.3398 214.31 29.1698 214.3C28.5998 220.62 28.1498 226.74 28.3998 233.13C28.6298 239.06 28.9698 244.98 28.7498 250.92C28.7398 251.28 29.0898 251.57 29.4298 251.44C29.9198 251.26 30.5098 251.21 30.9998 251.16C33.8398 250.85 36.7098 251.01 39.5398 250.55C42.5798 250.06 45.5298 251.05 48.5598 251C51.8898 250.95 55.2198 250.92 58.5398 251.2C65.3398 251.78 72.1398 251.48 78.9398 251.46C81.2798 251.46 82.6898 250.46 83.5698 248.45C84.2598 246.86 85.0798 245.34 86.0498 243.91C86.3898 243.4 86.6698 242.86 86.3298 241.97C83.6598 241.13 80.4698 241.53 77.8498 239.82C78.1598 238.75 78.9098 238.54 79.6998 238.54C83.0098 238.54 86.2298 237.63 89.4998 237.51C92.9998 237.38 95.4798 235.7 97.3898 233.16C99.1398 230.83 101.27 228.95 103.52 227.24C108.84 223.19 113.51 218.47 118.21 213.77C120.4 211.58 120.41 208.46 118.41 206.14C117.41 204.98 116.06 204.11 115.66 202.46C115.47 201.68 114.69 201.62 113.95 201.61C112.04 201.59 110.14 201.58 108.24 201.45C106.06 201.3 103.89 201.03 101.54 200.12C102.57 199.55 103.36 199.67 104.11 199.64C107.57 199.47 111.04 199.3 114.5 199.17C115.69 199.13 116.76 198.89 117.38 197.77C118.3 196.1 119.19 194.41 119.29 192.46C119.4 190.21 119.49 189.32 116.95 188.54C115.83 188.19 115.47 187.46 115.5 186.4C115.53 185.27 115.61 184.17 116.26 183.17C117.15 181.8 117.98 180.38 118.89 179.01C119.56 177.99 120.45 176.93 119.74 175.71C119.03 174.49 117.67 175.02 116.64 175.17C113.61 175.61 110.58 175.72 107.59 175.08C103.39 174.19 99.2198 174.02 94.9198 174.42C91.9598 174.69 88.9898 174.95 86.0098 174.94C79.3098 174.92 72.5998 174.35 65.9498 173.38C64.9198 173.23 63.6998 173.21 62.9798 172.12C64.6398 171.09 64.6498 171.28 67.9198 171.11C77.9998 170.61 87.9598 172.36 98.0098 172.52C104.42 172.63 110.83 172.21 117.22 172.69C119.34 172.85 120.68 171.7 121.63 170.06C122.35 168.8 122.95 167.43 123.39 166.05C124.52 162.47 123.98 161.69 120.25 161.16L120.33 161.15ZM61.1398 241.25C58.7198 241.1 56.3698 240.47 53.9498 240.25C47.3198 239.67 40.6798 239.37 34.0298 239.18C33.0498 239.15 31.9698 239.41 31.1598 238.76C31.0198 238.17 31.3098 237.9 31.6398 237.86C36.4098 237.28 41.2198 235.85 45.9898 237.1C48.8298 237.85 51.6398 238.21 54.4398 237.86C57.7198 237.46 60.9998 237.59 64.2598 237.29C65.9498 237.14 67.2398 237.76 68.7198 239.3C66.2098 241.04 63.7298 241.4 61.1298 241.24L61.1398 241.25ZM110.52 215.33C108.65 217.37 102.3 217.15 98.5698 214.91C102.5 215.14 106.5 213.52 110.52 215.33ZM107.7 190.59C104.25 190.76 100.79 190.89 97.3398 190.47C94.4298 190.12 91.5098 189.8 88.5898 189.43C86.0798 189.11 83.5798 189.52 81.0798 189.55C77.6098 189.6 74.1598 189.3 70.7098 189.07C69.3798 188.98 68.2498 188.51 67.1098 187.63C68.0598 186.61 69.1598 186.51 70.2698 186.52C76.2498 186.59 82.1698 186.91 87.9898 188.53C91.1398 189.4 94.3598 188.45 97.5098 188.02C100.72 187.58 103.9 187.87 107.1 187.84C107.36 187.84 107.62 187.86 107.87 187.94C108.63 188.18 109.45 188.53 109.42 189.44C109.39 190.45 108.47 190.56 107.69 190.6L107.7 190.59Z" fill="#4177ED"/>
</g>
</g>
<defs>
<clipPath id="clip0_1323_9489">
<rect width="470" height="470" fill="white" transform="translate(1 1)"/>
</clipPath>
</defs>
</svg>
